<?xml version="1.0" standalone="no"?>
<!DOCTYPE svg PUBLIC "-//W3C//DTD SVG 1.1//EN" "http://www.w3.org/Graphics/SVG/1.1/DTD/svg11.dtd" >
<svg xmlns="http://www.w3.org/2000/svg" xmlns:xlink="http://www.w3.org/1999/xlink" version="1.1">
<metadata>
Created by FontForge 20170910 at Tue Mar 28 17:48:34 2017
 By Jimmy Wärting
Copyright \(c\) 2017 by atrissi.com. All rights reserved.
</metadata>
<defs>
<font id="Ooredoo-Heavy" horiz-adv-x="600" >
  <font-face 
    font-family="Ooredoo Heavy"
    font-weight="900"
    font-stretch="normal"
    units-per-em="1000"
    panose-1="0 0 10 0 0 0 0 0 0 0"
    ascent="777"
    descent="-223"
    x-height="528"
    cap-height="700"
    bbox="-509 -234 1191 950.964"
    underline-thickness="50"
    underline-position="-100"
    unicode-range="U+0020-2260"
  />
<missing-glyph horiz-adv-x="500" 
d="M410 777v-1000h-317v1000h317zM333 710h-165v-33h65v-37h-66v-33h166v33h-66v37h66v33zM267 581h-100v-104h166v34h-66v70zM233 547v-36h-33v36h33zM333 450h-166v-33h66v-37h-66v-33h100v70h66v33zM333 390h-33v-66h-133v-34h166v100zM333 268h-100v-56h34v23h33v-47
h-100v80h-33v-113h166v113zM333 95h-166v-113h166v113zM300 62v-47h-100v47h100zM333 -41h-166v-33h70l-70 -47v-33h166v33h-102l70 47h32v33z" />
    <glyph glyph-name=".notdef" horiz-adv-x="500" 
d="M410 777v-1000h-317v1000h317zM333 710h-165v-33h65v-37h-66v-33h166v33h-66v37h66v33zM267 581h-100v-104h166v34h-66v70zM233 547v-36h-33v36h33zM333 450h-166v-33h66v-37h-66v-33h100v70h66v33zM333 390h-33v-66h-133v-34h166v100zM333 268h-100v-56h34v23h33v-47
h-100v80h-33v-113h166v113zM333 95h-166v-113h166v113zM300 62v-47h-100v47h100zM333 -41h-166v-33h70l-70 -47v-33h166v33h-102l70 47h32v33z" />
    <glyph glyph-name="A" unicode="A" horiz-adv-x="687" 
d="M684 35c10 -24 -11 -35 -29 -35h-91c-18 0 -36 10 -45 31c-14 33 -29 67 -44 104h-263c-14 -34 -29 -68 -44 -104c-9 -21 -27 -31 -49 -31h-87c-18 0 -39 11 -29 35l270 630c10 24 36 47 71 47c28 0 58 -16 71 -47zM266 268h156c-26 66 -53 136 -78 206
c-26 -73 -51 -139 -78 -206z" />
    <glyph glyph-name="Aacute" unicode="&#xc1;" horiz-adv-x="687" 
d="M313 755c-26 -18 -46 -16 -60 -1c-15 16 -17 34 1 60l75 104c8 11 16 22 21 27c15 15 42 0 68 -26c25 -25 42 -53 26 -69c-5 -5 -15 -12 -27 -21zM684 35c10 -24 -11 -35 -29 -35h-91c-18 0 -36 10 -45 31c-14 33 -29 67 -44 104h-263c-14 -34 -29 -68 -44 -104
c-9 -21 -27 -31 -49 -31h-87c-18 0 -39 11 -29 35l270 630c10 24 36 47 71 47c28 0 58 -16 71 -47zM266 268h156c-26 66 -53 136 -78 206c-26 -73 -51 -139 -78 -206z" />
    <glyph glyph-name="Acircumflex" unicode="&#xc2;" horiz-adv-x="687" 
d="M230 745c-21 0 -39 19 -39 38c0 14 4 21 13 33l55 71c25 32 51 52 85 52s60 -20 85 -52l55 -71c9 -12 13 -19 13 -33c0 -19 -18 -38 -39 -38c-17 0 -30 9 -46 23l-68 62l-68 -62c-16 -14 -29 -23 -46 -23zM684 35c10 -24 -11 -35 -29 -35h-91c-18 0 -36 10 -45 31
c-14 33 -29 67 -44 104h-263c-14 -34 -29 -68 -44 -104c-9 -21 -27 -31 -49 -31h-87c-18 0 -39 11 -29 35l270 630c10 24 36 47 71 47c28 0 58 -16 71 -47zM266 268h156c-26 66 -53 136 -78 206c-26 -73 -51 -139 -78 -206z" />
    <glyph glyph-name="Adieresis" unicode="&#xc4;" horiz-adv-x="687" 
d="M250 768c-42 0 -76 34 -76 75s34 75 76 75c40 0 74 -34 74 -75s-34 -75 -74 -75zM441 768c-42 0 -76 33 -76 75c0 41 34 74 76 74c41 0 74 -33 74 -74c0 -42 -33 -75 -74 -75zM684 35c10 -24 -11 -35 -29 -35h-91c-18 0 -36 10 -45 31c-14 33 -29 67 -44 104h-263
c-14 -34 -29 -68 -44 -104c-9 -21 -27 -31 -49 -31h-87c-18 0 -39 11 -29 35l270 630c10 24 36 47 71 47c28 0 58 -16 71 -47zM266 268h156c-26 66 -53 136 -78 206c-26 -73 -51 -139 -78 -206z" />
    <glyph glyph-name="Agrave" unicode="&#xc0;" horiz-adv-x="687" 
d="M270 829c-12 9 -22 16 -27 21c-16 16 1 44 26 69c26 26 53 41 68 26c5 -5 13 -16 21 -27l75 -104c18 -26 16 -44 1 -60c-14 -15 -34 -17 -60 1zM684 35c10 -24 -11 -35 -29 -35h-91c-18 0 -36 10 -45 31c-14 33 -29 67 -44 104h-263c-14 -34 -29 -68 -44 -104
c-9 -21 -27 -31 -49 -31h-87c-18 0 -39 11 -29 35l270 630c10 24 36 47 71 47c28 0 58 -16 71 -47zM266 268h156c-26 66 -53 136 -78 206c-26 -73 -51 -139 -78 -206z" />
    <glyph glyph-name="AE" unicode="&#xc6;" horiz-adv-x="1018" 
d="M913 150c44 0 80 -31 80 -75s-36 -75 -80 -75h-354c-36 0 -67 23 -67 61v75h-261l-62 -105c-12 -21 -27 -31 -49 -31h-87c-18 0 -43 11 -29 35l359 608c14 24 36 47 71 47h138v0h341c44 0 80 -31 80 -75s-36 -75 -80 -75h-260v-121h215c44 0 80 -31 80 -75
s-36 -75 -80 -75h-215v-119h260zM309 269h183v271h-24z" />
    <glyph glyph-name="B" unicode="B" horiz-adv-x="701" 
d="M581 370c58 -34 90 -97 90 -172c0 -55 -22 -104 -58 -140s-85 -58 -140 -58h-303c-44 0 -80 36 -80 80v541c0 44 36 80 80 80h264c55 0 104 -22 140 -58s58 -86 58 -141c0 -51 -19 -97 -51 -132zM489 487c0 37 -31 68 -68 68h-170v-138h170c37 0 68 30 68 70zM446 147
c37 0 68 30 68 70c0 37 -31 68 -68 68h-195v-138h195z" />
    <glyph glyph-name="C" unicode="C" horiz-adv-x="658" 
d="M375 -10c-200 0 -345 150 -345 356c0 205 146 354 347 354c124 0 199 -47 243 -99c13 -16 20 -32 20 -48c0 -41 -33 -70 -70 -70c-17 0 -32 7 -44 15c-45 30 -75 62 -151 62c-104 0 -186 -90 -186 -215s84 -215 190 -215c77 0 109 34 151 62c12 8 27 15 44 15
c37 0 69 -29 69 -70c0 -16 -6 -32 -19 -48c-43 -53 -119 -99 -249 -99z" />
    <glyph glyph-name="Ccedilla" unicode="&#xc7;" horiz-adv-x="658" 
d="M574 207c37 0 69 -29 69 -70c0 -16 -6 -32 -19 -48c-38 -47 -102 -89 -207 -97l-21 -41c62 -8 95 -36 95 -86c0 -62 -50 -99 -143 -99c-28 0 -60 5 -81 18c-12 8 -20 19 -20 33c0 18 14 34 35 34c18 0 33 -12 71 -12c34 0 49 10 49 21s-12 22 -59 22c-48 0 -54 9 -54 24
c0 4 2 9 4 14l34 73c-175 22 -297 164 -297 353c0 205 146 354 347 354c124 0 199 -47 243 -99c13 -16 20 -32 20 -48c0 -41 -33 -70 -70 -70c-17 0 -32 7 -44 15c-45 30 -75 62 -151 62c-104 0 -186 -90 -186 -215s84 -215 190 -215c77 0 109 34 151 62c12 8 27 15 44 15z
" />
    <glyph glyph-name="D" unicode="D" horiz-adv-x="733" 
d="M337 701c225 0 366 -155 366 -351c0 -193 -142 -350 -366 -350h-174c-48 0 -73 23 -73 61v560c0 53 36 79 80 79v1h167zM344 147c125 0 193 99 193 207c0 111 -76 201 -199 201h-88v-408h94z" />
    <glyph glyph-name="E" unicode="E" horiz-adv-x="616" 
d="M511 150c44 0 80 -31 80 -75s-36 -75 -80 -75h-354c-36 0 -67 23 -67 61v551c0 52 36 78 79 78h1h341c44 0 80 -31 80 -75s-36 -75 -80 -75h-260v-121h215c44 0 80 -31 80 -75s-36 -75 -80 -75h-215v-119h260z" />
    <glyph glyph-name="Eacute" unicode="&#xc9;" horiz-adv-x="616" 
d="M312 755c-26 -18 -46 -16 -60 -1c-15 16 -17 34 1 60l75 104c8 11 16 22 21 27c15 15 42 0 68 -26c25 -25 42 -53 26 -69c-5 -5 -15 -12 -27 -21zM511 150c44 0 80 -31 80 -75s-36 -75 -80 -75h-354c-36 0 -67 23 -67 61v551c0 52 36 78 79 78h1h341c44 0 80 -31 80 -75
s-36 -75 -80 -75h-260v-121h215c44 0 80 -31 80 -75s-36 -75 -80 -75h-215v-119h260z" />
    <glyph glyph-name="Ecircumflex" unicode="&#xca;" horiz-adv-x="616" 
d="M229 745c-21 0 -39 19 -39 38c0 14 4 21 13 33l55 71c25 32 51 52 85 52s60 -20 85 -52l55 -71c9 -12 13 -19 13 -33c0 -19 -18 -38 -39 -38c-17 0 -30 9 -46 23l-68 62l-68 -62c-16 -14 -29 -23 -46 -23zM511 150c44 0 80 -31 80 -75s-36 -75 -80 -75h-354
c-36 0 -67 23 -67 61v551c0 52 36 78 79 78h1h341c44 0 80 -31 80 -75s-36 -75 -80 -75h-260v-121h215c44 0 80 -31 80 -75s-36 -75 -80 -75h-215v-119h260z" />
    <glyph glyph-name="Edieresis" unicode="&#xcb;" horiz-adv-x="616" 
d="M249 768c-42 0 -76 34 -76 75s34 75 76 75c40 0 74 -34 74 -75s-34 -75 -74 -75zM440 768c-42 0 -76 33 -76 75c0 41 34 74 76 74c41 0 74 -33 74 -74c0 -42 -33 -75 -74 -75zM511 150c44 0 80 -31 80 -75s-36 -75 -80 -75h-354c-36 0 -67 23 -67 61v551
c0 52 36 78 79 78h1h341c44 0 80 -31 80 -75s-36 -75 -80 -75h-260v-121h215c44 0 80 -31 80 -75s-36 -75 -80 -75h-215v-119h260z" />
    <glyph glyph-name="Egrave" unicode="&#xc8;" horiz-adv-x="616" 
d="M269 829c-12 9 -22 16 -27 21c-16 16 1 44 26 69c26 26 53 41 68 26c5 -5 13 -16 21 -27l75 -104c18 -26 16 -44 1 -60c-14 -15 -34 -17 -60 1zM511 150c44 0 80 -31 80 -75s-36 -75 -80 -75h-354c-36 0 -67 23 -67 61v551c0 52 36 78 79 78h1h341c44 0 80 -31 80 -75
s-36 -75 -80 -75h-260v-121h215c44 0 80 -31 80 -75s-36 -75 -80 -75h-215v-119h260z" />
    <glyph glyph-name="F" unicode="F" horiz-adv-x="587" 
d="M511 540h-260v-135h215c44 0 80 -31 80 -75s-36 -75 -80 -75h-215v-221c0 -21 -13 -34 -33 -34h-94c-21 0 -34 13 -34 34v578c0 52 36 78 79 78h1h341c44 0 80 -31 80 -75s-36 -75 -80 -75z" />
    <glyph glyph-name="G" unicode="G" horiz-adv-x="713" 
d="M595 389c45 0 82 -26 82 -78v-193c0 -83 -129 -128 -286 -128c-218 0 -361 150 -361 356c0 205 132 354 360 354c124 0 200 -46 243 -99c13 -16 20 -32 20 -48c0 -41 -33 -70 -70 -70c-17 0 -32 7 -44 15c-45 30 -75 62 -151 62c-127 0 -199 -90 -199 -215
s83 -215 220 -215c62 0 87 7 107 16v94l-76 1c-43 1 -77 31 -77 75c0 43 34 74 77 74z" />
    <glyph glyph-name="H" unicode="H" horiz-adv-x="763" 
d="M592 700c44 0 81 -36 81 -80v-586c0 -21 -13 -34 -33 -34h-94c-21 0 -34 13 -34 34v229h-261v-229c0 -21 -13 -34 -33 -34h-94c-21 0 -34 13 -34 34v586c0 44 36 80 80 80s81 -36 81 -80v-212h261v212c0 44 36 80 80 80z" />
    <glyph glyph-name="I" unicode="I" horiz-adv-x="341" 
d="M90 34c0 -21 13 -34 34 -34h94c20 0 33 13 33 34v586c0 44 -37 80 -81 80s-80 -36 -80 -80v-586z" />
    <glyph glyph-name="Iacute" unicode="&#xcd;" horiz-adv-x="341" 
d="M80 754c-15 16 -17 34 1 60l75 104c8 11 16 22 21 27c15 15 42 0 68 -26c25 -25 42 -53 26 -69c-5 -5 -15 -12 -27 -21l-104 -74c-26 -18 -46 -16 -60 -1zM90 34c0 -21 13 -34 34 -34h94c20 0 33 13 33 34v586c0 44 -37 80 -81 80s-80 -36 -80 -80v-586z" />
    <glyph glyph-name="Icircumflex" unicode="&#xce;" horiz-adv-x="341" 
d="M171 830l68 -62c16 -14 29 -23 46 -23c21 0 39 19 39 38c0 14 -4 21 -13 33l-55 71c-25 32 -51 52 -85 52s-60 -20 -85 -52l-55 -71c-9 -12 -13 -19 -13 -33c0 -19 18 -38 39 -38c17 0 30 9 46 23zM90 34c0 -21 13 -34 34 -34h94c20 0 33 13 33 34v586
c0 44 -37 80 -81 80s-80 -36 -80 -80v-586z" />
    <glyph glyph-name="Idieresis" unicode="&#xcf;" horiz-adv-x="341" 
d="M77 768c-42 0 -76 34 -76 75s34 75 76 75c40 0 74 -34 74 -75s-34 -75 -74 -75zM268 768c-42 0 -76 33 -76 75c0 41 34 74 76 74c41 0 74 -33 74 -74c0 -42 -33 -75 -74 -75zM90 34c0 -21 13 -34 34 -34h94c20 0 33 13 33 34v586c0 44 -37 80 -81 80s-80 -36 -80 -80
v-586z" />
    <glyph glyph-name="Igrave" unicode="&#xcc;" horiz-adv-x="341" 
d="M261 754c-14 -15 -34 -17 -60 1l-104 74c-12 9 -22 16 -27 21c-16 16 1 44 26 69c26 26 53 41 68 26c5 -5 13 -16 21 -27l75 -104c18 -26 16 -44 1 -60zM90 34c0 -21 13 -34 34 -34h94c20 0 33 13 33 34v586c0 44 -37 80 -81 80s-80 -36 -80 -80v-586z" />
    <glyph glyph-name="J" unicode="J" horiz-adv-x="562" 
d="M494 620v-374c0 -148 -98 -256 -249 -256c-132 0 -245 83 -245 158c0 42 38 79 79 79c28 0 43 -9 73 -39c21 -20 56 -41 94 -41c48 0 87 34 87 90v383c0 44 36 80 80 80s81 -36 81 -80z" />
    <glyph glyph-name="K" unicode="K" horiz-adv-x="627" 
d="M598 130c13 -14 23 -37 23 -54c0 -53 -39 -82 -82 -82c-21 0 -41 10 -58 27l-230 238v-225c0 -21 -13 -34 -33 -34h-94c-21 0 -34 13 -34 34v586c0 44 36 80 80 80s81 -36 81 -80v-159l230 217c14 13 32 22 55 22c40 0 75 -35 75 -77c0 -23 -12 -44 -27 -58l-217 -203
c78 -78 155 -150 231 -232z" />
    <glyph glyph-name="L" unicode="L" horiz-adv-x="581" 
d="M491 145c47 0 79 -32 79 -72s-32 -73 -79 -73h-334c-36 0 -67 23 -67 61v559c0 44 36 80 80 80s81 -36 81 -80v-475h240z" />
    <glyph glyph-name="M" unicode="M" horiz-adv-x="902" 
d="M853 38c3 -28 -17 -38 -35 -38h-81c-18 0 -38 10 -41 38l-38 336l-135 -336c-11 -28 -22 -38 -42 -38h-59c-21 0 -31 10 -42 37l-137 338l-36 -337c-3 -28 -23 -38 -41 -38h-81c-18 0 -38 10 -35 38c21 191 56 479 73 595c7 51 41 67 83 67c31 0 64 -18 83 -65l162 -398
l162 398c19 47 47 65 88 65c35 0 70 -17 76 -60c28 -191 53 -421 76 -602z" />
    <glyph glyph-name="N" unicode="N" horiz-adv-x="780" 
d="M690 620l1 -588c0 -17 -12 -32 -32 -32h-65c-19 0 -37 5 -60 35l-287 378l4 -379c0 -21 -13 -34 -33 -34h-94c-21 0 -34 13 -34 34v584c0 44 36 82 81 82c25 0 48 -10 77 -47l284 -368l-3 335c0 44 36 80 80 80s81 -36 81 -80z" />
    <glyph glyph-name="O" unicode="O" horiz-adv-x="777" 
d="M389 -10c-200 0 -359 155 -359 354c0 200 159 355 359 355c199 0 358 -155 358 -355c0 -199 -159 -354 -358 -354zM388 142c112 0 199 89 199 202c0 112 -87 203 -199 203s-198 -91 -198 -203c0 -113 86 -202 198 -202z" />
    <glyph glyph-name="Oacute" unicode="&#xd3;" horiz-adv-x="777" 
d="M298 754c-15 16 -17 34 1 60l75 104c8 11 16 22 21 27c15 15 42 0 68 -26c25 -25 42 -53 26 -69c-5 -5 -15 -12 -27 -21l-104 -74c-26 -18 -46 -16 -60 -1zM389 -10c-200 0 -359 155 -359 354c0 200 159 355 359 355c199 0 358 -155 358 -355c0 -199 -159 -354 -358 -354
zM388 142c112 0 199 89 199 202c0 112 -87 203 -199 203s-198 -91 -198 -203c0 -113 86 -202 198 -202z" />
    <glyph glyph-name="Ocircumflex" unicode="&#xd4;" horiz-adv-x="777" 
d="M389 830l68 -62c16 -14 29 -23 46 -23c21 0 39 19 39 38c0 14 -4 21 -13 33l-55 71c-25 32 -51 52 -85 52s-60 -20 -85 -52l-55 -71c-9 -12 -13 -19 -13 -33c0 -19 18 -38 39 -38c17 0 30 9 46 23zM389 -10c-200 0 -359 155 -359 354c0 200 159 355 359 355
c199 0 358 -155 358 -355c0 -199 -159 -354 -358 -354zM388 142c112 0 199 89 199 202c0 112 -87 203 -199 203s-198 -91 -198 -203c0 -113 86 -202 198 -202z" />
    <glyph glyph-name="Odieresis" unicode="&#xd6;" horiz-adv-x="777" 
d="M295 768c-42 0 -76 34 -76 75s34 75 76 75c40 0 74 -34 74 -75s-34 -75 -74 -75zM486 768c-42 0 -76 33 -76 75c0 41 34 74 76 74c41 0 74 -33 74 -74c0 -42 -33 -75 -74 -75zM389 -10c-200 0 -359 155 -359 354c0 200 159 355 359 355c199 0 358 -155 358 -355
c0 -199 -159 -354 -358 -354zM388 142c112 0 199 89 199 202c0 112 -87 203 -199 203s-198 -91 -198 -203c0 -113 86 -202 198 -202z" />
    <glyph glyph-name="Ograve" unicode="&#xd2;" horiz-adv-x="777" 
d="M479 754c-14 -15 -34 -17 -60 1l-104 74c-12 9 -22 16 -27 21c-16 16 1 44 26 69c26 26 53 41 68 26c5 -5 13 -16 21 -27l75 -104c18 -26 16 -44 1 -60zM389 -10c-200 0 -359 155 -359 354c0 200 159 355 359 355c199 0 358 -155 358 -355c0 -199 -159 -354 -358 -354z
M388 142c112 0 199 89 199 202c0 112 -87 203 -199 203s-198 -91 -198 -203c0 -113 86 -202 198 -202z" />
    <glyph glyph-name="OE" unicode="&#x152;" horiz-adv-x="1113" 
d="M1008 150c44 0 80 -31 80 -75s-36 -75 -80 -75h-354c-32 0 -60 18 -66 49c-57 -38 -125 -59 -199 -59c-200 0 -359 155 -359 354c0 200 159 355 359 355c75 0 144 -22 202 -60c10 34 40 51 75 51h1h341c44 0 80 -31 80 -75s-36 -75 -80 -75h-260v-121h215
c44 0 80 -31 80 -75s-36 -75 -80 -75h-215v-119h260zM388 142c112 0 199 89 199 202c0 112 -87 203 -199 203s-198 -91 -198 -203c0 -113 86 -202 198 -202z" />
    <glyph glyph-name="P" unicode="P" horiz-adv-x="640" 
d="M381 700c142 0 244 -100 244 -238c0 -152 -102 -248 -244 -248h-130v-180c0 -21 -13 -34 -33 -34h-94c-21 0 -34 13 -34 34v586c0 44 36 80 80 80h211zM370 358c54 0 97 44 97 98s-43 97 -97 97h-119v-195h119z" />
    <glyph glyph-name="Thorn" unicode="&#xde;" 
d="M381 700c142 0 244 -100 244 -238c0 -152 -102 -248 -244 -248h-130v-180c0 -21 -13 -34 -33 -34h-94c-21 0 -34 13 -34 34v586c0 44 36 80 80 80h211zM370 358c54 0 97 44 97 98s-43 97 -97 97h-119v-195h119z" />
    <glyph glyph-name="Q" unicode="Q" horiz-adv-x="797" 
d="M734 96c29 -30 31 -74 1 -104c-31 -31 -76 -28 -105 2l-49 50c-56 -34 -121 -54 -192 -54c-200 0 -359 155 -359 354c0 200 159 355 359 355c199 0 358 -155 358 -355c0 -75 -22 -143 -61 -200zM388 142c28 0 55 6 80 16l-29 29c-30 31 -34 76 -3 107c30 30 77 26 107 -5
l27 -28c11 26 17 53 17 83c0 112 -87 203 -199 203s-198 -91 -198 -203c0 -113 86 -202 198 -202z" />
    <glyph glyph-name="R" unicode="R" horiz-adv-x="665" 
d="M613 119c10 -16 16 -32 16 -49c0 -43 -33 -76 -80 -76c-25 0 -51 7 -66 30l-138 212h-94v-202c0 -21 -13 -34 -33 -34h-94c-21 0 -34 13 -34 34v586c0 44 37 80 81 80h211c143 0 246 -99 246 -236c0 -71 -45 -143 -111 -187zM380 378c48 0 87 39 87 88
c0 48 -39 87 -87 87h-129v-175h129z" />
    <glyph glyph-name="S" unicode="S" horiz-adv-x="631" 
d="M346 138c-33 0 -78 10 -114 19c-53 13 -94 35 -125 35c-40 0 -72 -32 -72 -73c0 -29 17 -56 59 -78c60 -31 152 -51 217 -51c191 0 283 104 281 225c-1 61 -35 133 -158 176l-102 36c-55 19 -82 39 -82 72c0 28 21 52 62 52c29 0 67 -10 95 -19c33 -11 61 -27 101 -27
s72 32 72 73c0 28 -15 52 -45 71c-50 32 -134 50 -201 50c-176 0 -271 -94 -268 -221c1 -73 53 -142 173 -184l85 -30c59 -21 88 -36 88 -73c0 -32 -22 -53 -66 -53z" />
    <glyph glyph-name="T" unicode="T" horiz-adv-x="582" 
d="M505 690c43 0 77 -32 77 -75s-34 -75 -77 -75h-134v-506c0 -21 -13 -34 -33 -34h-94c-21 0 -34 13 -34 34v506h-133c-43 0 -77 32 -77 75s34 75 77 75h428z" />
    <glyph glyph-name="U" unicode="U" horiz-adv-x="721" 
d="M492 620v-324c0 -100 -55 -154 -131 -154c-74 0 -132 52 -132 154v324c0 44 -37 80 -81 80s-80 -36 -80 -80v-338c0 -180 126 -292 293 -292c163 0 292 108 292 292v338c0 44 -37 80 -81 80s-80 -36 -80 -80z" />
    <glyph glyph-name="Uacute" unicode="&#xda;" horiz-adv-x="721" 
d="M270 754c-15 16 -17 34 1 60l75 104c8 11 16 22 21 27c15 15 42 0 68 -26c25 -25 42 -53 26 -69c-5 -5 -15 -12 -27 -21l-104 -74c-26 -18 -46 -16 -60 -1zM492 620v-324c0 -100 -55 -154 -131 -154c-74 0 -132 52 -132 154v324c0 44 -37 80 -81 80s-80 -36 -80 -80v-338
c0 -180 126 -292 293 -292c163 0 292 108 292 292v338c0 44 -37 80 -81 80s-80 -36 -80 -80z" />
    <glyph glyph-name="Ucircumflex" unicode="&#xdb;" horiz-adv-x="721" 
d="M361 830l68 -62c16 -14 29 -23 46 -23c21 0 39 19 39 38c0 14 -4 21 -13 33l-55 71c-25 32 -51 52 -85 52s-60 -20 -85 -52l-55 -71c-9 -12 -13 -19 -13 -33c0 -19 18 -38 39 -38c17 0 30 9 46 23zM492 620v-324c0 -100 -55 -154 -131 -154c-74 0 -132 52 -132 154v324
c0 44 -37 80 -81 80s-80 -36 -80 -80v-338c0 -180 126 -292 293 -292c163 0 292 108 292 292v338c0 44 -37 80 -81 80s-80 -36 -80 -80z" />
    <glyph glyph-name="Udieresis" unicode="&#xdc;" horiz-adv-x="721" 
d="M267 768c-42 0 -76 34 -76 75s34 75 76 75c40 0 74 -34 74 -75s-34 -75 -74 -75zM458 768c-42 0 -76 33 -76 75c0 41 34 74 76 74c41 0 74 -33 74 -74c0 -42 -33 -75 -74 -75zM492 620v-324c0 -100 -55 -154 -131 -154c-74 0 -132 52 -132 154v324c0 44 -37 80 -81 80
s-80 -36 -80 -80v-338c0 -180 126 -292 293 -292c163 0 292 108 292 292v338c0 44 -37 80 -81 80s-80 -36 -80 -80z" />
    <glyph glyph-name="Ugrave" unicode="&#xd9;" horiz-adv-x="721" 
d="M451 754c-14 -15 -34 -17 -60 1l-104 74c-12 9 -22 16 -27 21c-16 16 1 44 26 69c26 26 53 41 68 26c5 -5 13 -16 21 -27l75 -104c18 -26 16 -44 1 -60zM492 620v-324c0 -100 -55 -154 -131 -154c-74 0 -132 52 -132 154v324c0 44 -37 80 -81 80s-80 -36 -80 -80v-338
c0 -180 126 -292 293 -292c163 0 292 108 292 292v338c0 44 -37 80 -81 80s-80 -36 -80 -80z" />
    <glyph glyph-name="V" unicode="V" horiz-adv-x="655" 
d="M555 700c48 0 87 -40 87 -88c0 -14 -3 -28 -24 -76l-215 -484c-18 -39 -31 -62 -75 -62s-59 23 -76 62l-215 484c-21 48 -24 62 -24 76c0 48 39 88 87 88c35 0 68 -21 82 -55l146 -367l145 367c14 34 47 55 82 55z" />
    <glyph glyph-name="W" unicode="W" horiz-adv-x="1016" 
d="M916 700c48 0 87 -40 87 -88c0 -14 -3 -27 -23 -76l-195 -484c-16 -40 -32 -62 -76 -62s-61 22 -75 62l-126 352l-126 -352c-14 -40 -31 -62 -75 -62s-59 22 -76 62l-195 484c-20 49 -23 62 -23 76c0 48 39 88 87 88c38 0 69 -21 82 -57l128 -342l115 337
c15 40 48 62 83 62c39 0 70 -24 83 -62l115 -337l128 342c13 36 44 57 82 57z" />
    <glyph glyph-name="Wacute" unicode="&#x1e82;" horiz-adv-x="1016" 
d="M477 755c-26 -18 -46 -16 -60 -1c-15 16 -17 34 1 60l75 104c8 11 16 22 21 27c15 15 42 0 68 -26c25 -25 42 -53 26 -69c-5 -5 -15 -12 -27 -21zM916 700c48 0 87 -40 87 -88c0 -14 -3 -27 -23 -76l-195 -484c-16 -40 -32 -62 -76 -62s-61 22 -75 62l-126 352l-126 -352
c-14 -40 -31 -62 -75 -62s-59 22 -76 62l-195 484c-20 49 -23 62 -23 76c0 48 39 88 87 88c38 0 69 -21 82 -57l128 -342l115 337c15 40 48 62 83 62c39 0 70 -24 83 -62l115 -337l128 342c13 36 44 57 82 57z" />
    <glyph glyph-name="Wcircumflex" unicode="&#x174;" horiz-adv-x="1016" 
d="M394 745c-21 0 -39 19 -39 38c0 14 4 21 13 33l55 71c25 32 51 52 85 52s60 -20 85 -52l55 -71c9 -12 13 -19 13 -33c0 -19 -18 -38 -39 -38c-17 0 -30 9 -46 23l-68 62l-68 -62c-16 -14 -29 -23 -46 -23zM916 700c48 0 87 -40 87 -88c0 -14 -3 -27 -23 -76l-195 -484
c-16 -40 -32 -62 -76 -62s-61 22 -75 62l-126 352l-126 -352c-14 -40 -31 -62 -75 -62s-59 22 -76 62l-195 484c-20 49 -23 62 -23 76c0 48 39 88 87 88c38 0 69 -21 82 -57l128 -342l115 337c15 40 48 62 83 62c39 0 70 -24 83 -62l115 -337l128 342c13 36 44 57 82 57z
" />
    <glyph glyph-name="Wdieresis" unicode="&#x1e84;" horiz-adv-x="1016" 
d="M414 768c-42 0 -76 34 -76 75s34 75 76 75c40 0 74 -34 74 -75s-34 -75 -74 -75zM605 768c-42 0 -76 33 -76 75c0 41 34 74 76 74c41 0 74 -33 74 -74c0 -42 -33 -75 -74 -75zM916 700c48 0 87 -40 87 -88c0 -14 -3 -27 -23 -76l-195 -484c-16 -40 -32 -62 -76 -62
s-61 22 -75 62l-126 352l-126 -352c-14 -40 -31 -62 -75 -62s-59 22 -76 62l-195 484c-20 49 -23 62 -23 76c0 48 39 88 87 88c38 0 69 -21 82 -57l128 -342l115 337c15 40 48 62 83 62c39 0 70 -24 83 -62l115 -337l128 342c13 36 44 57 82 57z" />
    <glyph glyph-name="Wgrave" unicode="&#x1e80;" horiz-adv-x="1016" 
d="M434 829c-12 9 -22 16 -27 21c-16 16 1 44 26 69c26 26 53 41 68 26c5 -5 13 -16 21 -27l75 -104c18 -26 16 -44 1 -60c-14 -15 -34 -17 -60 1zM916 700c48 0 87 -40 87 -88c0 -14 -3 -27 -23 -76l-195 -484c-16 -40 -32 -62 -76 -62s-61 22 -75 62l-126 352l-126 -352
c-14 -40 -31 -62 -75 -62s-59 22 -76 62l-195 484c-20 49 -23 62 -23 76c0 48 39 88 87 88c38 0 69 -21 82 -57l128 -342l115 337c15 40 48 62 83 62c39 0 70 -24 83 -62l115 -337l128 342c13 36 44 57 82 57z" />
    <glyph glyph-name="X" unicode="X" horiz-adv-x="637" 
d="M594 127c11 -14 20 -32 20 -57c0 -43 -34 -80 -81 -80c-22 0 -47 8 -67 34l-147 194l-148 -194c-20 -26 -45 -34 -67 -34c-47 0 -81 37 -81 80c0 25 9 43 20 57l172 227l-158 209c-11 14 -20 32 -20 57c0 43 34 80 81 80c22 0 47 -8 67 -34l134 -176l133 176
c20 26 45 34 67 34c47 0 81 -37 81 -80c0 -25 -9 -43 -20 -57l-158 -209z" />
    <glyph glyph-name="Y" unicode="Y" horiz-adv-x="584" 
d="M582 624c0 -16 -5 -33 -15 -46l-199 -262v-288c0 -18 -10 -28 -28 -28h-105c-18 0 -28 10 -28 28v302l-189 248c-11 15 -16 30 -16 46c0 39 31 76 80 76c23 0 46 -11 65 -36l146 -193l146 193c19 25 40 36 63 36c42 0 80 -36 80 -76z" />
    <glyph glyph-name="Yacute" unicode="&#xdd;" horiz-adv-x="584" 
d="M261 755c-26 -18 -46 -16 -60 -1c-15 16 -17 34 1 60l75 104c8 11 16 22 21 27c15 15 42 0 68 -26c25 -25 42 -53 26 -69c-5 -5 -15 -12 -27 -21zM582 624c0 -16 -5 -33 -15 -46l-199 -262v-288c0 -18 -10 -28 -28 -28h-105c-18 0 -28 10 -28 28v302l-189 248
c-11 15 -16 30 -16 46c0 39 31 76 80 76c23 0 46 -11 65 -36l146 -193l146 193c19 25 40 36 63 36c42 0 80 -36 80 -76z" />
    <glyph glyph-name="Ycircumflex" unicode="&#x176;" horiz-adv-x="584" 
d="M178 745c-21 0 -39 19 -39 38c0 14 4 21 13 33l55 71c25 32 51 52 85 52s60 -20 85 -52l55 -71c9 -12 13 -19 13 -33c0 -19 -18 -38 -39 -38c-17 0 -30 9 -46 23l-68 62l-68 -62c-16 -14 -29 -23 -46 -23zM582 624c0 -16 -5 -33 -15 -46l-199 -262v-288
c0 -18 -10 -28 -28 -28h-105c-18 0 -28 10 -28 28v302l-189 248c-11 15 -16 30 -16 46c0 39 31 76 80 76c23 0 46 -11 65 -36l146 -193l146 193c19 25 40 36 63 36c42 0 80 -36 80 -76z" />
    <glyph glyph-name="Ydieresis" unicode="&#x178;" horiz-adv-x="584" 
d="M198 768c-42 0 -76 34 -76 75s34 75 76 75c40 0 74 -34 74 -75s-34 -75 -74 -75zM389 768c-42 0 -76 33 -76 75c0 41 34 74 76 74c41 0 74 -33 74 -74c0 -42 -33 -75 -74 -75zM582 624c0 -16 -5 -33 -15 -46l-199 -262v-288c0 -18 -10 -28 -28 -28h-105
c-18 0 -28 10 -28 28v302l-189 248c-11 15 -16 30 -16 46c0 39 31 76 80 76c23 0 46 -11 65 -36l146 -193l146 193c19 25 40 36 63 36c42 0 80 -36 80 -76z" />
    <glyph glyph-name="Ygrave" unicode="&#x1ef2;" horiz-adv-x="584" 
d="M218 829c-12 9 -22 16 -27 21c-16 16 1 44 26 69c26 26 53 41 68 26c5 -5 13 -16 21 -27l75 -104c18 -26 16 -44 1 -60c-14 -15 -34 -17 -60 1zM582 624c0 -16 -5 -33 -15 -46l-199 -262v-288c0 -18 -10 -28 -28 -28h-105c-18 0 -28 10 -28 28v302l-189 248
c-11 15 -16 30 -16 46c0 39 31 76 80 76c23 0 46 -11 65 -36l146 -193l146 193c19 25 40 36 63 36c42 0 80 -36 80 -76z" />
    <glyph glyph-name="Z" unicode="Z" horiz-adv-x="598" 
d="M500 150c43 0 78 -32 78 -75s-35 -75 -78 -75h-393c-43 0 -78 35 -78 78c0 20 7 38 24 61l298 401h-246c-43 0 -77 32 -77 75s34 75 77 75h389c43 0 77 -34 77 -77c0 -15 -5 -30 -23 -54l-299 -409h251z" />
    <glyph glyph-name="a" unicode="a" horiz-adv-x="640" 
d="M506 538c40 0 72 -32 72 -72v-427c0 -26 -13 -39 -38 -39h-66c-26 0 -39 13 -39 39v7c-41 -39 -89 -56 -140 -56c-144 0 -267 122 -267 275c0 151 123 273 267 273c53 0 102 -15 143 -50c9 29 36 50 68 50zM301 130c75 0 134 59 134 135c0 74 -59 133 -134 133
c-73 0 -134 -59 -134 -133c0 -76 61 -135 134 -135z" />
    <glyph glyph-name="aacute" unicode="&#xe1;" horiz-adv-x="640" 
d="M264 593c-26 -18 -46 -16 -60 -1c-15 16 -17 34 1 60l75 104c8 11 16 22 21 27c15 15 42 0 68 -26c25 -25 42 -53 26 -69c-5 -5 -15 -12 -27 -21zM506 538c40 0 72 -32 72 -72v-427c0 -26 -13 -39 -38 -39h-66c-26 0 -39 13 -39 39v7c-41 -39 -89 -56 -140 -56
c-144 0 -267 122 -267 275c0 151 123 273 267 273c53 0 102 -15 143 -50c9 29 36 50 68 50zM301 130c75 0 134 59 134 135c0 74 -59 133 -134 133c-73 0 -134 -59 -134 -133c0 -76 61 -135 134 -135z" />
    <glyph glyph-name="acircumflex" unicode="&#xe2;" horiz-adv-x="640" 
d="M181 583c-21 0 -39 19 -39 38c0 14 4 21 13 33l55 71c25 32 51 52 85 52s60 -20 85 -52l55 -71c9 -12 13 -19 13 -33c0 -19 -18 -38 -39 -38c-17 0 -30 9 -46 23l-68 62l-68 -62c-16 -14 -29 -23 -46 -23zM506 538c40 0 72 -32 72 -72v-427c0 -26 -13 -39 -38 -39h-66
c-26 0 -39 13 -39 39v7c-41 -39 -89 -56 -140 -56c-144 0 -267 122 -267 275c0 151 123 273 267 273c53 0 102 -15 143 -50c9 29 36 50 68 50zM301 130c75 0 134 59 134 135c0 74 -59 133 -134 133c-73 0 -134 -59 -134 -133c0 -76 61 -135 134 -135z" />
    <glyph glyph-name="adieresis" unicode="&#xe4;" horiz-adv-x="640" 
d="M201 606c-42 0 -76 34 -76 75s34 75 76 75c40 0 74 -34 74 -75s-34 -75 -74 -75zM392 606c-42 0 -76 33 -76 75c0 41 34 74 76 74c41 0 74 -33 74 -74c0 -42 -33 -75 -74 -75zM506 538c40 0 72 -32 72 -72v-427c0 -26 -13 -39 -38 -39h-66c-26 0 -39 13 -39 39v7
c-41 -39 -89 -56 -140 -56c-144 0 -267 122 -267 275c0 151 123 273 267 273c53 0 102 -15 143 -50c9 29 36 50 68 50zM301 130c75 0 134 59 134 135c0 74 -59 133 -134 133c-73 0 -134 -59 -134 -133c0 -76 61 -135 134 -135z" />
    <glyph glyph-name="agrave" unicode="&#xe0;" horiz-adv-x="640" 
d="M221 667c-12 9 -22 16 -27 21c-16 16 1 44 26 69c26 26 53 41 68 26c5 -5 13 -16 21 -27l75 -104c18 -26 16 -44 1 -60c-14 -15 -34 -17 -60 1zM506 538c40 0 72 -32 72 -72v-427c0 -26 -13 -39 -38 -39h-66c-26 0 -39 13 -39 39v7c-41 -39 -89 -56 -140 -56
c-144 0 -267 122 -267 275c0 151 123 273 267 273c53 0 102 -15 143 -50c9 29 36 50 68 50zM301 130c75 0 134 59 134 135c0 74 -59 133 -134 133c-73 0 -134 -59 -134 -133c0 -76 61 -135 134 -135z" />
    <glyph glyph-name="ae" unicode="&#xe6;" horiz-adv-x="1007" 
d="M987 285c0 -57 -28 -80 -58 -80h-342c18 -54 79 -89 153 -89c47 0 85 14 109 28c12 7 25 12 40 12c34 0 64 -27 64 -65c0 -27 -15 -47 -44 -63c-46 -26 -100 -37 -156 -37c-80 0 -134 19 -171 54v-6c0 -26 -11 -39 -36 -39h-66c-26 0 -39 13 -39 39v7
c-41 -39 -89 -56 -140 -56c-151 0 -273 122 -273 275c0 151 122 273 273 273c53 0 102 -15 143 -50c9 29 36 50 68 50c33 0 59 -21 67 -51c37 32 89 51 158 51c148 0 250 -128 250 -253zM584 308h261c-12 53 -64 98 -130 98s-119 -45 -131 -98zM307 130c75 0 134 59 134 135
c0 74 -59 133 -134 133c-73 0 -134 -59 -134 -133c0 -76 61 -135 134 -135z" />
    <glyph glyph-name="b" unicode="b" horiz-adv-x="621" 
d="M320 538c151 0 273 -122 273 -273c0 -153 -122 -275 -273 -275s-274 121 -274 283v413c0 42 32 70 72 70c39 0 71 -28 71 -70v-192c39 30 83 44 131 44zM323 130c75 0 134 59 134 135c0 74 -59 133 -134 133c-73 0 -134 -59 -134 -133c0 -76 61 -135 134 -135z" />
    <glyph glyph-name="c" unicode="c" horiz-adv-x="519" 
d="M302 -10c-159 0 -274 123 -274 273s113 274 274 274c75 0 135 -27 158 -40c28 -16 43 -36 43 -63c0 -38 -30 -68 -66 -68c-13 0 -26 5 -39 12c-24 13 -53 22 -85 22c-72 0 -137 -52 -137 -136s65 -138 136 -138c35 0 65 8 89 21c13 7 26 12 39 12c36 0 66 -30 66 -68
c0 -27 -15 -47 -43 -63c-23 -13 -83 -38 -161 -38z" />
    <glyph glyph-name="ccedilla" unicode="&#xe7;" horiz-adv-x="519" 
d="M440 159c36 0 66 -30 66 -68c0 -27 -15 -47 -43 -63c-22 -12 -78 -36 -151 -38l-20 -39c62 -8 95 -36 95 -86c0 -62 -50 -99 -143 -99c-28 0 -60 5 -81 18c-12 8 -20 19 -20 33c0 18 14 34 35 34c18 0 33 -12 71 -12c34 0 49 10 49 21s-12 22 -59 22c-48 0 -54 9 -54 24
c0 4 2 9 4 14l38 80c-119 32 -199 138 -199 263c0 150 113 274 274 274c75 0 135 -27 158 -40c28 -16 43 -36 43 -63c0 -38 -30 -68 -66 -68c-13 0 -26 5 -39 12c-24 13 -53 22 -85 22c-72 0 -137 -52 -137 -136s65 -138 136 -138c35 0 65 8 89 21c13 7 26 12 39 12z" />
    <glyph glyph-name="d" unicode="d" horiz-adv-x="621" 
d="M503 756c40 0 72 -28 72 -70v-413c0 -162 -123 -283 -274 -283s-273 122 -273 275c0 151 122 273 273 273c48 0 92 -14 131 -44v192c0 42 32 70 71 70zM298 130c73 0 134 59 134 135c0 74 -61 133 -134 133c-75 0 -134 -59 -134 -133c0 -76 59 -135 134 -135z" />
    <glyph glyph-name="e" unicode="e" horiz-adv-x="593" 
d="M573 285c0 -57 -28 -80 -58 -80h-342c18 -54 79 -89 153 -89c47 0 85 14 109 28c12 7 25 12 40 12c34 0 64 -27 64 -65c0 -27 -15 -48 -44 -64c-46 -26 -120 -37 -176 -37c-171 0 -291 112 -291 272c0 152 117 276 275 276c148 0 270 -128 270 -253zM170 308h261
c-12 53 -64 98 -130 98s-119 -45 -131 -98z" />
    <glyph glyph-name="eacute" unicode="&#xe9;" horiz-adv-x="593" 
d="M272 593c-26 -18 -46 -16 -60 -1c-15 16 -17 34 1 60l75 104c8 11 16 22 21 27c15 15 42 0 68 -26c25 -25 42 -53 26 -69c-5 -5 -15 -12 -27 -21zM573 285c0 -57 -28 -80 -58 -80h-342c18 -54 79 -89 153 -89c47 0 85 14 109 28c12 7 25 12 40 12c34 0 64 -27 64 -65
c0 -27 -15 -48 -44 -64c-46 -26 -120 -37 -176 -37c-171 0 -291 112 -291 272c0 152 117 276 275 276c148 0 270 -128 270 -253zM170 308h261c-12 53 -64 98 -130 98s-119 -45 -131 -98z" />
    <glyph glyph-name="ecircumflex" unicode="&#xea;" horiz-adv-x="593" 
d="M189 583c-21 0 -39 19 -39 38c0 14 4 21 13 33l55 71c25 32 51 52 85 52s60 -20 85 -52l55 -71c9 -12 13 -19 13 -33c0 -19 -18 -38 -39 -38c-17 0 -30 9 -46 23l-68 62l-68 -62c-16 -14 -29 -23 -46 -23zM573 285c0 -57 -28 -80 -58 -80h-342c18 -54 79 -89 153 -89
c47 0 85 14 109 28c12 7 25 12 40 12c34 0 64 -27 64 -65c0 -27 -15 -48 -44 -64c-46 -26 -120 -37 -176 -37c-171 0 -291 112 -291 272c0 152 117 276 275 276c148 0 270 -128 270 -253zM170 308h261c-12 53 -64 98 -130 98s-119 -45 -131 -98z" />
    <glyph glyph-name="edieresis" unicode="&#xeb;" horiz-adv-x="593" 
d="M209 606c-42 0 -76 34 -76 75s34 75 76 75c40 0 74 -34 74 -75s-34 -75 -74 -75zM400 606c-42 0 -76 33 -76 75c0 41 34 74 76 74c41 0 74 -33 74 -74c0 -42 -33 -75 -74 -75zM573 285c0 -57 -28 -80 -58 -80h-342c18 -54 79 -89 153 -89c47 0 85 14 109 28
c12 7 25 12 40 12c34 0 64 -27 64 -65c0 -27 -15 -48 -44 -64c-46 -26 -120 -37 -176 -37c-171 0 -291 112 -291 272c0 152 117 276 275 276c148 0 270 -128 270 -253zM170 308h261c-12 53 -64 98 -130 98s-119 -45 -131 -98z" />
    <glyph glyph-name="egrave" unicode="&#xe8;" horiz-adv-x="593" 
d="M229 667c-12 9 -22 16 -27 21c-16 16 1 44 26 69c26 26 53 41 68 26c5 -5 13 -16 21 -27l75 -104c18 -26 16 -44 1 -60c-14 -15 -34 -17 -60 1zM573 285c0 -57 -28 -80 -58 -80h-342c18 -54 79 -89 153 -89c47 0 85 14 109 28c12 7 25 12 40 12c34 0 64 -27 64 -65
c0 -27 -15 -48 -44 -64c-46 -26 -120 -37 -176 -37c-171 0 -291 112 -291 272c0 152 117 276 275 276c148 0 270 -128 270 -253zM170 308h261c-12 53 -64 98 -130 98s-119 -45 -131 -98z" />
    <glyph glyph-name="f" unicode="f" horiz-adv-x="437" 
d="M327 528c39 0 69 -31 69 -68c0 -39 -30 -70 -69 -70h-96v-362c0 -18 -10 -28 -28 -28h-87c-18 0 -28 10 -28 28l1 362h-13c-39 0 -69 31 -69 70c0 37 30 68 69 68h13v5c0 145 83 223 196 223h56c45 0 74 -37 74 -78s-37 -73 -75 -73h-32c-44 0 -77 -23 -77 -77h96z" />
    <glyph glyph-name="g" unicode="g" horiz-adv-x="640" 
d="M506 538c40 0 72 -32 72 -72v-427c0 -148 -108 -272 -292 -272c-114 0 -242 49 -242 125c0 38 30 67 67 67c52 0 96 -51 184 -51c77 0 136 55 136 107c0 7 -2 13 -10 13c-7 0 -18 -10 -32 -17c-18 -9 -48 -21 -94 -21c-144 0 -267 122 -267 275c0 151 123 273 267 273
c53 0 102 -15 143 -50c9 29 36 50 68 50zM301 130c75 0 134 59 134 135c0 74 -59 133 -134 133c-73 0 -134 -59 -134 -133c0 -76 61 -135 134 -135z" />
    <glyph glyph-name="h" unicode="h" horiz-adv-x="598" 
d="M56 28c0 -18 10 -28 28 -28h87c18 0 28 10 28 28v269c0 59 43 104 100 104c58 0 99 -45 99 -104v-269c0 -18 10 -28 28 -28h87c18 0 28 10 28 28v271c0 148 -79 239 -203 239c-53 0 -102 -17 -138 -46l-1 192c0 40 -32 72 -72 72c-39 0 -71 -32 -71 -72v-656z" />
    <glyph glyph-name="i" unicode="i" horiz-adv-x="272" 
d="M136 592c-46 0 -83 37 -83 83c0 45 37 82 83 82c45 0 82 -37 82 -82c0 -46 -37 -83 -82 -83zM208 466v-427c0 -26 -13 -39 -38 -39h-66c-26 0 -39 13 -39 39v427c0 40 32 72 71 72c40 0 72 -32 72 -72z" />
    <glyph glyph-name="dotlessi" unicode="&#x131;" horiz-adv-x="273" 
d="M208 466v-427c0 -26 -13 -39 -38 -39h-66c-26 0 -39 13 -39 39v427c0 40 32 72 71 72c40 0 72 -32 72 -72z" />
    <glyph glyph-name="iacute" unicode="&#xed;" horiz-adv-x="273" 
d="M45 592c-15 16 -17 34 1 60l75 104c8 11 16 22 21 27c15 15 42 0 68 -26c25 -25 42 -53 26 -69c-5 -5 -15 -12 -27 -21l-104 -74c-26 -18 -46 -16 -60 -1zM208 466v-427c0 -26 -13 -39 -38 -39h-66c-26 0 -39 13 -39 39v427c0 40 32 72 71 72c40 0 72 -32 72 -72z" />
    <glyph glyph-name="icircumflex" unicode="&#xee;" horiz-adv-x="273" 
d="M136 668l68 -62c16 -14 29 -23 46 -23c21 0 39 19 39 38c0 14 -4 21 -13 33l-55 71c-25 32 -51 52 -85 52s-60 -20 -85 -52l-55 -71c-9 -12 -13 -19 -13 -33c0 -19 18 -38 39 -38c17 0 30 9 46 23zM208 466v-427c0 -26 -13 -39 -38 -39h-66c-26 0 -39 13 -39 39v427
c0 40 32 72 71 72c40 0 72 -32 72 -72z" />
    <glyph glyph-name="idieresis" unicode="&#xef;" horiz-adv-x="273" 
d="M42 606c-42 0 -76 34 -76 75s34 75 76 75c40 0 74 -34 74 -75s-34 -75 -74 -75zM233 606c-42 0 -76 33 -76 75c0 41 34 74 76 74c41 0 74 -33 74 -74c0 -42 -33 -75 -74 -75zM208 466v-427c0 -26 -13 -39 -38 -39h-66c-26 0 -39 13 -39 39v427c0 40 32 72 71 72
c40 0 72 -32 72 -72z" />
    <glyph glyph-name="igrave" unicode="&#xec;" horiz-adv-x="273" 
d="M226 592c-14 -15 -34 -17 -60 1l-104 74c-12 9 -22 16 -27 21c-16 16 1 44 26 69c26 26 53 41 68 26c5 -5 13 -16 21 -27l75 -104c18 -26 16 -44 1 -60zM208 466v-427c0 -26 -13 -39 -38 -39h-66c-26 0 -39 13 -39 39v427c0 40 32 72 71 72c40 0 72 -32 72 -72z" />
    <glyph glyph-name="j" unicode="j" horiz-adv-x="265" 
d="M129 592c-46 0 -83 37 -83 83c0 45 37 82 83 82c45 0 82 -37 82 -82c0 -46 -37 -83 -82 -83zM60 466c0 40 32 72 71 72c40 0 72 -32 72 -72l-1 -446c0 -79 -29 -160 -79 -204c-39 -35 -67 -45 -142 -45c-48 0 -75 36 -75 71c0 38 30 72 72 72c66 0 82 60 82 134v418z" />
    <glyph glyph-name="k" unicode="k" horiz-adv-x="513" 
d="M486 118c15 -14 23 -33 23 -53c0 -41 -33 -71 -72 -71c-24 0 -43 11 -62 31l-176 183v-169c0 -26 -13 -39 -38 -39h-66c-26 0 -39 13 -39 39v645c0 40 32 72 71 72c40 0 72 -32 72 -72v-312l184 143c17 13 34 23 53 23c39 0 68 -32 68 -70c0 -22 -10 -42 -26 -54
l-166 -123z" />
    <glyph glyph-name="l" unicode="l" horiz-adv-x="255" 
d="M56 39v645c0 40 32 72 71 72c40 0 72 -32 72 -72v-645c0 -26 -13 -39 -38 -39h-66c-26 0 -39 13 -39 39z" />
    <glyph glyph-name="m" unicode="m" horiz-adv-x="947" 
d="M688 538c133 0 202 -85 202 -199v-300c0 -26 -13 -39 -38 -39h-66c-26 0 -39 13 -39 39v258c0 67 -41 104 -99 104c-57 0 -100 -35 -100 -102v-260c0 -26 -13 -39 -38 -39h-66c-26 0 -39 13 -39 39v258c0 67 -41 104 -99 104c-57 0 -100 -37 -100 -104v-258
c0 -26 -13 -39 -38 -39h-66c-26 0 -39 13 -39 39v427c0 40 32 72 71 72c37 0 67 -27 71 -63c32 36 82 63 155 63c78 0 123 -31 156 -64c42 40 102 64 172 64z" />
    <glyph glyph-name="n" unicode="n" horiz-adv-x="605" 
d="M356 538c123 0 192 -85 192 -199v-311c0 -18 -10 -28 -28 -28h-87c-18 0 -28 10 -28 28v269c0 66 -41 104 -99 104c-57 0 -100 -38 -100 -104v-269c0 -18 -10 -28 -28 -28h-87c-18 0 -28 10 -28 28v438c0 40 32 72 71 72c36 0 67 -27 71 -63c32 36 82 63 151 63z" />
    <glyph glyph-name="o" unicode="o" horiz-adv-x="602" 
d="M301 -10c-151 0 -273 122 -273 275c0 151 122 273 273 273s273 -122 273 -273c0 -153 -122 -275 -273 -275zM301 130c75 0 134 59 134 135c0 74 -59 133 -134 133c-73 0 -134 -59 -134 -133c0 -76 61 -135 134 -135z" />
    <glyph glyph-name="oacute" unicode="&#xf3;" horiz-adv-x="602" 
d="M210 592c-15 16 -17 34 1 60l75 104c8 11 16 22 21 27c15 15 42 0 68 -26c25 -25 42 -53 26 -69c-5 -5 -15 -12 -27 -21l-104 -74c-26 -18 -46 -16 -60 -1zM301 -10c-151 0 -273 122 -273 275c0 151 122 273 273 273s273 -122 273 -273c0 -153 -122 -275 -273 -275z
M301 130c75 0 134 59 134 135c0 74 -59 133 -134 133c-73 0 -134 -59 -134 -133c0 -76 61 -135 134 -135z" />
    <glyph glyph-name="ocircumflex" unicode="&#xf4;" horiz-adv-x="602" 
d="M301 668l68 -62c16 -14 29 -23 46 -23c21 0 39 19 39 38c0 14 -4 21 -13 33l-55 71c-25 32 -51 52 -85 52s-60 -20 -85 -52l-55 -71c-9 -12 -13 -19 -13 -33c0 -19 18 -38 39 -38c17 0 30 9 46 23zM301 -10c-151 0 -273 122 -273 275c0 151 122 273 273 273
s273 -122 273 -273c0 -153 -122 -275 -273 -275zM301 130c75 0 134 59 134 135c0 74 -59 133 -134 133c-73 0 -134 -59 -134 -133c0 -76 61 -135 134 -135z" />
    <glyph glyph-name="odieresis" unicode="&#xf6;" horiz-adv-x="602" 
d="M207 606c-42 0 -76 34 -76 75s34 75 76 75c40 0 74 -34 74 -75s-34 -75 -74 -75zM398 606c-42 0 -76 33 -76 75c0 41 34 74 76 74c41 0 74 -33 74 -74c0 -42 -33 -75 -74 -75zM301 -10c-151 0 -273 122 -273 275c0 151 122 273 273 273s273 -122 273 -273
c0 -153 -122 -275 -273 -275zM301 130c75 0 134 59 134 135c0 74 -59 133 -134 133c-73 0 -134 -59 -134 -133c0 -76 61 -135 134 -135z" />
    <glyph glyph-name="ograve" unicode="&#xf2;" horiz-adv-x="602" 
d="M391 592c-14 -15 -34 -17 -60 1l-104 74c-12 9 -22 16 -27 21c-16 16 1 44 26 69c26 26 53 41 68 26c5 -5 13 -16 21 -27l75 -104c18 -26 16 -44 1 -60zM301 -10c-151 0 -273 122 -273 275c0 151 122 273 273 273s273 -122 273 -273c0 -153 -122 -275 -273 -275zM301 130
c75 0 134 59 134 135c0 74 -59 133 -134 133c-73 0 -134 -59 -134 -133c0 -76 61 -135 134 -135z" />
    <glyph glyph-name="oe" unicode="&#x153;" horiz-adv-x="1000" 
d="M980 285c0 -57 -28 -80 -58 -80h-342c18 -54 79 -89 153 -89c47 0 85 14 109 28c12 7 25 12 40 12c34 0 64 -27 64 -65c0 -27 -15 -47 -44 -63c-46 -26 -120 -37 -176 -37c-93 0 -171 33 -223 89c-50 -56 -122 -90 -202 -90c-151 0 -273 122 -273 275
c0 151 122 273 273 273c81 0 153 -35 203 -91c50 56 122 91 206 91c148 0 270 -128 270 -253zM577 308h261c-12 53 -64 98 -130 98s-119 -45 -131 -98zM301 130c75 0 134 59 134 135c0 74 -59 133 -134 133c-73 0 -134 -59 -134 -133c0 -76 61 -135 134 -135z" />
    <glyph glyph-name="p" unicode="p" horiz-adv-x="621" 
d="M320 538c151 0 273 -122 273 -275c0 -151 -122 -273 -273 -273c-48 0 -92 14 -131 44v-192c0 -42 -32 -70 -71 -70c-40 0 -72 28 -72 70v413c0 162 123 283 274 283zM323 130c75 0 134 59 134 133c0 76 -59 135 -134 135c-73 0 -134 -59 -134 -135
c0 -74 61 -133 134 -133z" />
    <glyph glyph-name="q" unicode="q" horiz-adv-x="621" 
d="M301 538c151 0 274 -121 274 -283v-413c0 -42 -32 -70 -72 -70c-39 0 -71 28 -71 70v192c-39 -30 -83 -44 -131 -44c-151 0 -273 122 -273 273c0 153 122 275 273 275zM298 130c73 0 134 59 134 133c0 76 -61 135 -134 135c-75 0 -134 -59 -134 -135
c0 -74 59 -133 134 -133z" />
    <glyph glyph-name="r" unicode="r" horiz-adv-x="440" 
d="M371 396c-17 0 -31 2 -50 2c-69 0 -132 -56 -132 -137v-233c0 -18 -10 -28 -28 -28h-87c-18 0 -28 10 -28 28v232c0 102 55 191 134 239c53 33 98 39 156 39c24 0 43 0 60 -7c27 -11 44 -36 44 -66c0 -36 -28 -69 -69 -69z" />
    <glyph glyph-name="s" unicode="s" horiz-adv-x="477" 
d="M244 109c-27 0 -64 7 -90 15c-34 10 -50 23 -80 23c-31 0 -55 -25 -55 -57c0 -20 13 -40 38 -55c45 -27 110 -45 183 -45c145 0 214 77 214 163c0 53 -27 109 -125 148l-95 39c-27 10 -36 24 -36 41c0 24 17 38 52 38c16 0 39 -3 63 -10s42 -16 72 -16c31 0 55 22 55 54
c0 15 -7 32 -19 43c-39 35 -101 48 -173 48c-135 0 -204 -78 -204 -157c0 -64 46 -122 140 -159l81 -32c24 -10 36 -23 36 -42c0 -22 -14 -39 -57 -39z" />
    <glyph glyph-name="t" unicode="t" horiz-adv-x="401" 
d="M311 143c40 0 72 -32 72 -71c0 -40 -32 -72 -72 -72h-60c-71 0 -108 12 -134 41c-28 31 -37 80 -37 156v193h-13c-39 0 -69 31 -69 70c0 37 30 68 69 68h13v76c0 42 32 70 73 70c38 0 70 -28 70 -70l-1 -76h91c39 0 69 -31 69 -68c0 -39 -30 -70 -69 -70h-92l-1 -183
c0 -51 22 -64 63 -64h28z" />
    <glyph glyph-name="u" unicode="u" horiz-adv-x="605" 
d="M470 538c40 0 72 -32 72 -72v-438c0 -18 -10 -28 -28 -28h-87c-18 0 -28 10 -28 28v33c-32 -37 -81 -71 -150 -71c-123 0 -192 95 -192 209v267c0 40 32 72 71 72c40 0 72 -32 72 -72v-225c0 -66 41 -104 99 -104c57 0 100 38 100 104v225c0 40 32 72 71 72z" />
    <glyph glyph-name="uacute" unicode="&#xfa;" horiz-adv-x="605" 
d="M271 593c-26 -18 -46 -16 -60 -1c-15 16 -17 34 1 60l75 104c8 11 16 22 21 27c15 15 42 0 68 -26c25 -25 42 -53 26 -69c-5 -5 -15 -12 -27 -21zM470 538c40 0 72 -32 72 -72v-438c0 -18 -10 -28 -28 -28h-87c-18 0 -28 10 -28 28v33c-32 -37 -81 -71 -150 -71
c-123 0 -192 95 -192 209v267c0 40 32 72 71 72c40 0 72 -32 72 -72v-225c0 -66 41 -104 99 -104c57 0 100 38 100 104v225c0 40 32 72 71 72z" />
    <glyph glyph-name="ucircumflex" unicode="&#xfb;" horiz-adv-x="605" 
d="M188 583c-21 0 -39 19 -39 38c0 14 4 21 13 33l55 71c25 32 51 52 85 52s60 -20 85 -52l55 -71c9 -12 13 -19 13 -33c0 -19 -18 -38 -39 -38c-17 0 -30 9 -46 23l-68 62l-68 -62c-16 -14 -29 -23 -46 -23zM470 538c40 0 72 -32 72 -72v-438c0 -18 -10 -28 -28 -28h-87
c-18 0 -28 10 -28 28v33c-32 -37 -81 -71 -150 -71c-123 0 -192 95 -192 209v267c0 40 32 72 71 72c40 0 72 -32 72 -72v-225c0 -66 41 -104 99 -104c57 0 100 38 100 104v225c0 40 32 72 71 72z" />
    <glyph glyph-name="udieresis" unicode="&#xfc;" horiz-adv-x="605" 
d="M208 606c-42 0 -76 34 -76 75s34 75 76 75c40 0 74 -34 74 -75s-34 -75 -74 -75zM399 606c-42 0 -76 33 -76 75c0 41 34 74 76 74c41 0 74 -33 74 -74c0 -42 -33 -75 -74 -75zM470 538c40 0 72 -32 72 -72v-438c0 -18 -10 -28 -28 -28h-87c-18 0 -28 10 -28 28v33
c-32 -37 -81 -71 -150 -71c-123 0 -192 95 -192 209v267c0 40 32 72 71 72c40 0 72 -32 72 -72v-225c0 -66 41 -104 99 -104c57 0 100 38 100 104v225c0 40 32 72 71 72z" />
    <glyph glyph-name="ugrave" unicode="&#xf9;" horiz-adv-x="605" 
d="M228 667c-12 9 -22 16 -27 21c-16 16 1 44 26 69c26 26 53 41 68 26c5 -5 13 -16 21 -27l75 -104c18 -26 16 -44 1 -60c-14 -15 -34 -17 -60 1zM470 538c40 0 72 -32 72 -72v-438c0 -18 -10 -28 -28 -28h-87c-18 0 -28 10 -28 28v33c-32 -37 -81 -71 -150 -71
c-123 0 -192 95 -192 209v267c0 40 32 72 71 72c40 0 72 -32 72 -72v-225c0 -66 41 -104 99 -104c57 0 100 38 100 104v225c0 40 32 72 71 72z" />
    <glyph glyph-name="v" unicode="v" horiz-adv-x="540" 
d="M443 538c44 0 77 -37 77 -77c0 -15 -4 -28 -9 -38l-168 -382c-15 -34 -41 -51 -73 -51s-58 17 -73 51l-168 382c-5 10 -9 23 -9 38c0 40 33 77 77 77c31 0 61 -20 75 -57c33 -85 66 -169 98 -254c32 85 65 169 98 254c14 37 44 57 75 57z" />
    <glyph glyph-name="w" unicode="w" horiz-adv-x="870" 
d="M773 538c44 0 77 -37 77 -77c0 -15 -5 -28 -9 -38l-164 -382c-15 -34 -41 -51 -73 -51s-58 17 -73 51l-96 223l-96 -223c-15 -34 -41 -51 -73 -51s-58 17 -73 51l-164 382c-4 10 -9 23 -9 38c0 40 33 77 77 77c33 0 61 -20 75 -56l94 -254c31 84 62 168 94 253
c14 37 43 57 75 57s61 -20 75 -57c32 -85 63 -169 94 -253l94 254c14 36 42 56 75 56z" />
    <glyph glyph-name="wacute" unicode="&#x1e83;" horiz-adv-x="870" 
d="M404 593c-26 -18 -46 -16 -60 -1c-15 16 -17 34 1 60l75 104c8 11 16 22 21 27c15 15 42 0 68 -26c25 -25 42 -53 26 -69c-5 -5 -15 -12 -27 -21zM773 538c44 0 77 -37 77 -77c0 -15 -5 -28 -9 -38l-164 -382c-15 -34 -41 -51 -73 -51s-58 17 -73 51l-96 223l-96 -223
c-15 -34 -41 -51 -73 -51s-58 17 -73 51l-164 382c-4 10 -9 23 -9 38c0 40 33 77 77 77c33 0 61 -20 75 -56l94 -254c31 84 62 168 94 253c14 37 43 57 75 57s61 -20 75 -57c32 -85 63 -169 94 -253l94 254c14 36 42 56 75 56z" />
    <glyph glyph-name="wcircumflex" unicode="&#x175;" horiz-adv-x="870" 
d="M321 583c-21 0 -39 19 -39 38c0 14 4 21 13 33l55 71c25 32 51 52 85 52s60 -20 85 -52l55 -71c9 -12 13 -19 13 -33c0 -19 -18 -38 -39 -38c-17 0 -30 9 -46 23l-68 62l-68 -62c-16 -14 -29 -23 -46 -23zM773 538c44 0 77 -37 77 -77c0 -15 -5 -28 -9 -38l-164 -382
c-15 -34 -41 -51 -73 -51s-58 17 -73 51l-96 223l-96 -223c-15 -34 -41 -51 -73 -51s-58 17 -73 51l-164 382c-4 10 -9 23 -9 38c0 40 33 77 77 77c33 0 61 -20 75 -56l94 -254c31 84 62 168 94 253c14 37 43 57 75 57s61 -20 75 -57c32 -85 63 -169 94 -253l94 254
c14 36 42 56 75 56z" />
    <glyph glyph-name="wdieresis" unicode="&#x1e85;" horiz-adv-x="870" 
d="M341 606c-42 0 -76 34 -76 75s34 75 76 75c40 0 74 -34 74 -75s-34 -75 -74 -75zM532 606c-42 0 -76 33 -76 75c0 41 34 74 76 74c41 0 74 -33 74 -74c0 -42 -33 -75 -74 -75zM773 538c44 0 77 -37 77 -77c0 -15 -5 -28 -9 -38l-164 -382c-15 -34 -41 -51 -73 -51
s-58 17 -73 51l-96 223l-96 -223c-15 -34 -41 -51 -73 -51s-58 17 -73 51l-164 382c-4 10 -9 23 -9 38c0 40 33 77 77 77c33 0 61 -20 75 -56l94 -254c31 84 62 168 94 253c14 37 43 57 75 57s61 -20 75 -57c32 -85 63 -169 94 -253l94 254c14 36 42 56 75 56z" />
    <glyph glyph-name="wgrave" unicode="&#x1e81;" horiz-adv-x="870" 
d="M361 667c-12 9 -22 16 -27 21c-16 16 1 44 26 69c26 26 53 41 68 26c5 -5 13 -16 21 -27l75 -104c18 -26 16 -44 1 -60c-14 -15 -34 -17 -60 1zM773 538c44 0 77 -37 77 -77c0 -15 -5 -28 -9 -38l-164 -382c-15 -34 -41 -51 -73 -51s-58 17 -73 51l-96 223l-96 -223
c-15 -34 -41 -51 -73 -51s-58 17 -73 51l-164 382c-4 10 -9 23 -9 38c0 40 33 77 77 77c33 0 61 -20 75 -56l94 -254c31 84 62 168 94 253c14 37 43 57 75 57s61 -20 75 -57c32 -85 63 -169 94 -253l94 254c14 36 42 56 75 56z" />
    <glyph glyph-name="x" unicode="x" horiz-adv-x="513" 
d="M477 115c11 -14 17 -33 17 -47c0 -43 -32 -78 -73 -78c-23 0 -47 10 -62 30c-30 40 -65 84 -102 129c-38 -45 -73 -89 -103 -129c-15 -20 -39 -30 -62 -30c-41 0 -73 35 -73 78c0 14 6 33 17 47c3 4 59 72 124 150c-44 52 -85 102 -120 146c-11 14 -20 31 -20 50
c0 40 30 75 76 75c22 0 43 -9 58 -28c11 -15 53 -65 103 -125c49 60 91 110 102 125c15 19 36 28 58 28c46 0 76 -35 76 -75c0 -19 -9 -36 -20 -50c-35 -44 -76 -94 -120 -146c65 -78 121 -146 124 -150z" />
    <glyph glyph-name="y" unicode="y" horiz-adv-x="540" 
d="M443 538c44 0 77 -37 77 -77c0 -15 -4 -28 -9 -38l-168 -382l-3 -6h1l-31 -69c-32 -71 -79 -133 -148 -162c-25 -10 -48 -14 -68 -14c-57 0 -89 33 -89 72s32 71 71 71c28 0 47 10 59 21c26 24 44 56 60 92l-166 377c-5 10 -9 23 -9 38c0 40 33 77 77 77
c31 0 61 -20 75 -57c33 -85 66 -169 98 -254c32 85 65 169 98 254c14 37 44 57 75 57z" />
    <glyph glyph-name="yacute" unicode="&#xfd;" horiz-adv-x="540" 
d="M239 593c-26 -18 -46 -16 -60 -1c-15 16 -17 34 1 60l75 104c8 11 16 22 21 27c15 15 42 0 68 -26c25 -25 42 -53 26 -69c-5 -5 -15 -12 -27 -21zM443 538c44 0 77 -37 77 -77c0 -15 -4 -28 -9 -38l-168 -382l-3 -6h1l-31 -69c-32 -71 -79 -133 -148 -162
c-25 -10 -48 -14 -68 -14c-57 0 -89 33 -89 72s32 71 71 71c28 0 47 10 59 21c26 24 44 56 60 92l-166 377c-5 10 -9 23 -9 38c0 40 33 77 77 77c31 0 61 -20 75 -57c33 -85 66 -169 98 -254c32 85 65 169 98 254c14 37 44 57 75 57z" />
    <glyph glyph-name="ycircumflex" unicode="&#x177;" horiz-adv-x="540" 
d="M156 583c-21 0 -39 19 -39 38c0 14 4 21 13 33l55 71c25 32 51 52 85 52s60 -20 85 -52l55 -71c9 -12 13 -19 13 -33c0 -19 -18 -38 -39 -38c-17 0 -30 9 -46 23l-68 62l-68 -62c-16 -14 -29 -23 -46 -23zM443 538c44 0 77 -37 77 -77c0 -15 -4 -28 -9 -38l-168 -382
l-3 -6h1l-31 -69c-32 -71 -79 -133 -148 -162c-25 -10 -48 -14 -68 -14c-57 0 -89 33 -89 72s32 71 71 71c28 0 47 10 59 21c26 24 44 56 60 92l-166 377c-5 10 -9 23 -9 38c0 40 33 77 77 77c31 0 61 -20 75 -57c33 -85 66 -169 98 -254c32 85 65 169 98 254
c14 37 44 57 75 57z" />
    <glyph glyph-name="ydieresis" unicode="&#xff;" horiz-adv-x="540" 
d="M176 606c-42 0 -76 34 -76 75s34 75 76 75c40 0 74 -34 74 -75s-34 -75 -74 -75zM367 606c-42 0 -76 33 -76 75c0 41 34 74 76 74c41 0 74 -33 74 -74c0 -42 -33 -75 -74 -75zM443 538c44 0 77 -37 77 -77c0 -15 -4 -28 -9 -38l-168 -382l-3 -6h1l-31 -69
c-32 -71 -79 -133 -148 -162c-25 -10 -48 -14 -68 -14c-57 0 -89 33 -89 72s32 71 71 71c28 0 47 10 59 21c26 24 44 56 60 92l-166 377c-5 10 -9 23 -9 38c0 40 33 77 77 77c31 0 61 -20 75 -57c33 -85 66 -169 98 -254c32 85 65 169 98 254c14 37 44 57 75 57z" />
    <glyph glyph-name="ygrave" unicode="&#x1ef3;" horiz-adv-x="540" 
d="M196 667c-12 9 -22 16 -27 21c-16 16 1 44 26 69c26 26 53 41 68 26c5 -5 13 -16 21 -27l75 -104c18 -26 16 -44 1 -60c-14 -15 -34 -17 -60 1zM443 538c44 0 77 -37 77 -77c0 -15 -4 -28 -9 -38l-168 -382l-3 -6h1l-31 -69c-32 -71 -79 -133 -148 -162
c-25 -10 -48 -14 -68 -14c-57 0 -89 33 -89 72s32 71 71 71c28 0 47 10 59 21c26 24 44 56 60 92l-166 377c-5 10 -9 23 -9 38c0 40 33 77 77 77c31 0 61 -20 75 -57c33 -85 66 -169 98 -254c32 85 65 169 98 254c14 37 44 57 75 57z" />
    <glyph glyph-name="z" unicode="z" horiz-adv-x="509" 
d="M417 143c42 0 70 -32 70 -71c0 -40 -28 -72 -70 -72h-325c-43 0 -71 32 -71 76c0 23 9 47 24 63l219 246h-165c-42 0 -70 32 -70 72c0 39 28 71 70 71h320c34 0 69 -26 69 -71c0 -29 -20 -50 -38 -70l-217 -244h184z" />
    <glyph glyph-name="zero" unicode="0" horiz-adv-x="644" 
d="M322 700c176 0 279 -144 279 -356c0 -210 -103 -354 -279 -354c-177 0 -279 144 -279 354c0 212 102 356 279 356zM322 142c82 0 122 70 122 202s-40 204 -122 204s-122 -72 -122 -204s40 -202 122 -202z" />
    <glyph glyph-name="one" unicode="1" horiz-adv-x="406" 
d="M227 700c46 0 81 -38 81 -78v-588c0 -21 -13 -34 -33 -34h-94c-21 0 -34 13 -34 34l1 488l-37 -9c-41 -10 -84 14 -94 55c-11 41 14 83 55 94c109 29 135 38 155 38z" />
    <glyph glyph-name="two" unicode="2" horiz-adv-x="569" 
d="M454 151c42 0 76 -34 76 -76s-34 -75 -76 -75h-341c-42 0 -76 33 -76 75c0 23 11 42 25 56c61 65 234 243 270 280c14 16 22 36 22 57c0 45 -37 82 -83 82c-38 0 -46 -12 -84 -52c-14 -15 -35 -24 -58 -24c-43 0 -77 34 -77 78c0 38 30 72 62 96c45 35 100 52 156 52
c123 0 233 -80 233 -219c0 -82 -44 -153 -106 -216l-115 -114h172z" />
    <glyph glyph-name="three" unicode="3" horiz-adv-x="580" 
d="M373 410c84 -27 145 -96 145 -191c0 -150 -118 -229 -250 -229c-81 0 -155 28 -204 88c-11 14 -18 31 -18 49c0 44 34 79 77 79c62 0 66 -63 145 -63c60 0 95 30 95 79c-2 41 -37 74 -78 73c-50 -1 -65 0 -84 15c-17 14 -25 33 -25 53c0 15 4 29 14 41l109 138h-186
c-41 0 -74 33 -74 73c0 42 33 75 74 75h326c40 0 73 -33 73 -75c0 -19 -9 -37 -19 -50z" />
    <glyph glyph-name="four" unicode="4" horiz-adv-x="656" 
d="M566 279c35 0 63 -28 63 -63c0 -36 -28 -64 -63 -64h-49v-118c0 -21 -13 -34 -33 -34h-94c-21 0 -34 13 -34 34v118h-258c-43 0 -68 34 -68 75c0 23 10 48 28 72l264 356c22 29 56 45 89 45c62 0 105 -43 105 -107l1 -314h49zM202 279h154v199z" />
    <glyph glyph-name="five" unicode="5" horiz-adv-x="579" 
d="M296 449c128 0 235 -79 235 -229c0 -152 -117 -230 -249 -230c-89 0 -168 33 -208 85c-21 25 -27 37 -27 61c0 42 34 78 77 78c23 0 44 -11 61 -27c0 0 47 -45 97 -45c56 0 93 34 93 79s-38 75 -88 75h-135c-44 0 -77 34 -73 84l18 239c3 39 33 71 72 71h274
c41 0 74 -34 74 -74s-33 -73 -74 -73h-194l-8 -94h55z" />
    <glyph glyph-name="six" unicode="6" horiz-adv-x="609" 
d="M333 479c136 -11 229 -109 229 -244c0 -143 -105 -245 -259 -245c-152 0 -256 102 -256 245c0 55 15 103 40 141c0 0 143 218 189 289c15 22 38 34 62 34c40 0 76 -33 76 -74c0 -14 -3 -28 -12 -41zM303 136c56 0 101 45 101 99c0 56 -45 100 -101 100
c-54 0 -99 -44 -99 -100c0 -54 45 -99 99 -99z" />
    <glyph glyph-name="seven" unicode="7" horiz-adv-x="530" 
d="M430 690c41 0 75 -34 75 -76c0 -11 -2 -21 -7 -33l-221 -543c-12 -30 -40 -48 -71 -48c-42 0 -77 34 -77 77c0 9 1 19 5 28l178 444h-227c-41 0 -75 32 -75 75c0 42 34 76 75 76h345z" />
    <glyph glyph-name="eight" unicode="8" horiz-adv-x="627" 
d="M475 360c58 -38 89 -97 89 -164c0 -125 -90 -206 -250 -206c-161 0 -251 81 -251 206c0 67 31 126 89 164c-41 30 -65 76 -65 137c0 133 101 203 227 203s227 -70 227 -203c0 -61 -25 -107 -66 -137zM314 558c-40 0 -72 -32 -72 -71s32 -71 72 -71c39 0 71 32 71 71
s-32 71 -71 71zM315 133c55 0 96 30 96 82c0 51 -41 81 -96 81c-53 0 -94 -30 -94 -81c0 -52 41 -82 94 -82z" />
    <glyph glyph-name="nine" unicode="9" horiz-adv-x="609" 
d="M306 709c152 0 256 -102 256 -245c0 -55 -15 -103 -40 -141c0 0 -143 -218 -189 -289c-15 -22 -38 -34 -62 -34c-40 0 -76 33 -76 74c0 14 3 28 12 41l69 105c-136 11 -229 109 -229 244c0 143 105 245 259 245zM306 364c54 0 99 44 99 100c0 54 -45 99 -99 99
c-56 0 -101 -45 -101 -99c0 -56 45 -100 101 -100z" />
    <glyph glyph-name="fraction" unicode="&#x2044;" 
 />
    <glyph glyph-name="asterisk" unicode="*" horiz-adv-x="391" 
d="M364 485c10 -6 10 -28 -6 -56c-16 -27 -35 -38 -45 -32c-33 20 -58 48 -83 68c6 -32 18 -68 18 -106c0 -11 -19 -22 -51 -22s-51 11 -51 22c0 38 12 74 18 106c-25 -20 -50 -48 -83 -68c-10 -6 -29 5 -45 32c-16 28 -16 50 -6 56c33 20 70 26 100 38
c-30 11 -67 17 -100 37c-10 6 -10 28 6 56c16 27 35 38 45 32c33 -20 58 -48 83 -68c-6 32 -18 68 -18 106c0 11 19 22 51 22s51 -11 51 -22c0 -38 -12 -74 -18 -106c25 20 50 48 83 68c10 6 29 -5 45 -32c16 -28 16 -50 6 -56c-33 -20 -70 -26 -100 -37
c30 -12 67 -18 100 -38z" />
    <glyph glyph-name="backslash" unicode="\" horiz-adv-x="565" 
d="M500 -10l-322 756c-13 31 -50 46 -79 33c-32 -14 -47 -50 -34 -81l323 -756c13 -31 49 -45 80 -32s45 49 32 80z" />
    <glyph glyph-name="periodcentered" unicode="&#xb7;" horiz-adv-x="245" 
d="M123 182c-46 0 -83 37 -83 83c0 45 37 82 83 82c45 0 82 -37 82 -82c0 -46 -37 -83 -82 -83z" />
    <glyph glyph-name="bullet" unicode="&#x2022;" horiz-adv-x="522" 
d="M262 122c-79 0 -142 64 -142 142c0 77 63 141 142 141c77 0 140 -64 140 -141c0 -78 -63 -142 -140 -142z" />
    <glyph glyph-name="colon" unicode=":" horiz-adv-x="326" 
d="M163 363c-46 0 -83 37 -83 83c0 45 37 82 83 82c45 0 82 -37 82 -82c0 -46 -37 -83 -82 -83zM163 0c-46 0 -83 37 -83 83c0 45 37 82 83 82c45 0 82 -37 82 -82c0 -46 -37 -83 -82 -83z" />
    <glyph glyph-name="comma" unicode="," horiz-adv-x="286" 
d="M148 147c50 0 87 -41 87 -98c0 -73 -59 -156 -146 -156c-14 0 -21 11 -21 21c0 9 6 16 13 19c28 12 47 27 58 49c-47 4 -75 45 -75 84c0 42 35 81 84 81zM147 19v7v-7z" />
    <glyph glyph-name="ellipsis" unicode="&#x2026;" horiz-adv-x="842" 
d="M158 -10c-46 0 -83 37 -83 83c0 45 37 82 83 82c45 0 82 -37 82 -82c0 -46 -37 -83 -82 -83zM407 -10c-46 0 -83 37 -83 83c0 45 37 82 83 82c45 0 82 -37 82 -82c0 -46 -37 -83 -82 -83zM573 72c0 46 37 83 83 83c45 0 82 -37 82 -83c0 -45 -37 -82 -82 -82
c-46 0 -83 37 -83 82z" />
    <glyph glyph-name="exclam" unicode="!" horiz-adv-x="290" 
d="M72 630v-358c0 -41 32 -73 72 -73c39 0 71 32 71 73v358c0 38 -32 70 -71 70c-40 0 -72 -32 -72 -70zM144 -10c-46 0 -83 37 -83 83c0 45 37 82 83 82c45 0 82 -37 82 -82c0 -46 -37 -83 -82 -83z" />
    <glyph glyph-name="exclamdown" unicode="&#xa1;" horiz-adv-x="326" 
d="M165 538c45 0 82 -37 82 -83c0 -45 -37 -82 -82 -82c-46 0 -83 37 -83 82c0 46 37 83 83 83zM93 -102c0 -38 32 -70 72 -70c39 0 71 32 71 70v358c0 41 -32 73 -71 73c-40 0 -72 -32 -72 -73v-358z" />
    <glyph glyph-name="numbersign" unicode="#" horiz-adv-x="685" 
d="M612 409h-66l-31 -177h44c33 0 59 -26 59 -59c0 -34 -26 -60 -59 -60h-65l-13 -73c-5 -26 -27 -50 -60 -50s-62 22 -62 59c0 5 1 14 2 21l8 43h-129l-13 -73c-5 -26 -27 -50 -60 -50s-62 22 -62 59c0 5 1 14 2 21l8 43h-42c-33 0 -59 26 -59 60c0 33 26 59 59 59h63
l31 177h-41c-33 0 -59 26 -59 60c0 33 26 59 59 59h62l16 92c5 26 27 50 60 50s62 -25 62 -62c0 -5 -1 -11 -2 -18l-11 -62h129l16 92c5 26 27 50 60 50s62 -25 62 -62c0 -5 -1 -11 -2 -18l-11 -62h45c33 0 59 -26 59 -59c0 -34 -26 -60 -59 -60zM390 232l31 177h-129
l-31 -177h129z" />
    <glyph glyph-name="period" unicode="." horiz-adv-x="290" 
d="M145 -10c-46 0 -83 37 -83 83c0 45 37 82 83 82c45 0 82 -37 82 -82c0 -46 -37 -83 -82 -83z" />
    <glyph glyph-name="question" unicode="?" 
d="M169 283v39c0 58 64 83 109 108c38 21 61 33 61 70c0 27 -23 56 -57 56c-25 0 -56 -9 -83 -21c-35 -16 -62 -34 -97 -34s-66 30 -66 66c0 21 7 44 44 70c52 37 137 63 215 63c133 0 206 -75 206 -174c0 -92 -63 -151 -127 -187c-47 -26 -61 -31 -61 -56
c0 -40 -32 -72 -72 -72s-72 32 -72 72zM242 -10c-46 0 -83 37 -83 83c0 45 37 82 83 82c45 0 82 -37 82 -82c0 -46 -37 -83 -82 -83z" />
    <glyph glyph-name="questiondown" unicode="&#xbf;" horiz-adv-x="537" 
d="M315 538c46 0 83 -37 83 -83c0 -45 -37 -82 -83 -82c-45 0 -82 37 -82 82c0 46 37 83 82 83zM388 245v-39c0 -58 -64 -83 -109 -108c-38 -21 -61 -33 -61 -70c0 -27 23 -56 57 -56c25 0 56 9 83 21c35 16 62 34 97 34s66 -30 66 -66c0 -21 -7 -44 -44 -70
c-52 -37 -137 -63 -215 -63c-133 0 -206 75 -206 174c0 92 63 151 127 187c47 26 61 31 61 56c0 40 32 72 72 72s72 -32 72 -72z" />
    <glyph glyph-name="quotedbl" unicode="&#x22;" horiz-adv-x="482" 
d="M141 700c-48 0 -75 -21 -75 -39c0 -22 3 -34 28 -172c6 -33 19 -58 47 -58s41 25 47 58c25 138 28 150 28 172c0 18 -27 39 -75 39zM341 700c-48 0 -75 -21 -75 -39c0 -22 3 -34 28 -172c6 -33 19 -58 47 -58s41 25 47 58c25 138 28 150 28 172c0 18 -27 39 -75 39z" />
    <glyph glyph-name="quotesingle" unicode="'" horiz-adv-x="282" 
d="M141 700c-48 0 -75 -21 -75 -39c0 -22 3 -34 28 -172c6 -33 19 -58 47 -58s41 25 47 58c25 138 28 150 28 172c0 18 -27 39 -75 39z" />
    <glyph glyph-name="semicolon" unicode=";" horiz-adv-x="326" 
d="M163 363c-46 0 -83 37 -83 83c0 45 37 82 83 82c45 0 82 -37 82 -82c0 -46 -37 -83 -82 -83zM164 165c50 0 87 -41 87 -98c0 -73 -59 -156 -146 -156c-14 0 -21 11 -21 21c0 9 6 16 13 19c28 12 47 27 58 49c-47 4 -75 45 -75 84c0 42 35 81 84 81zM163 37v7v-7z" />
    <glyph glyph-name="slash" unicode="/" horiz-adv-x="564" 
d="M65 -10c-13 -31 1 -66 32 -80s67 1 80 32l322 756c13 31 -1 67 -33 81c-30 13 -66 -2 -79 -33z" />
    <glyph glyph-name="underscore" unicode="_" horiz-adv-x="802" 
d="M741 -112c28 0 51 23 51 51s-23 51 -51 51h-680c-29 0 -51 -23 -51 -51s22 -51 51 -51h680z" />
    <glyph glyph-name="braceleft" unicode="{" horiz-adv-x="466" 
d="M129 222c47 0 58 -31 58 -81v-101c0 -98 55 -201 194 -201h21c19 0 29 10 29 29v92c0 19 -10 29 -29 29h-21c-28 0 -48 15 -48 56c0 31 3 71 3 120c0 53 -9 97 -56 132c47 35 56 79 56 132c0 49 -3 91 -3 120c0 41 20 56 48 56h21c19 0 29 10 29 29v92
c0 19 -10 29 -29 29h-21c-138 0 -193 -103 -193 -201v-101c0 -49 -12 -81 -59 -81c-19 0 -29 -10 -29 -29v-92c0 -19 10 -29 29 -29z" />
    <glyph glyph-name="braceright" unicode="}" horiz-adv-x="451" 
d="M322 222c19 0 29 10 29 29v92c0 19 -10 29 -29 29c-47 0 -59 32 -59 81v101c0 98 -55 201 -193 201h-21c-19 0 -29 -10 -29 -29v-92c0 -19 10 -29 29 -29h21c28 0 48 -15 48 -56c0 -29 -3 -71 -3 -120c0 -53 9 -97 56 -132c-47 -35 -56 -79 -56 -132c0 -49 3 -89 3 -120
c0 -41 -20 -56 -48 -56h-21c-19 0 -29 -10 -29 -29v-92c0 -19 10 -29 29 -29h21c139 0 194 103 194 201v101c0 50 11 81 58 81z" />
    <glyph glyph-name="bracketleft" unicode="[" horiz-adv-x="420" 
d="M317 -26c38 0 68 -30 68 -68s-30 -68 -68 -68h-126c-69 0 -111 54 -111 109v700c0 55 42 109 111 109h126c38 0 68 -30 68 -68s-30 -68 -68 -68h-87v-646h87z" />
    <glyph glyph-name="bracketright" unicode="]" horiz-adv-x="395" 
d="M204 756c69 0 111 -54 111 -109v-700c0 -55 -42 -109 -111 -109h-126c-38 0 -68 30 -68 68s30 68 68 68h87v646h-87c-38 0 -68 30 -68 68s30 68 68 68h126z" />
    <glyph glyph-name="parenleft" unicode="(" horiz-adv-x="376" 
d="M50 319c0 156 59 292 157 407c17 20 37 30 59 30c44 0 75 -31 75 -76c0 -13 -4 -26 -10 -37s-17 -22 -29 -37c-49 -62 -102 -164 -102 -287c0 -148 53 -273 102 -335c12 -15 23 -26 29 -37s10 -24 10 -37c0 -45 -31 -76 -75 -76c-22 0 -42 10 -59 30
c-98 115 -157 274 -157 455z" />
    <glyph glyph-name="parenright" unicode=")" horiz-adv-x="360" 
d="M310 319c0 -181 -59 -340 -157 -455c-17 -20 -37 -30 -59 -30c-44 0 -75 31 -75 76c0 13 4 26 10 37s17 22 29 37c49 62 102 187 102 335c0 123 -53 225 -102 287c-12 15 -23 26 -29 37s-10 24 -10 37c0 45 31 76 75 76c22 0 42 -10 59 -30c98 -115 157 -251 157 -407z
" />
    <glyph glyph-name="emdash" unicode="&#x2014;" horiz-adv-x="928" 
d="M845 325h-740c-34 0 -61 -27 -61 -60c0 -35 27 -62 61 -62h740c34 0 61 27 61 62c0 33 -27 60 -61 60z" />
    <glyph glyph-name="endash" unicode="&#x2013;" horiz-adv-x="590" 
d="M485 325h-380c-34 0 -61 -27 -61 -60c0 -35 27 -62 61 -62h380c34 0 61 27 61 62c0 33 -27 60 -61 60z" />
    <glyph glyph-name="hyphen" unicode="-" horiz-adv-x="370" 
d="M265 325h-160c-34 0 -61 -27 -61 -60c0 -35 27 -62 61 -62h160c34 0 61 27 61 62c0 33 -27 60 -61 60z" />
    <glyph glyph-name="guillemotleft" unicode="&#xab;" horiz-adv-x="631" 
d="M301 424c0 -17 -8 -34 -21 -50l-90 -110l90 -110c13 -16 21 -33 21 -50c0 -34 -30 -58 -58 -58c-20 0 -41 10 -55 28l-100 123c-14 18 -28 41 -28 67c0 28 13 49 28 68l100 122c14 18 35 28 55 28c30 0 58 -26 58 -58zM460 264l90 -110c13 -16 21 -33 21 -50
c0 -34 -30 -58 -58 -58c-20 0 -41 10 -55 28l-100 123c-14 18 -28 41 -28 67c0 28 13 49 28 68l100 122c14 18 35 28 55 28c30 0 58 -26 58 -58c0 -17 -8 -34 -21 -50z" />
    <glyph glyph-name="guillemotright" unicode="&#xbb;" horiz-adv-x="631" 
d="M173 454l100 -122c15 -19 28 -40 28 -68c0 -26 -14 -49 -28 -67l-100 -123c-14 -18 -35 -28 -55 -28c-28 0 -58 24 -58 58c0 17 8 34 21 50l90 110l-90 110c-13 16 -21 33 -21 50c0 32 28 58 58 58c20 0 41 -10 55 -28zM543 332c15 -19 28 -40 28 -68
c0 -26 -14 -49 -28 -67l-100 -123c-14 -18 -35 -28 -55 -28c-28 0 -58 24 -58 58c0 17 8 34 21 50l90 110l-90 110c-13 16 -21 33 -21 50c0 32 28 58 58 58c20 0 41 -10 55 -28z" />
    <glyph glyph-name="guilsinglleft" unicode="&#x2039;" horiz-adv-x="361" 
d="M190 264l90 -110c13 -16 21 -33 21 -50c0 -34 -30 -58 -58 -58c-20 0 -41 10 -55 28l-100 123c-14 18 -28 41 -28 67c0 28 13 49 28 68l100 122c14 18 35 28 55 28c30 0 58 -26 58 -58c0 -17 -8 -34 -21 -50z" />
    <glyph glyph-name="guilsinglright" unicode="&#x203a;" horiz-adv-x="361" 
d="M273 332c15 -19 28 -40 28 -68c0 -26 -14 -49 -28 -67l-100 -123c-14 -18 -35 -28 -55 -28c-28 0 -58 24 -58 58c0 17 8 34 21 50l90 110l-90 110c-13 16 -21 33 -21 50c0 32 28 58 58 58c20 0 41 -10 55 -28z" />
    <glyph glyph-name="quotedblbase" unicode="&#x201e;" horiz-adv-x="479" 
d="M131 147c50 0 87 -41 87 -98c0 -73 -59 -156 -146 -156c-14 0 -21 11 -21 21c0 9 6 16 13 19c28 12 47 27 58 49c-47 4 -75 45 -75 84c0 42 35 81 84 81zM351 147c50 0 87 -41 87 -98c0 -73 -59 -156 -146 -156c-14 0 -21 11 -21 21c0 9 6 16 13 19c28 12 47 27 58 49
c-47 4 -75 45 -75 84c0 42 35 81 84 81zM130 19v7v-7zM350 19v7v-7z" />
    <glyph glyph-name="quotedblleft" unicode="&#x201c;" horiz-adv-x="479" 
d="M137 601c47 -4 75 -45 75 -84c0 -42 -35 -81 -84 -81c-50 0 -87 41 -87 98c0 73 59 156 146 156c14 0 21 -11 21 -21c0 -9 -6 -16 -13 -19c-28 -12 -47 -27 -58 -49zM357 601c47 -4 75 -45 75 -84c0 -42 -35 -81 -84 -81c-50 0 -87 41 -87 98c0 73 59 156 146 156
c14 0 21 -11 21 -21c0 -9 -6 -16 -13 -19c-28 -12 -47 -27 -58 -49zM129 564v-7v7zM349 564v-7v7z" />
    <glyph glyph-name="quotedblright" unicode="&#x201d;" horiz-adv-x="479" 
d="M131 690c50 0 87 -41 87 -98c0 -73 -59 -156 -146 -156c-14 0 -21 11 -21 21c0 9 6 16 13 19c28 12 47 27 58 49c-47 4 -75 45 -75 84c0 42 35 81 84 81zM351 690c50 0 87 -41 87 -98c0 -73 -59 -156 -146 -156c-14 0 -21 11 -21 21c0 9 6 16 13 19c28 12 47 27 58 49
c-47 4 -75 45 -75 84c0 42 35 81 84 81zM130 562v7v-7zM350 562v7v-7z" />
    <glyph glyph-name="quoteleft" unicode="&#x2018;" horiz-adv-x="259" 
d="M137 601c47 -4 75 -45 75 -84c0 -42 -35 -81 -84 -81c-50 0 -87 41 -87 98c0 73 59 156 146 156c14 0 21 -11 21 -21c0 -9 -6 -16 -13 -19c-28 -12 -47 -27 -58 -49zM129 564v-7v7z" />
    <glyph glyph-name="quoteright" unicode="&#x2019;" horiz-adv-x="259" 
d="M131 690c50 0 87 -41 87 -98c0 -73 -59 -156 -146 -156c-14 0 -21 11 -21 21c0 9 6 16 13 19c28 12 47 27 58 49c-47 4 -75 45 -75 84c0 42 35 81 84 81zM130 562v7v-7z" />
    <glyph glyph-name="quotesinglbase" unicode="&#x201a;" horiz-adv-x="259" 
d="M131 147c50 0 87 -41 87 -98c0 -73 -59 -156 -146 -156c-14 0 -21 11 -21 21c0 9 6 16 13 19c28 12 47 27 58 49c-47 4 -75 45 -75 84c0 42 35 81 84 81zM130 19v7v-7z" />
    <glyph glyph-name="space" unicode=" " horiz-adv-x="210" 
 />
    <glyph glyph-name="cent" unicode="&#xa2;" horiz-adv-x="519" 
d="M440 240c36 0 66 -30 66 -68c0 -27 -15 -47 -43 -63c-16 -9 -51 -24 -97 -32v-23c0 -35 -29 -64 -64 -64c-33 0 -61 29 -61 64v23c-127 27 -213 137 -213 267s85 241 213 268v24c0 35 28 64 61 64c35 0 64 -29 64 -64v-24c44 -9 78 -25 94 -34c28 -16 43 -36 43 -63
c0 -38 -30 -68 -66 -68c-13 0 -26 5 -39 12c-10 5 -21 10 -32 14v-259c13 4 24 8 35 14c13 7 26 12 39 12zM176 345c0 -54 27 -96 65 -118v235c-38 -22 -65 -63 -65 -117z" />
    <glyph glyph-name="dollar" unicode="$" horiz-adv-x="631" 
d="M592 215c2 -104 -67 -196 -208 -219v-43c0 -34 -29 -63 -63 -63s-62 29 -62 63v40c-56 8 -120 25 -165 48c-42 22 -59 49 -59 78c0 41 32 73 72 73c31 0 72 -22 125 -35c36 -9 81 -19 114 -19c44 0 66 21 66 53c0 37 -29 52 -88 73l-85 30c-120 42 -172 111 -173 184
c-3 108 65 191 193 215v39c0 34 28 63 62 63s63 -29 63 -63v-36c55 -6 113 -23 151 -47c30 -19 45 -43 45 -71c0 -41 -32 -73 -72 -73s-68 16 -101 27c-28 9 -66 19 -95 19c-41 0 -62 -24 -62 -52c0 -33 27 -53 82 -72l102 -36c123 -43 157 -115 158 -176z" />
    <glyph glyph-name="Euro" unicode="&#x20ac;" horiz-adv-x="771" 
d="M625 187c37 0 69 -29 69 -70c0 -16 -6 -32 -19 -48c-43 -53 -127 -79 -217 -79c-143 0 -250 85 -293 216h-54c-32 0 -58 27 -58 58c0 32 26 58 58 58h33c-1 8 -1 16 -1 24s0 15 1 23h-33c-32 0 -58 27 -58 58c0 32 26 58 58 58h54c44 130 151 215 295 215
c84 0 168 -26 211 -79c13 -16 20 -32 20 -48c0 -41 -33 -70 -70 -70c-17 0 -32 7 -44 15c-45 30 -73 42 -119 42c-53 0 -95 -28 -123 -75h130c32 0 58 -26 58 -58s-26 -58 -58 -58h-162c-1 -8 -1 -16 -1 -24s0 -15 1 -23h162c32 0 58 -26 58 -58s-26 -58 -58 -58h-129
c28 -47 72 -76 126 -76c47 0 77 14 119 42c12 8 27 15 44 15z" />
    <glyph glyph-name="plus" unicode="+" 
d="M483 328c36 0 64 -29 64 -64c0 -36 -28 -64 -64 -64h-126v-142c0 -36 -30 -68 -68 -68s-68 32 -68 68v142h-129c-36 0 -64 28 -64 64c0 35 28 64 64 64h129v142c0 38 30 68 68 68s68 -30 68 -68v-142h126z" />
    <glyph glyph-name="minus" unicode="&#x2212;" 
d="M483 200c36 0 64 28 64 64c0 35 -28 64 -64 64h-391c-36 0 -64 -29 -64 -64c0 -36 28 -64 64 -64h391z" />
    <glyph glyph-name="multiply" unicode="&#xd7;" 
d="M383 264l124 -124c12 -12 21 -27 21 -49c0 -36 -26 -66 -64 -66c-23 0 -38 9 -50 21l-124 125l-125 -125c-12 -12 -27 -21 -50 -21c-38 0 -64 30 -64 66c0 22 9 37 21 49l124 124l-124 125c-14 14 -21 31 -21 50c0 37 29 64 65 64c19 0 34 -6 48 -20l126 -125l125 125
c14 14 29 20 48 20c36 0 65 -27 65 -64c0 -19 -7 -36 -21 -50z" />
    <glyph glyph-name="divide" unicode="&#xf7;" 
d="M294 373c-46 0 -83 37 -83 83c0 45 37 82 83 82c45 0 82 -37 82 -82c0 -46 -37 -83 -82 -83zM483 199c36 0 64 28 64 64c0 35 -28 64 -64 64h-391c-36 0 -64 -29 -64 -64c0 -36 28 -64 64 -64h391zM294 -10c-46 0 -83 37 -83 83c0 45 37 82 83 82c45 0 82 -37 82 -82
c0 -46 -37 -83 -82 -83z" />
    <glyph glyph-name="equal" unicode="=" horiz-adv-x="609" 
d="M500 309c36 0 64 28 64 64c0 35 -28 64 -64 64h-391c-36 0 -64 -29 -64 -64c0 -36 28 -64 64 -64h391zM500 91c36 0 64 28 64 64c0 35 -28 64 -64 64h-391c-36 0 -64 -29 -64 -64c0 -36 28 -64 64 -64h391z" />
    <glyph glyph-name="notequal" unicode="&#x2260;" 
d="M474 220c43 0 76 -26 76 -64c0 -39 -33 -64 -76 -64h-167l-12 -45c-9 -35 -35 -58 -65 -58c-37 0 -59 29 -59 67c0 8 2 18 4 27l2 9h-73c-43 0 -76 25 -76 64c0 38 33 64 76 64h108l24 90h-132c-43 0 -76 25 -76 64c0 38 33 64 76 64h166l11 41c10 36 34 59 63 59
c38 0 61 -30 61 -68c0 -8 -2 -17 -4 -26l-2 -6h75c43 0 76 -26 76 -64c0 -39 -33 -64 -76 -64h-109l-24 -90h133z" />
    <glyph glyph-name="greater" unicode="&#x3e;" horiz-adv-x="484" 
d="M398 320c21 -18 26 -33 26 -55s-5 -37 -26 -55l-233 -201c-10 -9 -23 -17 -44 -17c-33 0 -61 29 -61 59c0 22 8 39 25 54l184 160l-184 160c-17 15 -25 32 -25 54c0 30 28 59 61 59c21 0 34 -8 44 -17z" />
    <glyph glyph-name="less" unicode="&#x3c;" horiz-adv-x="484" 
d="M399 105c17 -15 25 -32 25 -54c0 -30 -28 -59 -61 -59c-21 0 -34 8 -44 17l-233 201c-21 18 -26 33 -26 55s5 37 26 55l233 201c10 9 23 17 44 17c33 0 61 -29 61 -59c0 -22 -8 -39 -25 -54l-184 -160z" />
    <glyph glyph-name="plusminus" unicode="&#xb1;" 
d="M92 314c-36 0 -64 28 -64 64c0 35 28 64 64 64h128v66c0 38 31 69 69 69c39 0 70 -31 70 -69v-66h124c36 0 64 -29 64 -64c0 -36 -28 -64 -64 -64h-124v-64c0 -37 -31 -70 -70 -70c-38 0 -69 33 -69 70v64h-128zM483 154c36 0 64 -29 64 -64c0 -36 -28 -64 -64 -64h-391
c-36 0 -64 28 -64 64c0 35 28 64 64 64h391z" />
    <glyph glyph-name="asciitilde" unicode="~" horiz-adv-x="670" 
d="M462 134c-121 0 -178 119 -254 119c-31 0 -51 -25 -60 -59c-8 -31 -28 -61 -67 -61c-38 0 -67 29 -67 68c0 79 54 192 194 192c121 0 185 -119 254 -119c31 0 51 25 60 59c8 31 28 61 67 61c38 0 67 -29 67 -68c0 -79 -54 -192 -194 -192z" />
    <glyph glyph-name="percent" unicode="%" horiz-adv-x="824" 
d="M146 90l424 583c21 29 60 36 87 17c29 -20 37 -60 16 -89l-424 -583c-21 -29 -61 -36 -89 -16c-27 19 -35 59 -14 88zM197 349c-104 0 -175 76 -175 174c0 100 72 175 175 175c106 0 176 -76 176 -175c0 -98 -72 -174 -176 -174zM197 600c-37 0 -59 -39 -59 -77
c0 -39 23 -77 59 -77s60 40 60 77c0 38 -24 77 -60 77zM627 -10c-104 0 -175 76 -175 174c0 100 72 175 175 175c104 0 174 -76 174 -175c0 -98 -72 -174 -174 -174zM627 241c-37 0 -59 -39 -59 -77c0 -37 23 -75 59 -75s60 40 60 75c0 38 -24 77 -60 77z" />
    <glyph glyph-name="perthousand" unicode="&#x2030;" horiz-adv-x="1214" 
d="M146 90l424 583c21 29 60 36 87 17c29 -20 37 -60 16 -89l-424 -583c-21 -29 -61 -36 -89 -16c-27 19 -35 59 -14 88zM197 349c-104 0 -175 76 -175 174c0 100 72 175 175 175c106 0 176 -76 176 -175c0 -98 -72 -174 -176 -174zM197 600c-37 0 -59 -39 -59 -77
c0 -39 23 -77 59 -77s60 40 60 77c0 38 -24 77 -60 77zM627 -10c-104 0 -175 76 -175 174c0 100 72 175 175 175c104 0 174 -76 174 -175c0 -98 -72 -174 -174 -174zM1017 -10c-104 0 -175 76 -175 174c0 100 72 175 175 175c104 0 174 -76 174 -175
c0 -98 -72 -174 -174 -174zM627 241c-37 0 -59 -39 -59 -77c0 -37 23 -75 59 -75s60 40 60 75c0 38 -24 77 -60 77zM1017 241c-37 0 -59 -39 -59 -77c0 -37 23 -75 59 -75s60 40 60 75c0 38 -24 77 -60 77z" />
    <glyph glyph-name="at" unicode="@" horiz-adv-x="780" 
d="M405 619c207 0 354 -128 354 -311c0 -139 -82 -217 -185 -217c-45 0 -88 13 -109 51c-37 -33 -84 -50 -129 -50c-71 0 -146 51 -146 156c0 107 79 187 182 187c43 0 82 -13 106 -47c11 20 29 32 48 32c23 0 47 -15 47 -40c0 -4 0 -9 -1 -14l-22 -122c-1 -5 -2 -11 -2 -15
c0 -30 10 -40 30 -40c48 0 74 40 74 107c0 133 -101 223 -256 223c-166 0 -291 -111 -291 -275c0 -156 125 -234 276 -234c46 0 93 9 132 35c6 4 12 5 16 5c22 0 41 -37 41 -60c0 -13 -6 -27 -20 -35c-48 -28 -104 -46 -172 -46c-199 0 -380 122 -380 336
c0 220 171 374 407 374zM366 192c48 0 80 36 80 83c0 37 -29 64 -69 64c-50 0 -80 -37 -80 -82c0 -39 27 -65 69 -65z" />
    <glyph glyph-name="ampersand" unicode="&#x26;" horiz-adv-x="709" 
d="M659 106c15 -14 24 -27 24 -52c0 -30 -24 -64 -67 -64c-23 0 -46 15 -69 33c-21 16 -40 32 -61 50c-61 -51 -132 -83 -215 -83c-134 0 -227 78 -227 188c0 79 48 139 130 189c-40 48 -68 101 -68 164c0 101 77 169 196 169c114 0 196 -68 196 -167
c0 -60 -33 -132 -117 -185l97 -89c20 27 39 55 57 85c12 19 34 31 57 31c37 0 67 -31 67 -68c0 -11 -2 -23 -16 -45c-20 -31 -41 -62 -63 -90c23 -19 50 -40 79 -66zM302 592c-34 0 -59 -27 -59 -62c0 -34 19 -65 48 -97l4 2c45 25 71 45 71 95c0 35 -27 62 -64 62zM191 184
c0 -40 32 -65 83 -65c41 0 78 16 113 42l-106 98c-7 7 -15 13 -22 20c-40 -24 -68 -57 -68 -95z" />
    <glyph glyph-name="bar" unicode="|" horiz-adv-x="303" 
d="M223 684v-845c0 -26 -13 -39 -38 -39h-66c-26 0 -39 13 -39 39v845c0 40 32 72 71 72c40 0 72 -32 72 -72z" />
    <glyph glyph-name="asciicircum" unicode="^" 
d="M556 284c6 -12 9 -17 9 -34c0 -30 -27 -59 -61 -59c-22 0 -42 12 -56 34l-164 258l-164 -258c-14 -22 -34 -34 -56 -34c-34 0 -61 29 -61 59c0 17 3 23 9 35l169 304c29 53 61 54 103 54c46 0 76 -4 104 -54z" />
    <glyph glyph-name="uni0308" unicode="&#x308;" horiz-adv-x="0" 
d="M-391 606c-42 0 -76 34 -76 75s34 75 76 75c40 0 74 -34 74 -75s-34 -75 -74 -75zM-200 606c-42 0 -76 33 -76 75c0 41 34 74 76 74c41 0 74 -33 74 -74c0 -42 -33 -75 -74 -75z" />
    <glyph glyph-name="uni0307" unicode="&#x307;" horiz-adv-x="0" 
d="M-148 592c-46 0 -83 37 -83 83c0 45 37 82 83 82c45 0 82 -37 82 -82c0 -46 -37 -83 -82 -83z" />
    <glyph glyph-name="gravecomb" unicode="&#x300;" horiz-adv-x="0" 
d="M-155 592c-14 -15 -34 -17 -60 1l-104 74c-12 9 -22 16 -27 21c-16 16 1 44 26 69c26 26 53 41 68 26c5 -5 13 -16 21 -27l75 -104c18 -26 16 -44 1 -60z" />
    <glyph glyph-name="acutecomb" unicode="&#x301;" horiz-adv-x="0" 
d="M-426 592c-15 16 -17 34 1 60l75 104c8 11 16 22 21 27c15 15 42 0 68 -26c25 -25 42 -53 26 -69c-5 -5 -15 -12 -27 -21l-104 -74c-26 -18 -46 -16 -60 -1z" />
    <glyph glyph-name="uni0302" unicode="&#x302;" horiz-adv-x="0" 
d="M-356 668l68 -62c16 -14 29 -23 46 -23c21 0 39 19 39 38c0 14 -4 21 -13 33l-55 71c-25 32 -51 52 -85 52s-60 -20 -85 -52l-55 -71c-9 -12 -13 -19 -13 -33c0 -19 18 -38 39 -38c17 0 30 9 46 23z" />
    <glyph glyph-name="uni0327" unicode="&#x327;" horiz-adv-x="0" 
d="M-244 -49c62 -8 95 -36 95 -86c0 -62 -50 -99 -143 -99c-28 0 -60 5 -81 18c-12 8 -20 19 -20 33c0 18 14 34 35 34c18 0 33 -12 71 -12c34 0 49 10 49 21s-12 22 -59 22c-48 0 -54 9 -54 24c0 4 2 9 4 14l50 106h91z" />
    <glyph glyph-name="acute" unicode="&#xb4;" 
d="M174 592c-15 16 -17 34 1 60l75 104c8 11 16 22 21 27c15 15 42 0 68 -26c25 -25 42 -53 26 -69c-5 -5 -15 -12 -27 -21l-104 -74c-26 -18 -46 -16 -60 -1z" />
    <glyph glyph-name="cedilla" unicode="&#xb8;" 
d="M356 -49c62 -8 95 -36 95 -86c0 -62 -50 -99 -143 -99c-28 0 -60 5 -81 18c-12 8 -20 19 -20 33c0 18 14 34 35 34c18 0 33 -12 71 -12c34 0 49 10 49 21s-12 22 -59 22c-48 0 -54 9 -54 24c0 4 2 9 4 14l50 106h91z" />
    <glyph glyph-name="circumflex" unicode="&#x2c6;" 
d="M244 668l68 -62c16 -14 29 -23 46 -23c21 0 39 19 39 38c0 14 -4 21 -13 33l-55 71c-25 32 -51 52 -85 52s-60 -20 -85 -52l-55 -71c-9 -12 -13 -19 -13 -33c0 -19 18 -38 39 -38c17 0 30 9 46 23z" />
    <glyph glyph-name="dieresis" unicode="&#xa8;" 
d="M204 606c-42 0 -76 34 -76 75s34 75 76 75c40 0 74 -34 74 -75s-34 -75 -74 -75zM395 606c-42 0 -76 33 -76 75c0 41 34 74 76 74c41 0 74 -33 74 -74c0 -42 -33 -75 -74 -75z" />
    <glyph glyph-name="dotaccent" unicode="&#x2d9;" 
d="M155 592c-46 0 -83 37 -83 83c0 45 37 82 83 82c45 0 82 -37 82 -82c0 -46 -37 -83 -82 -83z" />
    <glyph glyph-name="grave" unicode="`" 
d="M445 592c-14 -15 -34 -17 -60 1l-104 74c-12 9 -22 16 -27 21c-16 16 1 44 26 69c26 26 53 41 68 26c5 -5 13 -16 21 -27l75 -104c18 -26 16 -44 1 -60z" />
    </font>
</defs>
</svg>
