<svg xmlns="http://www.w3.org/2000/svg" width="32.457" height="32.457" viewBox="0 0 32.457 32.457"><defs><style>.a{fill:#e71c25;}.b{fill:#fff;}</style></defs><path class="a" d="M32.457,16.228A16.228,16.228,0,1,1,16.228,0,16.228,16.228,0,0,1,32.457,16.228"/><path class="b" d="M15.048,11.193a1.387,1.387,0,0,0-2.1,0c-.49.486-.98.972-1.462,1.466a.289.289,0,0,1-.4.074c-.317-.173-.655-.313-.96-.5A15.21,15.21,0,0,1,6.46,8.895a8.684,8.684,0,0,1-1.314-2.1A.3.3,0,0,1,5.22,6.4c.49-.474.968-.96,1.45-1.446a1.392,1.392,0,0,0,0-2.146c-.383-.387-.766-.766-1.149-1.153S4.73.864,4.331.472a1.4,1.4,0,0,0-2.1,0C1.74.962,1.267,1.461.764,1.938A2.386,2.386,0,0,0,.014,3.549,6.824,6.824,0,0,0,.541,6.486a17.846,17.846,0,0,0,3.167,5.276A19.6,19.6,0,0,0,10.2,16.84a9.391,9.391,0,0,0,3.6,1.046,2.636,2.636,0,0,0,2.261-.861c.42-.47.894-.9,1.339-1.347a1.4,1.4,0,0,0,.008-2.133q-1.174-1.18-2.356-2.352" transform="translate(6.242 8.322)"/><path class="b" d="M4.657,5.826l1.585-.258a6.654,6.654,0,0,0-1.98-3.646A7.179,7.179,0,0,0,.224,0L0,1.52A5.573,5.573,0,0,1,3.127,3.007,5.137,5.137,0,0,1,4.657,5.826" transform="translate(16.228 10.403)"/><path class="b" d="M6.488,3.212A10.85,10.85,0,0,0,.209,0L0,1.532A9.41,9.41,0,0,1,5.425,4.306a9.82,9.82,0,0,1,2.66,5.264l1.485-.26a11.418,11.418,0,0,0-3.083-6.1" transform="translate(16.228 6.242)"/></svg>