<svg id="callus" xmlns="http://www.w3.org/2000/svg" xmlns:xlink="http://www.w3.org/1999/xlink" width="29.773" height="29.705" viewBox="0 0 29.773 29.705">
  <defs>
    <clipPath id="clip-path">
      <path id="Clip_2" data-name="Clip 2" d="M0,0H29.773V29.7H0Z" fill="none"/>
    </clipPath>
    <clipPath id="clip-path-2">
      <path id="Clip_5" data-name="Clip 5" d="M0,0H14.54V14.852H0Z" fill="none"/>
    </clipPath>
  </defs>
  <g id="Group_3" data-name="Group 3" transform="translate(0 0.002)">
    <path id="Clip_2-2" data-name="Clip 2" d="M0,0H29.773V29.7H0Z" transform="translate(0 0)" fill="none"/>
    <g id="Group_3-2" data-name="Group 3" transform="translate(0 0)" clip-path="url(#clip-path)">
      <path id="Fill_1" data-name="Fill 1" d="M20.937,29.7a9.5,9.5,0,0,1-6.754-2.791l-4.144-4.134a.581.581,0,0,1,.823-.82l4.144,4.134a8.408,8.408,0,0,0,11.045.718l-7.209-7.191-.586.584a.583.583,0,0,1-.822,0L9.515,12.3a.58.58,0,0,1,0-.82l2.464-2.457a2.152,2.152,0,0,0,0-3.046l-4.2-4.191a2.165,2.165,0,0,0-3.054,0L3.669,2.842,8.135,7.3a.581.581,0,0,1-.822.82L2.9,3.712a8.371,8.371,0,0,0,.72,11.017L7.7,18.805a.581.581,0,0,1-.822.821L2.793,15.55a9.513,9.513,0,0,1,0-13.475L3.9.969a3.333,3.333,0,0,1,4.7,0l4.2,4.191a3.313,3.313,0,0,1,0,4.688l-2.052,2.047,7.1,7.078.586-.584L19.9,16.925a3.328,3.328,0,0,1,4.7,0l4.2,4.194a3.309,3.309,0,0,1,0,4.687l-1.108,1.106A9.5,9.5,0,0,1,20.937,29.7Zm1.309-12.589a2.15,2.15,0,0,0-1.527.631L19.664,18.8l7.258,7.24,1.055-1.052a2.15,2.15,0,0,0,0-3.046l-4.205-4.195A2.145,2.145,0,0,0,22.246,17.115Z" transform="translate(0 0)" fill="#ed1b24"/>
    </g>
  </g>
  <g id="Group_6" data-name="Group 6" transform="translate(15.233 0)">
    <path id="Clip_5-2" data-name="Clip 5" d="M0,0H14.54V14.852H0Z" transform="translate(0 0)" fill="none"/>
    <g id="Group_6-2" data-name="Group 6" transform="translate(0 0)" clip-path="url(#clip-path-2)">
      <path id="Fill_4" data-name="Fill 4" d="M11.632,0H2.908A2.908,2.908,0,0,0,0,2.9V9.513a2.908,2.908,0,0,0,2.908,2.9H5.114l1.7,2.212a.581.581,0,0,0,.461.227h0a.581.581,0,0,0,.461-.228l1.689-2.21h2.2a2.908,2.908,0,0,0,2.908-2.9V2.9A2.908,2.908,0,0,0,11.632,0" transform="translate(0 0)" fill="#ed1b24"/>
    </g>
  </g>
  <path id="Fill_7" data-name="Fill 7" d="M.546,7.161a.387.387,0,0,1-.32-.141,1.146,1.146,0,0,1-.055-.925c.089-.376.188-.766.282-1.143.122-.485.238-.944.328-1.344.055-.226.063-.337.028-.381A.071.071,0,0,0,.749,3.2a1.388,1.388,0,0,0-.589.352L0,3.213A3.309,3.309,0,0,1,1.873,2.167a.3.3,0,0,1,.256.1c.131.166.118.541-.043,1.218-.08.331-.181.733-.278,1.121s-.2.79-.278,1.121c-.059.213-.071.346-.033.4a.052.052,0,0,0,.044.021,1.573,1.573,0,0,0,.7-.5l.182.342A2.862,2.862,0,0,1,.546,7.161ZM1.808,1.483A.616.616,0,0,1,1.156.822.83.83,0,0,1,1.99,0,.589.589,0,0,1,2.6.651.816.816,0,0,1,1.808,1.483Z" transform="translate(21.225 2.337)" fill="#fff"/>
</svg>
