<svg xmlns="http://www.w3.org/2000/svg" xmlns:xlink="http://www.w3.org/1999/xlink" width="40.617" height="26.402" viewBox="0 0 40.617 26.402">
  <defs>
    <clipPath id="clip-path">
      <path id="Clip_10" data-name="Clip 10" d="M0,0H28.362V25.979H0Z" fill="none"/>
    </clipPath>
  </defs>
  <g id="LiveChatIcon" transform="translate(-25.825 -254.6)">
    <path id="Fill_1" data-name="Fill 1" d="M0,7.218C0,3.221,3.937,0,8.8,0s8.8,3.221,8.8,7.218-3.937,7.1-8.8,7.1a8.85,8.85,0,0,1-1.253-.09,9.841,9.841,0,0,1-3.7,1.879,5.454,5.454,0,0,0,1.282-2.326C2.088,12.615,0,10.14,0,7.218" transform="translate(47.76 263.809)" fill="#fff"/>
    <path id="Fill_3" data-name="Fill 3" d="M4.905,18.278a.973.973,0,0,1-.741-.32,1.092,1.092,0,0,1-.318-.768,1.079,1.079,0,0,1,.318-.768,3.562,3.562,0,0,0,.672-.978A8.071,8.071,0,0,1,0,8.3C0,3.725,4.434,0,9.884,0s9.884,3.725,9.884,8.3-4.341,8.184-9.884,8.184c-.314,0-.633-.015-.947-.046a12.465,12.465,0,0,1-2.4,1.357A4.6,4.6,0,0,1,4.905,18.278ZM9.884,2.171c-4.252,0-7.712,2.751-7.712,6.132,0,2.376,1.7,4.5,4.432,5.546a1.081,1.081,0,0,1,.7,1.084c.235-.155.452-.311.661-.476a1.085,1.085,0,0,1,.825-.221,7.778,7.778,0,0,0,1.1.078A8.858,8.858,0,0,0,15.426,12.5,5.377,5.377,0,0,0,17.6,8.3C17.6,4.922,14.136,2.171,9.884,2.171Z" transform="translate(46.674 262.723)" fill="#fff"/>
    <path id="Fill_5" data-name="Fill 5" d="M3.854,16.106l-.007,0a5.4,5.4,0,0,0,1.282-2.326,8.667,8.667,0,0,1-3.7-2.621A6.278,6.278,0,0,1,0,7.217,6.589,6.589,0,0,1,2.576,2.11,9.8,9.8,0,0,1,8.8,0,9.8,9.8,0,0,1,15.02,2.11,6.589,6.589,0,0,1,17.6,7.217a6.441,6.441,0,0,1-2.576,5.048A9.947,9.947,0,0,1,8.8,14.315a8.939,8.939,0,0,1-1.253-.089A10.085,10.085,0,0,1,3.854,16.106ZM8.8,1.086c-4.252,0-7.712,2.75-7.712,6.131,0,2.376,1.7,4.5,4.431,5.547a1.08,1.08,0,0,1,.7,1.083c.22-.144.443-.3.66-.475a1.087,1.087,0,0,1,.671-.233,1.121,1.121,0,0,1,.154.011,7.775,7.775,0,0,0,1.1.079,8.859,8.859,0,0,0,5.543-1.812,5.379,5.379,0,0,0,2.169-4.2C16.51,3.836,13.05,1.086,8.8,1.086Z" transform="translate(47.76 263.809)" fill="#ed1c24"/>
    <path id="Fill_7" data-name="Fill 7" d="M12.824,20.906a13.865,13.865,0,0,0,1.939-.119,13.515,13.515,0,0,0,5.1,2.475A7.968,7.968,0,0,1,18.073,20.1c4.473-1.64,7.575-5.308,7.575-9.573C25.648,4.712,19.892,0,12.824,0S0,4.712,0,10.528,5.756,20.906,12.824,20.906" transform="translate(27.182 255.957)" fill="#fff"/>
    <g id="Group_11" data-name="Group 11" transform="translate(25.825 254.6)">
      <path id="Clip_10-2" data-name="Clip 10" d="M0,0H28.362V25.979H0Z" fill="none"/>
      <g id="Group_11-2" data-name="Group 11" clip-path="url(#clip-path)">
        <path id="Fill_9" data-name="Fill 9" d="M21.232,25.979a6.8,6.8,0,0,1-2.189-.629,17.676,17.676,0,0,1-3.288-1.8c-.473.045-.988.067-1.574.067a15.812,15.812,0,0,1-9.913-3.308A10.76,10.76,0,0,1,0,11.885C0,5.331,6.362,0,14.181,0S28.362,5.331,28.362,11.885c0,4.266-2.752,8.217-7.183,10.311a5.783,5.783,0,0,0,1.016,1.48,1.36,1.36,0,0,1,.239,1.55,1.38,1.38,0,0,1-.9.716A1.174,1.174,0,0,1,21.232,25.979ZM16.12,20.787a1.361,1.361,0,0,1,.81.268c.38.283.785.554,1.2.8a1.357,1.357,0,0,1,.829-1.676c4.061-1.489,6.685-4.747,6.685-8.3,0-5.056-5.144-9.17-11.467-9.17S2.715,6.828,2.715,11.885A8.1,8.1,0,0,0,5.969,18.2a13.1,13.1,0,0,0,8.212,2.709,12.4,12.4,0,0,0,1.747-.106A1.3,1.3,0,0,1,16.12,20.787Z" transform="translate(0 0)" fill="#fff"/>
      </g>
    </g>
    <path id="Fill_12" data-name="Fill 12" d="M12.526,3.579A1.79,1.79,0,1,1,14.315,1.79,1.792,1.792,0,0,1,12.526,3.579Zm-5.368,0A1.79,1.79,0,1,1,8.947,1.79,1.791,1.791,0,0,1,7.158,3.579Zm-5.368,0A1.79,1.79,0,1,1,3.579,1.79,1.791,1.791,0,0,1,1.789,3.579Z" transform="translate(32.848 264.605)" fill="#ed1c24"/>
    <path id="Fill_14" data-name="Fill 14" d="M19.845,23.266a14,14,0,0,1-5.082-2.479,13.77,13.77,0,0,1-1.939.119,15.527,15.527,0,0,1-4.985-.8,13.239,13.239,0,0,1-4.077-2.2A9.428,9.428,0,0,1,0,10.528C0,4.723,5.753,0,12.824,0S25.648,4.723,25.648,10.528a9.143,9.143,0,0,1-2.11,5.771,12.488,12.488,0,0,1-5.465,3.8,7.906,7.906,0,0,0,1.789,3.162S19.855,23.266,19.845,23.266ZM14.763,19.7a1.081,1.081,0,0,1,.648.215A15.151,15.151,0,0,0,17.272,21.1c-.087-.227-.166-.452-.234-.67a1.084,1.084,0,0,1,.661-1.347c4.169-1.529,6.863-4.886,6.863-8.553,0-5.206-5.266-9.442-11.738-9.442S1.086,5.322,1.086,10.528a8.367,8.367,0,0,0,3.356,6.524,13.365,13.365,0,0,0,8.382,2.769,12.713,12.713,0,0,0,1.785-.109A1.122,1.122,0,0,1,14.763,19.7Z" transform="translate(27.182 255.957)" fill="#ed1c24"/>
  </g>
</svg>
