<svg xmlns="http://www.w3.org/2000/svg" width="45" height="45" viewBox="0 0 45 45">
  <g id="coupon" transform="translate(-0.001)">
    <path id="Subtraction_2" data-name="Subtraction 2" d="M12.233,20.039H0V0H35.966l1.3,2.451V3.838l-9.471.717L12.233,20.039h0ZM37.265.052h0L36.344,0h.921V.052Z" transform="translate(1.144 1.494)" fill="#fff" opacity="0.4"/>
    <path id="XMLID_1468_" d="M44.151,6.839l.592-.592A.879.879,0,0,0,43.5,5l-.592.592L42.316,5a.879.879,0,0,0-.621-.257h-.967L36.238.257A.879.879,0,0,0,35.617,0H3.166A3.169,3.169,0,0,0,0,3.165V19.636A3.169,3.169,0,0,0,3.166,22.8h7.657L5.674,27.95a3.165,3.165,0,0,0,0,4.476L17.321,44.073a3.165,3.165,0,0,0,4.476,0L30.52,35.35a.879.879,0,0,0-1.243-1.243L20.554,42.83a1.407,1.407,0,0,1-1.99,0L6.917,31.184a1.407,1.407,0,0,1,0-1.99L29.606,6.5H41.33l.335.335L39.633,8.872a2.638,2.638,0,1,0,1.243,1.243l2.032-2.032.335.335V20.141L34.87,28.514a.879.879,0,0,0,1.243,1.243l8.63-8.63A.879.879,0,0,0,45,20.506V8.053a.879.879,0,0,0-.257-.621ZM15.784,15.77a.879.879,0,1,1,.879-.879A.88.88,0,0,1,15.784,15.77ZM29.242,4.747A.879.879,0,0,0,28.62,5L18.4,15.225a2.643,2.643,0,1,0-2.281,2.281l-3.537,3.537H3.166a1.409,1.409,0,0,1-1.407-1.407V3.165A1.409,1.409,0,0,1,3.166,1.758H35.253l2.989,2.989ZM38.5,12.129a.879.879,0,1,1,.533-1.576.791.791,0,0,0,.164.164.877.877,0,0,1-.7,1.412Z" fill="#fff"/>
    <path id="XMLID_1527_" d="M271.881,226a.879.879,0,0,0,.621-.257l1.989-1.989a.879.879,0,0,0-1.243-1.243l-1.367,1.367-4.35-4.35a.879.879,0,1,0-1.243,1.243l4.972,4.972A.879.879,0,0,0,271.881,226Z" transform="translate(-242.648 -199.996)" fill="#fff"/>
    <path id="XMLID_1528_" d="M325.153,153.785a.879.879,0,0,0-1.243,0l-1.119,1.119-1.243-1.243,1.119-1.119a.879.879,0,0,0-1.243-1.243l-1.119,1.119-1.243-1.243,1.119-1.119a.879.879,0,0,0-1.243-1.243l-1.74,1.74a.879.879,0,0,0,0,1.243l4.972,4.972a.879.879,0,0,0,1.243,0l1.74-1.74A.879.879,0,0,0,325.153,153.785Z" transform="translate(-289.084 -135.5)" fill="#fff"/>
    <path id="XMLID_1531_" d="M226.429,270.953a.879.879,0,1,0,.8-1.566l-6.588-3.356a.879.879,0,0,0-1.182,1.182l3.356,6.588a.879.879,0,0,0,1.566-.8l-.269-.529,1.79-1.79Zm-3.158-.126-1.02-2,2,1.02Z" transform="translate(-200.081 -242.562)" fill="#fff"/>
    <path id="XMLID_1532_" d="M157.206,320.319a.879.879,0,1,0,1.243,1.243l1.243-1.243a2.636,2.636,0,0,0-3.571-3.873.876.876,0,0,0-.093.08l-.065.065a.879.879,0,0,1-1.243-1.243l1.243-1.243a.879.879,0,0,0-1.243-1.243l-1.243,1.243a2.637,2.637,0,0,0,3.727,3.731l0,0a.879.879,0,0,1,1.243,1.243Z" transform="translate(-139.284 -285.13)" fill="#fff"/>
    <path id="XMLID_1533_" d="M98.9,63.377a.879.879,0,0,0-1.2.333L92.035,73.752a.879.879,0,1,0,1.531.864l5.669-10.042A.879.879,0,0,0,98.9,63.377Z" transform="translate(-83.841 -57.704)" fill="#fff"/>
    <path id="XMLID_1536_" d="M70.443,62.631a2.637,2.637,0,1,0-2.637,2.637A2.64,2.64,0,0,0,70.443,62.631Zm-3.516,0a.879.879,0,1,1,.879.879A.88.88,0,0,1,66.927,62.631Z" transform="translate(-59.44 -54.721)" fill="#fff"/>
    <path id="XMLID_1537_" d="M362.87,353.319a.879.879,0,1,0,.621.258A.884.884,0,0,0,362.87,353.319Z" transform="translate(-330.175 -322.266)" fill="#fff"/>
  </g>
</svg>
