<svg xmlns="http://www.w3.org/2000/svg" xmlns:xlink="http://www.w3.org/1999/xlink" width="32.457" height="32.457" viewBox="0 0 32.457 32.457"><defs><style>.a{fill:none;}.b{clip-path:url(#a);}.c{fill:#e71c25;}.d{fill:#fff;}</style><clipPath id="a"><path class="a" d="M0,0H32.457V32.457H0Z"/></clipPath></defs><g transform="translate(0)"><path class="a" d="M0,0H32.457V32.457H0Z"/><g class="b"><path class="c" d="M32.457,16.228A16.228,16.228,0,1,1,16.228,0,16.228,16.228,0,0,1,32.457,16.228" transform="translate(0 0)"/></g><path class="d" d="M21.166,12.167l-9,9a1.863,1.863,0,0,1-2.627,0l-9-9a1.863,1.863,0,0,1,0-2.627l9-9a1.863,1.863,0,0,1,2.627,0l9,9a1.863,1.863,0,0,1,0,2.627" transform="translate(5.375 5.375)"/><path class="c" d="M7.778,3.537l-2.4,2.4L4.241,4.807,5.277,3.771H1.6V8.579H0V2.971a.8.8,0,0,1,.8-.8H5.277L4.241,1.133,5.375,0l2.4,2.4a.8.8,0,0,1,0,1.133Z" transform="translate(12.222 11.939)"/></g></svg>