<?xml version="1.0" encoding="UTF-8"?>
<svg width="274px" height="277px" viewBox="0 0 274 277" version="1.1" xmlns="http://www.w3.org/2000/svg" xmlns:xlink="http://www.w3.org/1999/xlink">
    <!-- Generator: Sketch 58 (84663) - https://sketch.com -->
    <title>help-large</title>
    <desc>Created with Sketch.</desc>
    <defs>
        <polygon id="path-1" points="0 0.330794698 333.71667 0.330794698 333.71667 277 0 277"></polygon>
    </defs>
    <g id="Page-1" stroke="none" stroke-width="1" fill="none" fill-rule="evenodd">
        <g id="Contact-info-rqst-Copy-51" transform="translate(-476.000000, -77.000000)">
            <g id="help-large" transform="translate(476.000000, 77.000000)">
                <g id="Group-3">
                    <mask id="mask-2" fill="white">
                        <use xlink:href="#path-1"></use>
                    </mask>
                    <g id="Clip-2"></g>
                    <path d="M192.230231,237.620061 C198.438821,237.787422 203.77806,239.993859 207.779597,244.818304 C209.085326,246.392525 210.106373,246.382961 211.788618,245.680727 C228.713098,238.617739 243.464538,228.422363 255.531734,214.563483 C263.095469,205.876991 269.239787,196.725333 273.965341,187.119561 L274,82.8377686 C272.005975,78.795367 269.883214,75.0424109 267.370027,71.2069316 C244.660068,36.549484 212.538927,17.9303705 171.279384,15.5562312 C159.515237,14.8792719 147.86265,16.3237022 136.463115,19.4591646 C106.066054,27.8203977 82.4843611,45.4787207 65.7102145,72.2018773 C56.0085688,87.6582041 50.3642409,104.589359 48.5207786,122.793485 C47.5065342,132.809887 47.739858,142.779155 49.2044242,152.733394 C50.6363387,162.464599 53.2328316,171.868253 57.0459415,180.924207 C57.673467,182.414747 57.4112328,183.018613 55.8044955,183.370414 C50.6655892,184.497199 45.5168193,184.826115 40.2755363,184.250939 C15.2925403,181.510313 -2.81828656,158.47252 0.362536253,133.41512 C2.89746701,113.445845 17.7441411,97.6524051 37.318854,94.1651424 C38.6725403,93.9240055 39.3504039,93.3013533 39.7939232,92.0130129 C51.3475342,58.4526356 72.7738723,33.2213853 103.709687,16.1775173 C118.682546,7.92831381 134.78019,3.04102281 151.775416,1.21473551 C155.091608,0.858495068 158.420724,0.622139951 161.744058,0.330794698 L171.947724,0.330794698 C175.271738,0.622481504 178.600854,0.866009248 181.918746,1.2140524 C196.825962,2.77802651 211.094428,6.75131998 224.524493,13.3928305 C244.898762,23.468708 261.356553,36.970158 274,54 L273.970845,215.98587 C266.126123,226.472172 256.750862,235.749559 245.833149,243.800816 C235.995115,251.055756 225.32242,256.763459 213.905538,261.079331 C212.884491,261.464945 212.01854,261.865929 211.575361,263.070589 C207.904422,273.042589 199.290487,278.203123 188.85996,276.761766 C180.219836,275.567012 173.538475,268.77795 172.039216,259.669739 C170.779744,252.018938 175.370033,243.592809 182.825172,239.86885 C183.365626,239.599023 183.90506,239.326805 184.444834,239.055611 C184.444834,239.055611 186.292718,238.021387 190.610229,237.618695 C191.363599,237.618695 191.797255,237.608448 192.230231,237.620061 Z" id="Fill-1" fill="#ECECEC" mask="url(#mask-2)"></path>
                </g>
                <ellipse id="Oval" fill="#F4F4F4" cx="170.5" cy="165" rx="65.5" ry="37"></ellipse>
                <path d="M207.779756,161.116137 C202.749031,166.418094 196.794287,170.376291 189.990218,173.058084 C184.113885,175.37447 178.0226,176.579475 171.673781,176.481809 C157.651964,176.300283 145.691443,171.241146 135.875022,161.252871 C131.815969,157.123252 133.28784,150.423314 138.648089,148.609407 C141.789547,147.546186 144.634602,148.272962 146.988921,150.703179 C150.357496,154.180115 154.225595,156.995611 158.777413,158.679857 C172.653564,163.81376 185.088598,161.377143 195.94361,151.30905 C197.626038,149.748403 199.283119,148.312028 201.735112,148.212678 C205.1483,148.073924 207.845323,149.547007 209.212085,152.366545 C210.592366,155.214709 210.058707,158.714209 207.779756,161.116137 M71.7037827,130.314744 C72.9759124,154.411484 76.1041889,164.752371 85.981107,178.076471 L69,228 L122.781617,214.063968 C135.822974,220.814423 150.640717,224.629151 166.35206,224.629151 C218.624628,224.629151 261,182.403107 261,130.314744 C261,78.2260438 218.624628,36 166.35206,36 C114.079154,36 68.9577534,78.2981151 71.7037827,130.314744 Z" id="Fill-4" fill="#EBEBEB"></path>
            </g>
        </g>
    </g>
</svg>