<?xml version="1.0"?>
<svg xmlns="http://www.w3.org/2000/svg" id="help" enable-background="new 0 0 300 300" height="512px" viewBox="0 0 300 300" width="512px" class=""><g transform="matrix(1.1044 0 0 1.1044 -15.6602 -15.6602)"><g><path d="m254.912 159.96c-1.562-1.562-4.094-1.562-5.656 0l-3.067 3.068-3.067-3.068c-1.562-1.562-4.094-1.562-5.656 0-1.562 1.561-1.562 4.094 0 5.656l3.068 3.068-3.068 3.068c-1.562 1.562-1.562 4.096 0 5.656.781.781 1.805 1.172 2.828 1.172s2.047-.391 2.828-1.172l3.067-3.068 3.067 3.068c.781.781 1.805 1.172 2.828 1.172s2.047-.391 2.828-1.172c1.562-1.561 1.562-4.094 0-5.656l-3.068-3.068 3.068-3.068c1.563-1.562 1.563-4.095 0-5.656z" data-original="#000000" class="active-path" data-old_color="#000000" fill="#ED1C24"/><path d="m42.139 240.052c-3.096-1.181-6.563.372-7.744 3.469-1.18 3.096.372 6.563 3.469 7.744 3.096 1.18 6.563-.372 7.744-3.469 1.181-3.096-.372-6.563-3.469-7.744z" data-original="#000000" class="active-path" data-old_color="#000000" fill="#ED1C24"/><path d="m186 49.313c2.209 0 4-1.791 4-4v-16.97c0-2.209-1.791-4-4-4s-4 1.791-4 4v16.971c0 2.208 1.791 3.999 4 3.999z" data-original="#000000" class="active-path" data-old_color="#000000" fill="#ED1C24"/><path d="m197.314 54.972c1.023 0 2.047-.391 2.828-1.172l11.312-11.314c1.562-1.562 1.562-4.096 0-5.656-1.562-1.562-4.094-1.562-5.656 0l-11.312 11.314c-1.562 1.562-1.562 4.096 0 5.656.782.781 1.805 1.172 2.828 1.172z" data-original="#000000" class="active-path" data-old_color="#000000" fill="#ED1C24"/><path d="m171.857 53.8c.781.781 1.805 1.172 2.828 1.172s2.047-.391 2.828-1.172c1.562-1.561 1.562-4.094 0-5.656l-11.312-11.314c-1.562-1.562-4.094-1.562-5.656 0-1.562 1.561-1.562 4.094 0 5.656z" data-original="#000000" class="active-path" data-old_color="#000000" fill="#ED1C24"/><path d="m255.912 59.657h-139.824c-5.562 0-10.088 4.525-10.088 10.088v43.824c0 5.562 4.525 10.088 10.088 10.088h53.912v15.057l-3.307-1.389c-6.713-2.822-14.289-3.359-21.334-1.523-6.455 1.686-12.176 5.211-16.475 10.123l-31.377 34.012-27.1 1.641c-2.205.133-3.885 2.029-3.75 4.234.131 2.205 2.02 3.891 4.234 3.75l28.705-1.736c1.031-.062 1.998-.521 2.697-1.279l32.539-35.273c3.309-3.779 7.646-6.451 12.545-7.729 5.354-1.4 11.113-.988 16.217 1.156l20.078 8.436 6.418 9.906-17.141 34.621-.355-.158c-8.52-3.824-13.283-13.145-11.08-21.68.916-3.549 2.756-6.113 5.625-7.844 1.891-1.143 2.5-3.6 1.359-5.492-1.145-1.893-3.602-2.498-5.492-1.359-4.684 2.826-7.793 7.098-9.238 12.695-1.902 7.37-.225 15.111 4.013 21.295-.52 9.767-7.753 17.702-16.978 18.261l-22.215 1.346c-2.205.133-3.885 2.029-3.75 4.234.129 2.123 1.891 3.758 3.988 3.758.082 0 .164-.002.246-.008l22.215-1.346c10.345-.626 19.012-7.548 22.693-17.09.373 4.657 2.74 8.665 6.19 11.332-.259.256-.552.464-.796.739-2.832 3.199-4.25 7.311-3.992 11.576.273 4.5 2.422 8.419 5.602 11.142-2.806 2.744-4.494 6.6-4.239 10.815.13 2.153.787 4.135 1.771 5.905l-33.683 2.039c-5.582.34-11.236.297-16.807-.109l-16.15-1.189c-3.523-.266-7.092-.289-10.623-.07l-16.428.998-21.244 2.227c-2.197.23-3.793 2.199-3.562 4.395.215 2.057 1.951 3.584 3.975 3.584.139 0 .279-.008.42-.021l21.07-2.213 16.254-.984c3.17-.189 6.387-.168 9.551.062l16.15 1.189c5.92.438 11.936.475 17.879.117l34.68-2.099v7.948c0 2.209 1.791 4 4 4h24c2.209 0 4-1.791 4-4v-9.937c7.45-.725 13.081-7.206 12.625-14.739-.194-3.199-1.5-6.131-3.617-8.476.832-.632 1.607-1.351 2.316-2.151 2.832-3.199 4.25-7.311 3.992-11.576-.196-3.235-1.346-6.26-3.282-8.771 2.185-.917 4.178-2.264 5.796-4.09 2.834-3.199 4.252-7.311 3.992-11.576-.258-4.266-2.162-8.176-5.361-11.01-.097-.086-.211-.142-.309-.225.409-.375.846-.712 1.219-1.133 2.791-3.148 4.188-7.197 3.932-11.398l-.051-.826c-.254-4.199-2.129-8.049-5.277-10.838-3.15-2.793-7.209-4.193-11.396-3.932l-4.577.276v-37.599h53.912c5.562 0 10.088-4.525 10.088-10.088v-43.825c0-5.562-4.525-10.088-10.088-10.088zm-65.932 88.375c-.436-.781-1.119-1.395-1.945-1.74l-10.035-4.216v-18.418h16v30.772l-2.98-4.532zm10.916 69.726c.153-.008.304-.013.455-.013 4.191 0 7.723 3.277 7.98 7.518.266 4.402-3.1 8.201-7.502 8.469l-5.561.337-14.447.874c-2.098.129-4.176-.583-5.771-1.998-1.6-1.418-2.553-3.373-2.682-5.506-.266-4.402 3.1-8.201 7.502-8.469zm-22.896 49.899v-4.433l3.557-.215h.011l12.432-.753v5.401zm23.014-13.84-15.255.924s0 0-.001 0l-4.677.283c-3.224.207-6.147-2.321-6.348-5.629-.199-3.303 2.324-6.15 5.627-6.352l1.914-.116c.017-.001.033 0 .049-.001l14.431-.874 3.536-.214c.123-.008.248-.012.371-.012 1.465 0 2.863.529 3.969 1.51 1.201 1.062 1.914 2.529 2.012 4.129.198 3.304-2.326 6.151-5.628 6.352zm12.828-47.205c-1.418 1.6-3.373 2.553-5.506 2.682l-7.946.481c-.004 0-.008-.001-.011 0l-19.992 1.211c-2.115.111-4.188-.58-5.787-1.998-.859-.761-1.514-1.685-1.973-2.701l.561.252c.531.24 1.088.352 1.637.352 1.477 0 2.891-.82 3.586-2.225l4.895-9.886 24.066-1.458c4.421-.255 8.199 3.1 8.467 7.504.128 2.132-.581 4.187-1.997 5.786zm-6.78-37.648c2.08-.131 4.059.561 5.607 1.936 1.549 1.373 2.473 3.268 2.598 5.336l.051.826c.125 2.066-.562 4.059-1.936 5.607s-3.268 2.473-5.334 2.598l-1.162.07c-.001 0-.001 0-.002 0l-19.49 1.18 8.352-16.868zm50.938-55.395c0 1.15-.938 2.088-2.088 2.088h-139.824c-1.15 0-2.088-.938-2.088-2.088v-43.824c0-1.15.938-2.088 2.088-2.088h139.824c1.15 0 2.088.938 2.088 2.088z" data-original="#000000" class="active-path" data-old_color="#000000" fill="#ED1C24"/><path d="m210 99.657h-8v-20c0-2.209-1.791-4-4-4s-4 1.791-4 4v24c0 2.209 1.791 4 4 4h12c2.209 0 4-1.791 4-4s-1.791-4-4-4z" data-original="#000000" class="active-path" data-old_color="#000000" fill="#ED1C24"/><path d="m178 83.657c2.209 0 4-1.791 4-4s-1.791-4-4-4h-8c-2.209 0-4 1.791-4 4v24c0 2.209 1.791 4 4 4h8c2.209 0 4-1.791 4-4s-1.791-4-4-4h-4v-4h4c2.209 0 4-1.791 4-4s-1.791-4-4-4h-4v-4z" data-original="#000000" class="active-path" data-old_color="#000000" fill="#ED1C24"/><path d="m150 75.657c-2.209 0-4 1.791-4 4v8h-8v-8c0-2.209-1.791-4-4-4s-4 1.791-4 4v24c0 2.209 1.791 4 4 4s4-1.791 4-4v-8h8v8c0 2.209 1.791 4 4 4s4-1.791 4-4v-24c0-2.209-1.791-4-4-4z" data-original="#000000" class="active-path" data-old_color="#000000" fill="#ED1C24"/><path d="m236 75.657h-10c-2.209 0-4 1.791-4 4v24c0 2.209 1.791 4 4 4s4-1.791 4-4v-8h6c5.514 0 10-4.486 10-10s-4.486-10-10-10zm0 12h-6v-4h6c1.104 0 2 .896 2 2s-.896 2-2 2z" data-original="#000000" class="active-path" data-old_color="#000000" fill="#ED1C24"/></g></g> </svg>
