<svg xmlns="http://www.w3.org/2000/svg" width="46.873" height="50" viewBox="0 0 46.873 50"><defs><style>.a,.b{fill:#ed1b24;}.b{font-size:34px;font-family:Ooredoo-Heavy, Ooredoo;font-weight:800;letter-spacing:0.025em;}</style></defs><path class="a" d="M2.608,50a2.484,2.484,0,0,1-1.714-.66A2.644,2.644,0,0,1,.16,46.453l3.574-10a23.868,23.868,0,0,1,3.234-29.6A23.136,23.136,0,0,1,23.434,0a23.681,23.681,0,0,1,.017,47.36,23.481,23.481,0,0,1-10.445-2.475L3.833,49.719A2.739,2.739,0,0,1,2.608,50Zm10.4-10.74a2.589,2.589,0,0,1,1.339.381s.147.083.212.131A18.094,18.094,0,0,0,23.419,42.1a18.394,18.394,0,0,0,0-36.785,18.445,18.445,0,0,0-14.9,28.967c.064.1.21.3.212.3a2.663,2.663,0,0,1,.343,2.441L7.309,41.932l4.472-2.359A2.626,2.626,0,0,1,13.005,39.26Z"/><text class="b" transform="translate(15.623 34.042)"><tspan x="0" y="0">?</tspan></text></svg>