<svg xmlns="http://www.w3.org/2000/svg" width="350.716" height="148.68" viewBox="0 0 350.716 148.68">
  <g id="Group_33389" data-name="Group 33389" transform="translate(2523.096 -2442.987)">
    <g id="Group_33111" data-name="Group 33111" transform="translate(-2449.998 2469.227)">
      <circle id="Ellipse_388" data-name="Ellipse 388" cx="6.262" cy="6.262" r="6.262" transform="translate(0 0)" fill="#fff"/>
    </g>
    <g id="Group_33356" data-name="Group 33356" transform="translate(-2523.096 2444.76)">
      <g id="Group_33125" data-name="Group 33125" transform="translate(66.432 19.383)">
        <g id="Group_33112" data-name="Group 33112" transform="translate(4.942 4.942)">
          <path id="Path_28998" data-name="Path 28998" d="M-2338.3,2521.618a6.775,6.775,0,0,1-6.768-6.767,6.775,6.775,0,0,1,6.768-6.768,6.775,6.775,0,0,1,6.768,6.768A6.775,6.775,0,0,1-2338.3,2521.618Zm0-12.562a5.8,5.8,0,0,0-5.795,5.795,5.8,5.8,0,0,0,5.795,5.795,5.8,5.8,0,0,0,5.795-5.795A5.8,5.8,0,0,0-2338.3,2509.056Z" transform="translate(2345.07 -2508.083)" fill="#fff"/>
        </g>
        <g id="Group_33113" data-name="Group 33113" transform="translate(11.223)">
          <path id="Path_28999" data-name="Path 28999" d="M-2328.917,2499.11a.486.486,0,0,1-.487-.486v-2.38a.486.486,0,0,1,.487-.486.486.486,0,0,1,.486.486v2.38A.486.486,0,0,1-2328.917,2499.11Z" transform="translate(2329.403 -2495.757)" fill="#fff"/>
        </g>
        <g id="Group_33114" data-name="Group 33114" transform="translate(5.611 1.504)">
          <path id="Path_29000" data-name="Path 29000" d="M-2341.723,2502.542a.487.487,0,0,1-.422-.243l-1.19-2.061a.486.486,0,0,1,.178-.664.487.487,0,0,1,.664.178l1.19,2.061a.485.485,0,0,1-.178.664A.484.484,0,0,1-2341.723,2502.542Z" transform="translate(2343.4 -2499.508)" fill="#fff"/>
        </g>
        <g id="Group_33115" data-name="Group 33115" transform="translate(1.504 5.612)">
          <path id="Path_29001" data-name="Path 29001" d="M-2351.1,2511.917a.482.482,0,0,1-.242-.065l-2.061-1.19a.487.487,0,0,1-.178-.665.488.488,0,0,1,.664-.178l2.061,1.19a.487.487,0,0,1,.178.665A.487.487,0,0,1-2351.1,2511.917Z" transform="translate(2353.646 -2509.756)" fill="#fff"/>
        </g>
        <g id="Group_33116" data-name="Group 33116" transform="translate(0 11.223)">
          <path id="Path_29002" data-name="Path 29002" d="M-2354.53,2524.723h-2.38a.486.486,0,0,1-.486-.486.486.486,0,0,1,.486-.486h2.38a.486.486,0,0,1,.486.486A.486.486,0,0,1-2354.53,2524.723Z" transform="translate(2357.396 -2523.75)" fill="#fff"/>
        </g>
        <g id="Group_33117" data-name="Group 33117" transform="translate(1.504 15.645)">
          <path id="Path_29003" data-name="Path 29003" d="M-2353.159,2536.942a.486.486,0,0,1-.422-.243.486.486,0,0,1,.178-.664l2.061-1.19a.488.488,0,0,1,.664.178.487.487,0,0,1-.178.664l-2.061,1.19A.488.488,0,0,1-2353.159,2536.942Z" transform="translate(2353.646 -2534.78)" fill="#fff"/>
        </g>
        <g id="Group_33118" data-name="Group 33118" transform="translate(5.611 18.881)">
          <path id="Path_29004" data-name="Path 29004" d="M-2342.914,2545.886a.484.484,0,0,1-.243-.066.486.486,0,0,1-.178-.664l1.19-2.061a.487.487,0,0,1,.664-.178.486.486,0,0,1,.178.664l-1.19,2.061A.487.487,0,0,1-2342.914,2545.886Z" transform="translate(2343.4 -2542.853)" fill="#fff"/>
        </g>
        <g id="Group_33119" data-name="Group 33119" transform="translate(11.223 20.066)">
          <path id="Path_29005" data-name="Path 29005" d="M-2328.917,2549.159a.486.486,0,0,1-.487-.486v-2.379a.486.486,0,0,1,.487-.486.486.486,0,0,1,.486.486v2.379A.486.486,0,0,1-2328.917,2549.159Z" transform="translate(2329.403 -2545.807)" fill="#fff"/>
        </g>
        <g id="Group_33120" data-name="Group 33120" transform="translate(15.644 18.881)">
          <path id="Path_29006" data-name="Path 29006" d="M-2316.7,2545.886a.486.486,0,0,1-.421-.243l-1.19-2.061a.486.486,0,0,1,.178-.664.486.486,0,0,1,.664.178l1.19,2.061a.485.485,0,0,1-.177.664A.483.483,0,0,1-2316.7,2545.886Z" transform="translate(2318.375 -2542.853)" fill="#fff"/>
        </g>
        <g id="Group_33121" data-name="Group 33121" transform="translate(18.881 15.645)">
          <path id="Path_29007" data-name="Path 29007" d="M-2307.755,2536.942a.485.485,0,0,1-.242-.065l-2.061-1.19a.486.486,0,0,1-.178-.664.488.488,0,0,1,.664-.178l2.061,1.19a.486.486,0,0,1,.178.664A.486.486,0,0,1-2307.755,2536.942Z" transform="translate(2310.302 -2534.78)" fill="#fff"/>
        </g>
        <g id="Group_33122" data-name="Group 33122" transform="translate(20.066 11.223)">
          <path id="Path_29008" data-name="Path 29008" d="M-2304.48,2524.723h-2.38a.486.486,0,0,1-.486-.486.486.486,0,0,1,.486-.486h2.38a.486.486,0,0,1,.486.486A.486.486,0,0,1-2304.48,2524.723Z" transform="translate(2307.346 -2523.75)" fill="#fff"/>
        </g>
        <g id="Group_33123" data-name="Group 33123" transform="translate(18.881 5.612)">
          <path id="Path_29009" data-name="Path 29009" d="M-2309.815,2511.917a.486.486,0,0,1-.422-.243.486.486,0,0,1,.178-.665l2.061-1.19a.488.488,0,0,1,.664.178.486.486,0,0,1-.178.665l-2.061,1.19A.485.485,0,0,1-2309.815,2511.917Z" transform="translate(2310.302 -2509.756)" fill="#fff"/>
        </g>
        <g id="Group_33124" data-name="Group 33124" transform="translate(15.644 1.504)">
          <path id="Path_29010" data-name="Path 29010" d="M-2317.889,2502.542a.482.482,0,0,1-.242-.065.486.486,0,0,1-.178-.664l1.19-2.061a.487.487,0,0,1,.664-.178.486.486,0,0,1,.177.664l-1.19,2.061A.486.486,0,0,1-2317.889,2502.542Z" transform="translate(2318.375 -2499.508)" fill="#fff"/>
        </g>
      </g>
      <g id="Group_33128" data-name="Group 33128" transform="translate(286.304 24.493)">
        <g id="Group_33126" data-name="Group 33126">
          <path id="Path_29011" data-name="Path 29011" d="M-1803.886,2524.713a5.093,5.093,0,0,1-5.087-5.087,5.094,5.094,0,0,1,4.646-5.068,6.53,6.53,0,0,1,6.5-6.053,6.489,6.489,0,0,1,6.11,4.238,8.147,8.147,0,0,1,7.854,7.645h6.865a.486.486,0,0,1,.486.486.486.486,0,0,1-.486.486h-7.823v-.486a7.171,7.171,0,0,0-7.163-7.162l-.437.009-.108-.347a5.523,5.523,0,0,0-5.3-3.9,5.555,5.555,0,0,0-5.548,5.548v.414l-.46.074-.072,0a4.117,4.117,0,0,0-4.1,4.115,4.119,4.119,0,0,0,4.115,4.115.486.486,0,0,1,.486.486A.486.486,0,0,1-1803.886,2524.713Z" transform="translate(1808.973 -2508.504)" fill="#fff"/>
        </g>
        <g id="Group_33127" data-name="Group 33127" transform="translate(12.112 8.297)">
          <path id="Path_29012" data-name="Path 29012" d="M-1778.276,2533.973a.486.486,0,0,1-.486-.486,4.293,4.293,0,0,1,4.288-4.288,4.282,4.282,0,0,1,4.278,4.072.487.487,0,0,1-.462.51.488.488,0,0,1-.51-.461,3.309,3.309,0,0,0-3.306-3.148,3.319,3.319,0,0,0-3.315,3.315A.486.486,0,0,1-1778.276,2533.973Z" transform="translate(1778.762 -2529.199)" fill="#fff"/>
        </g>
      </g>
      <g id="Group_33141" data-name="Group 33141" transform="translate(296.885 92.707)">
        <g id="Group_33140" data-name="Group 33140">
          <g id="Group_33129" data-name="Group 33129" transform="translate(1.518 19.278)">
            <path id="Path_29013" data-name="Path 29013" d="M-1754.411,2730.163a143.51,143.51,0,0,1-23.992-2.464.486.486,0,0,1-.382-.572.486.486,0,0,1,.572-.382,142.467,142.467,0,0,0,23.8,2.445,146.188,146.188,0,0,0,23.8-2.446.486.486,0,0,1,.57.384.486.486,0,0,1-.384.57A147.237,147.237,0,0,1-1754.411,2730.163Z" transform="translate(1778.794 -2726.735)" fill="#fff"/>
          </g>
          <g id="Group_33130" data-name="Group 33130" transform="translate(41.183 19.73)">
            <path id="Path_29014" data-name="Path 29014" d="M-1679.373,2739.881a.483.483,0,0,1-.293-.1.487.487,0,0,1-.094-.682,37.988,37.988,0,0,0,5.512-10.885.487.487,0,0,1,.6-.337.486.486,0,0,1,.337.6,38.25,38.25,0,0,1-5.673,11.211A.485.485,0,0,1-1679.373,2739.881Z" transform="translate(1679.86 -2727.861)" fill="#fff"/>
          </g>
          <g id="Group_33131" data-name="Group 33131" transform="translate(1.519 19.279)">
            <path id="Path_29015" data-name="Path 29015" d="M-1771.231,2739.207a.486.486,0,0,1-.4-.208,135.088,135.088,0,0,1-7.1-11.547.486.486,0,0,1,.2-.658.486.486,0,0,1,.659.2,134.174,134.174,0,0,0,7.046,11.451.486.486,0,0,1-.12.677A.485.485,0,0,1-1771.231,2739.207Z" transform="translate(1778.793 -2726.736)" fill="#fff"/>
          </g>
          <g id="Group_33132" data-name="Group 33132" transform="translate(25.595 13.42)">
            <path id="Path_29016" data-name="Path 29016" d="M-1718.255,2721.409a.486.486,0,0,1-.486-.486v-8.314a.486.486,0,0,1,.486-.486.486.486,0,0,1,.486.486v8.314A.486.486,0,0,1-1718.255,2721.409Z" transform="translate(1718.741 -2712.122)" fill="#fff"/>
          </g>
          <g id="Group_33133" data-name="Group 33133" transform="translate(16.504 13.42)">
            <path id="Path_29017" data-name="Path 29017" d="M-1740.929,2720.888a.486.486,0,0,1-.486-.486v-7.793a.486.486,0,0,1,.486-.486.486.486,0,0,1,.486.486v7.793A.486.486,0,0,1-1740.929,2720.888Z" transform="translate(1741.415 -2712.122)" fill="#fff"/>
          </g>
          <g id="Group_33134" data-name="Group 33134" transform="translate(34.436 13.42)">
            <path id="Path_29018" data-name="Path 29018" d="M-1696.2,2720.888a.486.486,0,0,1-.486-.486v-7.793a.486.486,0,0,1,.486-.486.486.486,0,0,1,.486.486v7.793A.486.486,0,0,1-1696.2,2720.888Z" transform="translate(1696.687 -2712.122)" fill="#fff"/>
          </g>
          <g id="Group_33135" data-name="Group 33135" transform="translate(3.974)">
            <path id="Path_29019" data-name="Path 29019" d="M-1730.609,2693.042h-41.574a.487.487,0,0,1-.449-.3.485.485,0,0,1,.106-.53l3.671-3.671a.486.486,0,0,1,.344-.143h34.343v-9.262a.486.486,0,0,1,.486-.486.486.486,0,0,1,.486.486v9.749a.486.486,0,0,1-.486.486h-34.628l-2.7,2.7h40.4a.486.486,0,0,1,.486.486A.486.486,0,0,1-1730.609,2693.042Z" transform="translate(1772.67 -2678.649)" fill="#fff"/>
          </g>
          <g id="Group_33136" data-name="Group 33136" transform="translate(0 16.167)">
            <path id="Path_29020" data-name="Path 29020" d="M-1780.576,2723.059a.486.486,0,0,1-.437-.273l-1.519-3.111a.486.486,0,0,1,.224-.65.485.485,0,0,1,.65.223l1.519,3.111a.486.486,0,0,1-.224.65A.482.482,0,0,1-1780.576,2723.059Z" transform="translate(1782.581 -2718.974)" fill="#fff"/>
          </g>
          <g id="Group_33137" data-name="Group 33137" transform="translate(49.313 18.677)">
            <path id="Path_29021" data-name="Path 29021" d="M-1659.1,2726.808a.486.486,0,0,1-.476-.388.486.486,0,0,1,.378-.574l2.928-.6a.484.484,0,0,1,.574.378.486.486,0,0,1-.378.574l-2.928.6A.48.48,0,0,1-1659.1,2726.808Z" transform="translate(1659.581 -2725.234)" fill="#fff"/>
          </g>
          <g id="Group_33138" data-name="Group 33138" transform="translate(7.499 13.42)">
            <path id="Path_29022" data-name="Path 29022" d="M-1763.39,2719.952a.487.487,0,0,1-.486-.487v-6.857a.486.486,0,0,1,.486-.486.486.486,0,0,1,.486.486v6.857A.486.486,0,0,1-1763.39,2719.952Z" transform="translate(1763.876 -2712.122)" fill="#fff"/>
          </g>
          <g id="Group_33139" data-name="Group 33139" transform="translate(42.475 13.42)">
            <path id="Path_29023" data-name="Path 29023" d="M-1676.151,2719.952a.487.487,0,0,1-.486-.487v-6.857a.486.486,0,0,1,.486-.486.486.486,0,0,1,.486.486v6.857A.487.487,0,0,1-1676.151,2719.952Z" transform="translate(1676.637 -2712.122)" fill="#fff"/>
          </g>
        </g>
      </g>
      <g id="Group_33142" data-name="Group 33142" transform="translate(116.698 39.126)">
        <path id="Path_29024" data-name="Path 29024" d="M-2231.533,2598.985a.487.487,0,0,1-.486-.487v-53.011a.486.486,0,0,1,.486-.486.486.486,0,0,1,.486.486V2598.5A.486.486,0,0,1-2231.533,2598.985Z" transform="translate(2232.019 -2545.001)" fill="#fff"/>
      </g>
      <g id="Group_33143" data-name="Group 33143" transform="translate(134.273 39.126)">
        <path id="Path_29025" data-name="Path 29025" d="M-2187.7,2598.985a.487.487,0,0,1-.486-.487v-53.011a.486.486,0,0,1,.486-.486.486.486,0,0,1,.486.486V2598.5A.487.487,0,0,1-2187.7,2598.985Z" transform="translate(2188.182 -2545.001)" fill="#fff"/>
      </g>
      <g id="Group_33144" data-name="Group 33144" transform="translate(134.273 56.816)">
        <path id="Path_29026" data-name="Path 29026" d="M-2156.7,2600.775h-15.7a.486.486,0,0,1-.486-.486V2590.1H-2187.7a.487.487,0,0,1-.486-.486.487.487,0,0,1,.486-.486h15.3a.486.486,0,0,1,.486.486V2599.8h15.212a.486.486,0,0,1,.486.487A.486.486,0,0,1-2156.7,2600.775Z" transform="translate(2188.182 -2589.127)" fill="#fff"/>
      </g>
      <g id="Group_33145" data-name="Group 33145" transform="translate(108.089 31.337)">
        <path id="Path_29027" data-name="Path 29027" d="M-2218.213,2534.335H-2253a.486.486,0,0,1-.486-.486v-7.789a.486.486,0,0,1,.486-.486h34.792a.486.486,0,0,1,.487.486v7.789A.486.486,0,0,1-2218.213,2534.335Zm-34.306-.972h33.82v-6.816h-33.82Z" transform="translate(2253.491 -2525.574)" fill="#fff"/>
      </g>
      <g id="Group_33146" data-name="Group 33146" transform="translate(142.882 39.126)">
        <path id="Path_29028" data-name="Path 29028" d="M-2161.016,2558.262a.486.486,0,0,1-.486-.486v-11.8h-4.721a.486.486,0,0,1-.486-.486.486.486,0,0,1,.486-.486h5.208a.486.486,0,0,1,.486.486v12.288A.486.486,0,0,1-2161.016,2558.262Z" transform="translate(2166.709 -2545.001)" fill="#fff"/>
      </g>
      <g id="Group_33147" data-name="Group 33147" transform="translate(102.833 39.126)">
        <path id="Path_29029" data-name="Path 29029" d="M-2266.116,2558.262a.486.486,0,0,1-.486-.486v-12.288a.486.486,0,0,1,.486-.486h5.257a.486.486,0,0,1,.486.486.487.487,0,0,1-.486.486h-4.77v11.8A.486.486,0,0,1-2266.116,2558.262Z" transform="translate(2266.602 -2545.001)" fill="#fff"/>
      </g>
      <g id="Group_33148" data-name="Group 33148" transform="translate(116.698 24.396)">
        <path id="Path_29030" data-name="Path 29030" d="M-2213.958,2516.175a.486.486,0,0,1-.486-.486v-6.455h-16.6v6.455a.486.486,0,0,1-.486.486.486.486,0,0,1-.486-.486v-6.941a.486.486,0,0,1,.486-.486h17.575a.486.486,0,0,1,.486.486v6.941A.486.486,0,0,1-2213.958,2516.175Z" transform="translate(2232.019 -2508.261)" fill="#fff"/>
      </g>
      <g id="Group_33149" data-name="Group 33149" transform="translate(116.698 11.757)">
        <path id="Path_29031" data-name="Path 29031" d="M-2231.533,2486.625a.487.487,0,0,1-.19-.038.488.488,0,0,1-.3-.448v-8.917a.486.486,0,0,1,.486-.486h17.575a.486.486,0,0,1,.486.486v8.917a.487.487,0,0,1-.3.448.486.486,0,0,1-.528-.1l-1.642-1.584a3.562,3.562,0,0,0-2.584-1.005,3.565,3.565,0,0,0-2.529,1.138l-1.339,1.434a.5.5,0,0,1-.71,0l-1.34-1.434a3.564,3.564,0,0,0-2.529-1.138,3.568,3.568,0,0,0-2.584,1.005l-1.642,1.584A.487.487,0,0,1-2231.533,2486.625Zm4.468-3.7.122,0a4.524,4.524,0,0,1,3.214,1.445l.984,1.053.984-1.053a4.523,4.523,0,0,1,3.214-1.445,4.5,4.5,0,0,1,3.285,1.276l.818.789v-7.287h-16.6v7.287l.818-.789A4.525,4.525,0,0,1-2227.065,2482.927Z" transform="translate(2232.019 -2476.735)" fill="#fff"/>
      </g>
      <g id="Group_33150" data-name="Group 33150" transform="translate(134.273 51.414)">
        <path id="Path_29032" data-name="Path 29032" d="M-2172.4,2582.026a.487.487,0,0,1-.47-.362l-1.336-5.041H-2187.7a.487.487,0,0,1-.486-.486.487.487,0,0,1,.486-.486h13.865a.485.485,0,0,1,.47.362l1.432,5.4a.485.485,0,0,1-.345.594A.481.481,0,0,1-2172.4,2582.026Z" transform="translate(2188.182 -2575.651)" fill="#fff"/>
      </g>
      <g id="Group_33151" data-name="Group 33151" transform="translate(101.401 51.414)">
        <path id="Path_29033" data-name="Path 29033" d="M-2269.687,2582.026a.483.483,0,0,1-.125-.017.486.486,0,0,1-.345-.594l1.432-5.4a.486.486,0,0,1,.47-.362h13.865a.486.486,0,0,1,.486.486.486.486,0,0,1-.486.486h-13.491l-1.336,5.041A.487.487,0,0,1-2269.687,2582.026Z" transform="translate(2270.174 -2575.651)" fill="#fff"/>
      </g>
      <g id="Group_33154" data-name="Group 33154" transform="translate(123.972 49.394)">
        <g id="Group_33152" data-name="Group 33152">
          <rect id="Rectangle_5211" data-name="Rectangle 5211" width="0.973" height="0.976" fill="#fff"/>
        </g>
        <g id="Group_33153" data-name="Group 33153" transform="translate(3.027)">
          <rect id="Rectangle_5212" data-name="Rectangle 5212" width="0.973" height="0.976" fill="#fff"/>
        </g>
      </g>
      <g id="Group_33157" data-name="Group 33157" transform="translate(123.972 52.479)">
        <g id="Group_33155" data-name="Group 33155">
          <rect id="Rectangle_5213" data-name="Rectangle 5213" width="0.973" height="0.976" fill="#fff"/>
        </g>
        <g id="Group_33156" data-name="Group 33156" transform="translate(3.027)">
          <rect id="Rectangle_5214" data-name="Rectangle 5214" width="0.973" height="0.976" fill="#fff"/>
        </g>
      </g>
      <g id="Group_33160" data-name="Group 33160" transform="translate(123.972 55.565)">
        <g id="Group_33158" data-name="Group 33158">
          <rect id="Rectangle_5215" data-name="Rectangle 5215" width="0.973" height="0.976" fill="#fff"/>
        </g>
        <g id="Group_33159" data-name="Group 33159" transform="translate(3.027)">
          <rect id="Rectangle_5216" data-name="Rectangle 5216" width="0.973" height="0.976" fill="#fff"/>
        </g>
      </g>
      <g id="Group_33163" data-name="Group 33163" transform="translate(123.972 58.65)">
        <g id="Group_33161" data-name="Group 33161">
          <rect id="Rectangle_5217" data-name="Rectangle 5217" width="0.973" height="0.976" fill="#fff"/>
        </g>
        <g id="Group_33162" data-name="Group 33162" transform="translate(3.027)">
          <rect id="Rectangle_5218" data-name="Rectangle 5218" width="0.973" height="0.976" fill="#fff"/>
        </g>
      </g>
      <g id="Group_33166" data-name="Group 33166" transform="translate(123.972 61.735)">
        <g id="Group_33164" data-name="Group 33164">
          <rect id="Rectangle_5219" data-name="Rectangle 5219" width="0.973" height="0.976" fill="#fff"/>
        </g>
        <g id="Group_33165" data-name="Group 33165" transform="translate(3.027)">
          <rect id="Rectangle_5220" data-name="Rectangle 5220" width="0.973" height="0.976" fill="#fff"/>
        </g>
      </g>
      <g id="Group_33191" data-name="Group 33191" transform="translate(4.49 26.562)">
        <g id="Group_33175" data-name="Group 33175" transform="translate(22.716)">
          <g id="Group_33167" data-name="Group 33167" transform="translate(10.77 8.086)">
            <path id="Path_29034" data-name="Path 29034" d="M-2419.711,2559.848a.486.486,0,0,1-.486-.486V2536.2a1.391,1.391,0,0,0-1.39-1.39h-4.423a1.391,1.391,0,0,0-1.39,1.39v23.165a.486.486,0,0,1-.486.486.486.486,0,0,1-.486-.486V2536.2a2.365,2.365,0,0,1,2.362-2.362h4.423a2.365,2.365,0,0,1,2.363,2.362v23.165A.486.486,0,0,1-2419.711,2559.848Z" transform="translate(2428.372 -2533.834)" fill="#fff"/>
          </g>
          <g id="Group_33168" data-name="Group 33168" transform="translate(24.97 33.127)">
            <path id="Path_29035" data-name="Path 29035" d="M-2390.633,2619.971a.487.487,0,0,1-.486-.486v-15.7a.483.483,0,0,1,.064-.24l3.577-6.28h-4.99a.486.486,0,0,1-.486-.486.486.486,0,0,1,.486-.486h5.826a.486.486,0,0,1,.42.242.487.487,0,0,1,0,.485l-3.927,6.9v15.57A.486.486,0,0,1-2390.633,2619.971Z" transform="translate(2392.954 -2596.293)" fill="#fff"/>
          </g>
          <g id="Group_33169" data-name="Group 33169" transform="translate(18.945 12.298)">
            <path id="Path_29036" data-name="Path 29036" d="M-2399.636,2566.141a.487.487,0,0,1-.486-.486v-13.537a.49.49,0,0,1,.051-.217l3.282-6.589H-2407.5a.486.486,0,0,1-.486-.486.486.486,0,0,1,.486-.486H-2396a.486.486,0,0,1,.413.23.485.485,0,0,1,.022.473l-3.581,7.19v13.423A.486.486,0,0,1-2399.636,2566.141Z" transform="translate(2407.982 -2544.339)" fill="#fff"/>
          </g>
          <g id="Group_33170" data-name="Group 33170" transform="translate(0 53.671)">
            <path id="Path_29037" data-name="Path 29037" d="M-2451.116,2677.96a.486.486,0,0,1-.486-.486v-22.327l-3.578-6.9a.488.488,0,0,1,.016-.477.487.487,0,0,1,.416-.233h5.468a.486.486,0,0,1,.486.486.486.486,0,0,1-.486.486h-4.668l3.264,6.3a.483.483,0,0,1,.055.224v22.446A.487.487,0,0,1-2451.116,2677.96Z" transform="translate(2455.235 -2647.535)" fill="#fff"/>
          </g>
          <g id="Group_33173" data-name="Group 33173" transform="translate(0 12.298)">
            <g id="Group_33171" data-name="Group 33171" transform="translate(0 20.829)">
              <path id="Path_29038" data-name="Path 29038" d="M-2451.116,2617.81a.486.486,0,0,1-.486-.486V2603.9l-3.578-6.9a.486.486,0,0,1,.016-.476.486.486,0,0,1,.416-.234h5.468a.486.486,0,0,1,.486.486.486.486,0,0,1-.486.486h-4.668l3.264,6.3a.485.485,0,0,1,.055.224v13.537A.487.487,0,0,1-2451.116,2617.81Z" transform="translate(2455.235 -2596.293)" fill="#fff"/>
            </g>
            <g id="Group_33172" data-name="Group 33172" transform="translate(0)">
              <path id="Path_29039" data-name="Path 29039" d="M-2451.116,2566.141a.486.486,0,0,1-.486-.486v-13.423l-3.582-7.19a.487.487,0,0,1,.022-.473.487.487,0,0,1,.413-.23h10.77a.486.486,0,0,1,.486.486.486.486,0,0,1-.486.486h-9.984l3.282,6.589a.487.487,0,0,1,.051.217v13.537A.487.487,0,0,1-2451.116,2566.141Z" transform="translate(2455.235 -2544.339)" fill="#fff"/>
            </g>
          </g>
          <g id="Group_33174" data-name="Group 33174" transform="translate(14.857)">
            <path id="Path_29040" data-name="Path 29040" d="M-2417.691,2522.724a.486.486,0,0,1-.486-.486v-8.086a.486.486,0,0,1,.486-.486.486.486,0,0,1,.487.486v8.086A.486.486,0,0,1-2417.691,2522.724Z" transform="translate(2418.177 -2513.665)" fill="#fff"/>
          </g>
        </g>
        <g id="Group_33188" data-name="Group 33188" transform="translate(3.419 61.087)">
          <g id="Group_33178" data-name="Group 33178">
            <g id="Group_33176" data-name="Group 33176">
              <rect id="Rectangle_5221" data-name="Rectangle 5221" width="0.973" height="1.858" fill="#fff"/>
            </g>
            <g id="Group_33177" data-name="Group 33177" transform="translate(5.758)">
              <rect id="Rectangle_5222" data-name="Rectangle 5222" width="0.973" height="1.858" fill="#fff"/>
            </g>
          </g>
          <g id="Group_33181" data-name="Group 33181" transform="translate(0 10.797)">
            <g id="Group_33179" data-name="Group 33179">
              <rect id="Rectangle_5223" data-name="Rectangle 5223" width="0.973" height="1.857" fill="#fff"/>
            </g>
            <g id="Group_33180" data-name="Group 33180" transform="translate(5.758)">
              <rect id="Rectangle_5224" data-name="Rectangle 5224" width="0.973" height="1.857" fill="#fff"/>
            </g>
          </g>
          <g id="Group_33184" data-name="Group 33184" transform="translate(0 21.595)">
            <g id="Group_33182" data-name="Group 33182">
              <rect id="Rectangle_5225" data-name="Rectangle 5225" width="0.973" height="1.857" fill="#fff"/>
            </g>
            <g id="Group_33183" data-name="Group 33183" transform="translate(5.758)">
              <rect id="Rectangle_5226" data-name="Rectangle 5226" width="0.973" height="1.857" fill="#fff"/>
            </g>
          </g>
          <g id="Group_33187" data-name="Group 33187" transform="translate(0 32.392)">
            <g id="Group_33185" data-name="Group 33185">
              <rect id="Rectangle_5227" data-name="Rectangle 5227" width="0.973" height="1.857" fill="#fff"/>
            </g>
            <g id="Group_33186" data-name="Group 33186" transform="translate(5.758)">
              <rect id="Rectangle_5228" data-name="Rectangle 5228" width="0.973" height="1.857" fill="#fff"/>
            </g>
          </g>
        </g>
        <g id="Group_33189" data-name="Group 33189" transform="translate(17.086 83.124)">
          <path id="Path_29041" data-name="Path 29041" d="M-2459.529,2721.972h-9.263a.486.486,0,0,1-.487-.486.486.486,0,0,1,.487-.486h9.263a.486.486,0,0,1,.486.486A.486.486,0,0,1-2459.529,2721.972Z" transform="translate(2469.278 -2720.999)" fill="#fff"/>
        </g>
        <g id="Group_33190" data-name="Group 33190" transform="translate(0 45.034)">
          <path id="Path_29042" data-name="Path 29042" d="M-2511.9,2625.993v12.24h13.569v-5.63Z" transform="translate(2511.896 -2625.993)" fill="#fff"/>
        </g>
      </g>
      <g id="Group_33195" data-name="Group 33195" transform="translate(279.783 56.435)">
        <g id="Group_33192" data-name="Group 33192" transform="translate(6.521 4.488)">
          <path id="Path_29043" data-name="Path 29043" d="M-1806,2604.91a.486.486,0,0,1-.427-.254l-2.491-4.567a.486.486,0,0,1,.194-.659.485.485,0,0,1,.659.193l2.491,4.567a.486.486,0,0,1-.194.659A.484.484,0,0,1-1806,2604.91Z" transform="translate(1808.974 -2599.37)" fill="#fff"/>
        </g>
        <g id="Group_33193" data-name="Group 33193">
          <path id="Path_29044" data-name="Path 29044" d="M-1789.678,2593.636H-1798a.486.486,0,0,1-.486-.486.486.486,0,0,1,.486-.486h8.079l2.557-3.515H-1823.8l2.557,3.515h13.531a.486.486,0,0,1,.486.486.486.486,0,0,1-.486.486h-13.779a.487.487,0,0,1-.393-.2l-3.264-4.488a.487.487,0,0,1-.04-.507.487.487,0,0,1,.433-.265h38.338a.486.486,0,0,1,.433.265.488.488,0,0,1-.04.507l-3.264,4.488A.486.486,0,0,1-1789.678,2593.636Z" transform="translate(1825.238 -2588.176)" fill="#fff"/>
        </g>
        <g id="Group_33194" data-name="Group 33194" transform="translate(29.326 4.488)">
          <path id="Path_29045" data-name="Path 29045" d="M-1751.605,2604.91a.484.484,0,0,1-.233-.06.486.486,0,0,1-.194-.659l2.491-4.567a.486.486,0,0,1,.66-.193.486.486,0,0,1,.194.659l-2.491,4.567A.487.487,0,0,1-1751.605,2604.91Z" transform="translate(1752.091 -2599.37)" fill="#fff"/>
        </g>
      </g>
      <g id="Group_33216" data-name="Group 33216" transform="translate(202.648 30.887)">
        <g id="Group_33200" data-name="Group 33200" transform="translate(13.372 20.763)">
          <g id="Group_33199" data-name="Group 33199">
            <g id="Group_33196" data-name="Group 33196">
              <rect id="Rectangle_5229" data-name="Rectangle 5229" width="0.973" height="1.518" fill="#fff"/>
            </g>
            <g id="Group_33197" data-name="Group 33197" transform="translate(4.704)">
              <rect id="Rectangle_5230" data-name="Rectangle 5230" width="0.973" height="1.518" fill="#fff"/>
            </g>
            <g id="Group_33198" data-name="Group 33198" transform="translate(9.838)">
              <rect id="Rectangle_5231" data-name="Rectangle 5231" width="0.973" height="1.518" fill="#fff"/>
            </g>
          </g>
        </g>
        <g id="Group_33205" data-name="Group 33205" transform="translate(13.374 16.037)">
          <g id="Group_33204" data-name="Group 33204">
            <g id="Group_33201" data-name="Group 33201">
              <rect id="Rectangle_5232" data-name="Rectangle 5232" width="0.973" height="1.517" fill="#fff"/>
            </g>
            <g id="Group_33202" data-name="Group 33202" transform="translate(4.704)">
              <rect id="Rectangle_5233" data-name="Rectangle 5233" width="0.973" height="1.517" fill="#fff"/>
            </g>
            <g id="Group_33203" data-name="Group 33203" transform="translate(9.838)">
              <rect id="Rectangle_5234" data-name="Rectangle 5234" width="0.973" height="1.517" fill="#fff"/>
            </g>
          </g>
        </g>
        <g id="Group_33210" data-name="Group 33210" transform="translate(13.372 25.609)">
          <g id="Group_33209" data-name="Group 33209">
            <g id="Group_33206" data-name="Group 33206">
              <rect id="Rectangle_5235" data-name="Rectangle 5235" width="0.973" height="1.518" fill="#fff"/>
            </g>
            <g id="Group_33207" data-name="Group 33207" transform="translate(4.704)">
              <rect id="Rectangle_5236" data-name="Rectangle 5236" width="0.973" height="1.518" fill="#fff"/>
            </g>
            <g id="Group_33208" data-name="Group 33208" transform="translate(9.838)">
              <rect id="Rectangle_5237" data-name="Rectangle 5237" width="0.973" height="1.518" fill="#fff"/>
            </g>
          </g>
        </g>
        <g id="Group_33211" data-name="Group 33211" transform="translate(4.662 5.623)">
          <path id="Path_29046" data-name="Path 29046" d="M-1978.263,2576.794h-27.258a.486.486,0,0,1-.352-.152.486.486,0,0,1-.133-.36l1.947-37.343a.482.482,0,0,1,.511-.46.487.487,0,0,1,.46.511l-1.92,36.831h26.233l-1.92-36.831a.487.487,0,0,1,.46-.511.486.486,0,0,1,.511.46l1.947,37.343a.487.487,0,0,1-.133.36A.486.486,0,0,1-1978.263,2576.794Z" transform="translate(2006.007 -2538.479)" fill="#fff"/>
        </g>
        <g id="Group_33212" data-name="Group 33212" transform="translate(31.919 42.967)">
          <path id="Path_29047" data-name="Path 29047" d="M-1932.847,2685.354a.486.486,0,0,1-.486-.486v-44.323c0-.084.207-6.368-4.361-7.977a.486.486,0,0,1-.3-.62.487.487,0,0,1,.62-.3c5.251,1.85,5.023,8.627,5.01,8.915v44.3A.486.486,0,0,1-1932.847,2685.354Z" transform="translate(1938.019 -2631.623)" fill="#fff"/>
        </g>
        <g id="Group_33213" data-name="Group 33213" transform="translate(0 42.967)">
          <path id="Path_29048" data-name="Path 29048" d="M-2017.139,2641.137a.486.486,0,0,1-.485-.455,12.687,12.687,0,0,1,.439-3.794,7.133,7.133,0,0,1,4.579-5.24.487.487,0,0,1,.615.308.486.486,0,0,1-.308.615c-4.712,1.564-4.358,7.984-4.354,8.049a.486.486,0,0,1-.454.516Z" transform="translate(2017.635 -2631.624)" fill="#fff"/>
        </g>
        <g id="Group_33214" data-name="Group 33214" transform="translate(6.608)">
          <path id="Path_29049" data-name="Path 29049" d="M-1977.3,2531.049h-23.364a.487.487,0,0,1-.348-.147.488.488,0,0,1-.138-.353l.087-3.31a.486.486,0,0,1,.142-.331l2.313-2.313a.485.485,0,0,1,.688,0l2,2,1.97-2a.486.486,0,0,1,.688-.005l2.006,1.975,1.973-1.973a.485.485,0,0,1,.688,0l1.973,1.973,2.006-1.975a.487.487,0,0,1,.688.005l1.97,2,2-2a.485.485,0,0,1,.688,0l2.314,2.313a.487.487,0,0,1,.142.344l0,3.31A.486.486,0,0,1-1977.3,2531.049Zm-22.864-.973h22.379l0-2.623-1.827-1.827-2.006,2.006a.487.487,0,0,1-.344.142h0a.486.486,0,0,1-.345-.145l-1.973-2-2,1.973a.485.485,0,0,1-.685,0l-1.97-1.97-1.97,1.97a.487.487,0,0,1-.685,0l-2-1.973-1.972,2a.485.485,0,0,1-.344.145h0a.487.487,0,0,1-.344-.142l-2.006-2.006-1.833,1.833Z" transform="translate(2001.151 -2524.453)" fill="#fff"/>
        </g>
        <g id="Group_33215" data-name="Group 33215" transform="translate(8.34 34.438)">
          <path id="Path_29050" data-name="Path 29050" d="M-1975.959,2616.335l-.312-5.985h-20.249l-.312,5.985Z" transform="translate(1996.833 -2610.35)" fill="#fbae17"/>
        </g>
      </g>
      <g id="Group_33221" data-name="Group 33221" transform="translate(54.011 57.484)">
        <g id="Group_33217" data-name="Group 33217" transform="translate(13.013)">
          <path id="Path_29051" data-name="Path 29051" d="M-2336.042,2600.434h-17.189a2.69,2.69,0,0,1-2.687-2.687v-4.871l2.624-2.083,2.168,1.722,2.136-1.722,2.173,1.7,1.97-1.564h.42l1.97,1.564,2.174-1.7,2.135,1.722,2.169-1.722,2.624,2.083v4.871A2.69,2.69,0,0,1-2336.042,2600.434Zm-18.9-7.088v4.4a1.716,1.716,0,0,0,1.714,1.714h17.189a1.716,1.716,0,0,0,1.714-1.714v-4.4l-1.651-1.311-2.173,1.725-2.14-1.725-2.168,1.695-2.176-1.727-2.176,1.727-2.169-1.695-2.14,1.725-2.173-1.725Z" transform="translate(2355.918 -2590.793)" fill="#fff"/>
        </g>
        <g id="Group_33218" data-name="Group 33218" transform="translate(32.378 8.986)">
          <path id="Path_29052" data-name="Path 29052" d="M-2307.13,2630.1a.486.486,0,0,1-.486-.486v-15.925a.486.486,0,0,1,.486-.486.486.486,0,0,1,.486.486v15.925A.486.486,0,0,1-2307.13,2630.1Z" transform="translate(2307.616 -2613.207)" fill="#fff"/>
        </g>
        <g id="Group_33219" data-name="Group 33219" transform="translate(15.239 8.986)">
          <path id="Path_29053" data-name="Path 29053" d="M-2349.881,2630.1a.486.486,0,0,1-.486-.486v-15.925a.486.486,0,0,1,.486-.486.486.486,0,0,1,.486.486v15.925A.486.486,0,0,1-2349.881,2630.1Z" transform="translate(2350.367 -2613.207)" fill="#fff"/>
        </g>
        <g id="Group_33220" data-name="Group 33220" transform="translate(0 15.627)">
          <path id="Path_29054" data-name="Path 29054" d="M-2372.652,2630.743h-15.239a.487.487,0,0,1-.486-.486.486.486,0,0,1,.486-.486h15.239a.486.486,0,0,1,.486.486A.486.486,0,0,1-2372.652,2630.743Z" transform="translate(2388.377 -2629.771)" fill="#fff"/>
        </g>
      </g>
      <g id="Group_33234" data-name="Group 33234" transform="translate(330.937 40.739)">
        <g id="Group_33222" data-name="Group 33222" transform="translate(2.359 43.859)">
          <path id="Path_29055" data-name="Path 29055" d="M-1691.277,2665.31a.486.486,0,0,1-.486-.487v-5.914a.486.486,0,0,1,.486-.486.486.486,0,0,1,.486.486v5.914A.486.486,0,0,1-1691.277,2665.31Z" transform="translate(1691.763 -2658.423)" fill="#fff"/>
        </g>
        <g id="Group_33223" data-name="Group 33223" transform="translate(16.448 43.859)">
          <path id="Path_29056" data-name="Path 29056" d="M-1656.134,2665.31a.486.486,0,0,1-.486-.487v-5.914a.486.486,0,0,1,.486-.486.486.486,0,0,1,.486.486v5.914A.486.486,0,0,1-1656.134,2665.31Z" transform="translate(1656.62 -2658.423)" fill="#fff"/>
        </g>
        <g id="Group_33224" data-name="Group 33224" transform="translate(0 39.762)">
          <path id="Path_29057" data-name="Path 29057" d="M-1677.867,2653.274h-19.779v-5.07h19.779Zm-18.807-.973h17.834v-3.125h-17.834Z" transform="translate(1697.646 -2648.204)" fill="#fff"/>
        </g>
        <g id="Group_33225" data-name="Group 33225" transform="translate(2.359 11.173)">
          <path id="Path_29058" data-name="Path 29058" d="M-1677.187,2582.369h-14.09a.486.486,0,0,1-.486-.487v-4.5a.486.486,0,0,1,.486-.486.486.486,0,0,1,.486.486v4.017h13.117v-4.017a.486.486,0,0,1,.486-.486.486.486,0,0,1,.486.486v4.5A.487.487,0,0,1-1677.187,2582.369Z" transform="translate(1691.763 -2576.894)" fill="#fff"/>
        </g>
        <g id="Group_33226" data-name="Group 33226" transform="translate(2.358 15.704)">
          <path id="Path_29059" data-name="Path 29059" d="M-1691.277,2613l-.047,0a.487.487,0,0,1-.437-.531l2.3-23.827a.487.487,0,0,1,.531-.437.486.486,0,0,1,.438.53l-2.3,23.827A.487.487,0,0,1-1691.277,2613Z" transform="translate(1691.764 -2588.196)" fill="#fff"/>
        </g>
        <g id="Group_33227" data-name="Group 33227" transform="translate(14.151 15.704)">
          <path id="Path_29060" data-name="Path 29060" d="M-1659.567,2613a.487.487,0,0,1-.483-.44l-2.3-23.827a.486.486,0,0,1,.438-.53.488.488,0,0,1,.531.437l2.3,23.827a.486.486,0,0,1-.437.531Z" transform="translate(1662.349 -2588.196)" fill="#fff"/>
        </g>
        <g id="Group_33228" data-name="Group 33228" transform="translate(4.177 21.235)">
          <path id="Path_29061" data-name="Path 29061" d="M-1676.289,2602.964h-10.452a.486.486,0,0,1-.486-.486.486.486,0,0,1,.486-.486h10.452a.486.486,0,0,1,.486.486A.486.486,0,0,1-1676.289,2602.964Z" transform="translate(1687.227 -2601.991)" fill="#fff"/>
        </g>
        <g id="Group_33229" data-name="Group 33229" transform="translate(5.943 11.173)">
          <path id="Path_29062" data-name="Path 29062" d="M-1682.337,2582.4a.486.486,0,0,1-.486-.487v-4.531a.486.486,0,0,1,.486-.486.486.486,0,0,1,.486.486v4.531A.486.486,0,0,1-1682.337,2582.4Z" transform="translate(1682.823 -2576.894)" fill="#fff"/>
        </g>
        <g id="Group_33230" data-name="Group 33230" transform="translate(9.403 11.173)">
          <path id="Path_29063" data-name="Path 29063" d="M-1673.706,2582.4a.486.486,0,0,1-.486-.487v-4.531a.486.486,0,0,1,.486-.486.486.486,0,0,1,.486.486v4.531A.486.486,0,0,1-1673.706,2582.4Z" transform="translate(1674.192 -2576.894)" fill="#fff"/>
        </g>
        <g id="Group_33231" data-name="Group 33231" transform="translate(12.863 11.173)">
          <path id="Path_29064" data-name="Path 29064" d="M-1665.075,2582.4a.486.486,0,0,1-.486-.487v-4.531a.486.486,0,0,1,.486-.486.486.486,0,0,1,.486.486v4.531A.486.486,0,0,1-1665.075,2582.4Z" transform="translate(1665.561 -2576.894)" fill="#fff"/>
        </g>
        <g id="Group_33232" data-name="Group 33232" transform="translate(5.245)">
          <path id="Path_29065" data-name="Path 29065" d="M-1675.761,2554.157a.486.486,0,0,1-.486-.486,3.677,3.677,0,0,0-3.672-3.673,3.677,3.677,0,0,0-3.672,3.673.486.486,0,0,1-.486.486.486.486,0,0,1-.486-.486,4.65,4.65,0,0,1,4.645-4.645,4.651,4.651,0,0,1,4.645,4.645A.486.486,0,0,1-1675.761,2554.157Z" transform="translate(1684.564 -2549.026)" fill="#fff"/>
        </g>
        <g id="Group_33233" data-name="Group 33233" transform="translate(3.507 4.221)">
          <path id="Path_29066" data-name="Path 29066" d="M-1676.62,2565.431a.486.486,0,0,1-.486-.486v-4.091a.327.327,0,0,0-.326-.326H-1687.6a.326.326,0,0,0-.326.326v4.091a.486.486,0,0,1-.486.486.486.486,0,0,1-.486-.486v-4.091a1.3,1.3,0,0,1,1.3-1.3h10.169a1.3,1.3,0,0,1,1.3,1.3v4.091A.486.486,0,0,1-1676.62,2565.431Z" transform="translate(1688.899 -2559.555)" fill="#fff"/>
        </g>
      </g>
      <g id="Group_33235" data-name="Group 33235" transform="translate(165.267 56.964)">
        <path id="Path_29067" data-name="Path 29067" d="M-2081.51,2620.119a.487.487,0,0,1-.486-.487v-28.855c-4.161,2.029-8.932,2.49-13.859,2.808l-.437.028c-4.624.3-9.4.6-13.609,2.462v23.557a.486.486,0,0,1-.486.487.487.487,0,0,1-.486-.487v-23.871a.487.487,0,0,1,.283-.442c4.44-2.048,9.42-2.367,14.237-2.677l.436-.028c5.1-.329,10.023-.811,14.177-3.062a.487.487,0,0,1,.481.01.486.486,0,0,1,.237.418v29.652A.487.487,0,0,1-2081.51,2620.119Z" transform="translate(2110.873 -2589.494)" fill="#fff"/>
      </g>
      <g id="Group_33236" data-name="Group 33236" transform="translate(168.569 39.878)">
        <path id="Path_29068" data-name="Path 29068" d="M-2102.151,2565.79a.486.486,0,0,1-.486-.486v-13.861a.486.486,0,0,1,.283-.442c3.155-1.455,6.681-1.682,10.09-1.9l.311-.02c3.581-.231,7.037-.569,9.941-2.144a.486.486,0,0,1,.48.01.486.486,0,0,1,.238.418v15.491a.487.487,0,0,1-.486.487.487.487,0,0,1-.486-.487v-14.7c-2.909,1.36-6.214,1.677-9.624,1.9l-.311.021c-3.217.206-6.54.42-9.463,1.687V2565.3A.486.486,0,0,1-2102.151,2565.79Z" transform="translate(2102.637 -2546.878)" fill="#fff"/>
      </g>
      <g id="Group_33237" data-name="Group 33237" transform="translate(171.993 27.416)">
        <path id="Path_29069" data-name="Path 29069" d="M-2093.611,2528.677a.487.487,0,0,1-.486-.487v-9.2a.487.487,0,0,1,.282-.442,18.793,18.793,0,0,1,6.761-1.276l.2-.013a15.761,15.761,0,0,0,6.532-1.4.486.486,0,0,1,.48.01.486.486,0,0,1,.237.418v10.283a.486.486,0,0,1-.486.487.486.486,0,0,1-.486-.487v-9.507a18.455,18.455,0,0,1-6.214,1.169l-.2.014a19.046,19.046,0,0,0-6.133,1.065v8.885A.486.486,0,0,1-2093.611,2528.677Z" transform="translate(2094.097 -2515.795)" fill="#fff"/>
      </g>
      <g id="Group_33238" data-name="Group 33238" transform="translate(175.379 21.635)">
        <path id="Path_29070" data-name="Path 29070" d="M-2085.165,2509.9a.486.486,0,0,1-.486-.486v-7.548a.487.487,0,0,1,.486-.486h6.826a.486.486,0,0,1,.486.486v6.877a.486.486,0,0,1-.486.487.487.487,0,0,1-.486-.487v-6.391h-5.854v7.062A.486.486,0,0,1-2085.165,2509.9Z" transform="translate(2085.651 -2501.375)" fill="#fff"/>
      </g>
      <g id="Group_33239" data-name="Group 33239" transform="translate(175.379 17.339)">
        <path id="Path_29071" data-name="Path 29071" d="M-2085.165,2493.389a.486.486,0,0,1-.486-.486v-1.759a.486.486,0,0,1,.486-.486.486.486,0,0,1,.486.486v1.759A.486.486,0,0,1-2085.165,2493.389Z" transform="translate(2085.651 -2490.658)" fill="#fff"/>
      </g>
      <g id="Group_33240" data-name="Group 33240" transform="translate(178.793 17.339)">
        <path id="Path_29072" data-name="Path 29072" d="M-2076.651,2493.389a.486.486,0,0,1-.486-.486v-1.759a.486.486,0,0,1,.486-.486.486.486,0,0,1,.487.486v1.759A.486.486,0,0,1-2076.651,2493.389Z" transform="translate(2077.137 -2490.658)" fill="#fff"/>
      </g>
      <g id="Group_33241" data-name="Group 33241" transform="translate(182.206 17.339)">
        <path id="Path_29073" data-name="Path 29073" d="M-2068.138,2493.389a.486.486,0,0,1-.486-.486v-1.759a.486.486,0,0,1,.486-.486.486.486,0,0,1,.486.486v1.759A.486.486,0,0,1-2068.138,2493.389Z" transform="translate(2068.624 -2490.658)" fill="#fff"/>
      </g>
      <g id="Group_33242" data-name="Group 33242" transform="translate(175.379 8.669)">
        <path id="Path_29074" data-name="Path 29074" d="M-2078.338,2475.849h-6.826a.486.486,0,0,1-.486-.486v-2.932a2.977,2.977,0,0,1,1.58-2.634,7.849,7.849,0,0,1,2.229-.754.463.463,0,0,1,.181,0,7.847,7.847,0,0,1,2.229.754,2.977,2.977,0,0,1,1.58,2.634v2.932A.486.486,0,0,1-2078.338,2475.849Zm-6.34-.973h5.854v-2.445a2.007,2.007,0,0,0-1.064-1.776,6.834,6.834,0,0,0-1.862-.639,6.829,6.829,0,0,0-1.863.639,2.007,2.007,0,0,0-1.064,1.776Z" transform="translate(2085.651 -2469.034)" fill="#fff"/>
      </g>
      <g id="Group_33243" data-name="Group 33243" transform="translate(178.793 5.277)">
        <path id="Path_29075" data-name="Path 29075" d="M-2076.651,2464.938a.486.486,0,0,1-.486-.486v-3.392a.486.486,0,0,1,.486-.486.486.486,0,0,1,.487.486v3.392A.486.486,0,0,1-2076.651,2464.938Z" transform="translate(2077.137 -2460.573)" fill="#fff"/>
      </g>
      <g id="Group_33244" data-name="Group 33244" transform="translate(176.343 0)">
        <path id="Path_29076" data-name="Path 29076" d="M-2080.312,2453.283a2.94,2.94,0,0,1-2.936-2.936,2.94,2.94,0,0,1,2.936-2.936.486.486,0,0,1,.487.486.486.486,0,0,1-.487.486,1.966,1.966,0,0,0-1.964,1.964,1.966,1.966,0,0,0,1.964,1.964,1.966,1.966,0,0,0,1.964-1.964.486.486,0,0,1,.486-.486.487.487,0,0,1,.486.486A2.94,2.94,0,0,1-2080.312,2453.283Z" transform="translate(2083.248 -2447.411)" fill="#fff"/>
      </g>
      <g id="Group_33245" data-name="Group 33245" transform="translate(175.579 72.063)">
        <path id="Path_29077" data-name="Path 29077" d="M-2076.413,2639.112a.486.486,0,0,1-.486-.486v-6.856a3.645,3.645,0,0,0-3.64-3.641,3.645,3.645,0,0,0-3.641,3.641v6.856a.486.486,0,0,1-.486.486.486.486,0,0,1-.486-.486v-6.856a4.619,4.619,0,0,1,4.614-4.613,4.619,4.619,0,0,1,4.613,4.613v6.856A.486.486,0,0,1-2076.413,2639.112Z" transform="translate(2085.153 -2627.156)" fill="#fff"/>
      </g>
      <g id="Group_33255" data-name="Group 33255" transform="translate(0 76.361)">
        <g id="Group_33246" data-name="Group 33246" transform="translate(269.948)">
          <path id="Path_29078" data-name="Path 29078" d="M-1840.865,2649.145a.486.486,0,0,1-.462-.336l-1.918-5.878-.733,1.261a.46.46,0,0,1-.437.241.484.484,0,0,1-.419-.271,15.457,15.457,0,0,0-3.807-4.9,14.626,14.626,0,0,0,.839,7.437.486.486,0,0,1-.275.63.487.487,0,0,1-.63-.275,15.586,15.586,0,0,1-.745-8.787.488.488,0,0,1,.307-.357.487.487,0,0,1,.465.07,16.43,16.43,0,0,1,4.3,4.968l.837-1.44a.484.484,0,0,1,.471-.239.485.485,0,0,1,.411.333l2.255,6.911a.486.486,0,0,1-.312.613A.5.5,0,0,1-1840.865,2649.145Z" transform="translate(1849.769 -2637.875)" fill="#fff"/>
        </g>
        <g id="Group_33247" data-name="Group 33247" transform="translate(282.086 1.923)">
          <path id="Path_29079" data-name="Path 29079" d="M-1815.788,2650.095a.481.481,0,0,1-.234-.06.486.486,0,0,1-.192-.66,15.079,15.079,0,0,0,1.743-5.441l-1.784.786c-.888.392-1.776.783-2.557,1.126a.486.486,0,0,1-.641-.25.487.487,0,0,1,.25-.641c.781-.342,1.669-.733,2.556-1.125s1.765-.778,2.541-1.119a.487.487,0,0,1,.474.047.485.485,0,0,1,.206.429,16.048,16.048,0,0,1-1.935,6.655A.486.486,0,0,1-1815.788,2650.095Z" transform="translate(1819.494 -2642.671)" fill="#fff"/>
        </g>
        <g id="Group_33248" data-name="Group 33248" transform="translate(278.365 2.048)">
          <path id="Path_29080" data-name="Path 29080" d="M-1828.289,2646.136a.483.483,0,0,1-.253-.072.486.486,0,0,1-.162-.668,6.409,6.409,0,0,1,2.516-2.358.489.489,0,0,1,.444,0,.488.488,0,0,1,.261.359c.063.393.388,1.555,1.036,1.722a.486.486,0,0,1,.35.592.486.486,0,0,1-.592.35,2.569,2.569,0,0,1-1.589-1.837,5.47,5.47,0,0,0-1.6,1.681A.487.487,0,0,1-1828.289,2646.136Z" transform="translate(1828.775 -2642.984)" fill="#fff"/>
        </g>
        <g id="Group_33249" data-name="Group 33249" transform="translate(277.743 15.248)">
          <path id="Path_29081" data-name="Path 29081" d="M-1829.839,2684.426a.517.517,0,0,1-.069,0,.486.486,0,0,1-.412-.55c.993-6.942,7.915-7.95,7.985-7.959a.49.49,0,0,1,.462.2.487.487,0,0,1,.033.5,5.822,5.822,0,0,0-.514,3.889.486.486,0,0,1-.3.618.485.485,0,0,1-.618-.3,5.95,5.95,0,0,1,.195-3.756,8.285,8.285,0,0,0-6.279,6.942A.486.486,0,0,1-1829.839,2684.426Z" transform="translate(1830.326 -2675.908)" fill="#fff"/>
        </g>
        <g id="Group_33250" data-name="Group 33250" transform="translate(0 18.738)">
          <path id="Path_29082" data-name="Path 29082" d="M-2173.678,2736.421H-2522.61a.486.486,0,0,1-.486-.486.487.487,0,0,1,.486-.486h348.445v-20.5a6.8,6.8,0,0,1-4.945,2.154,6.86,6.86,0,0,1-5.414-2.757,6.8,6.8,0,0,1-5.448,2.757,6.8,6.8,0,0,1-5.431-2.734,6.806,6.806,0,0,1-5.432,2.734,6.8,6.8,0,0,1-5.444-2.75,6.79,6.79,0,0,1-5.419,2.75,6.8,6.8,0,0,1-5.432-2.734,6.8,6.8,0,0,1-5.432,2.734h-7.064a11.41,11.41,0,0,1-8.131-3.373,11.384,11.384,0,0,1-3.348-8.12c.006-2.854-.114-5.58-.358-8.1a5.14,5.14,0,0,1,2.772-5.1c2.013-1.034,5.3-1.755,9.76.418-.214-1.308-1.1-3.776-4.722-4.33a.489.489,0,0,1-.363-.265.487.487,0,0,1,.01-.45,8.268,8.268,0,0,1,1.7-2.017c-1.7-.347-5.353-.635-7.532,2.527a.486.486,0,0,1-.676.124.486.486,0,0,1-.124-.676c3.275-4.751,9.507-2.678,9.569-2.657a.487.487,0,0,1,.323.4.485.485,0,0,1-.208.467,7.852,7.852,0,0,0-1.81,1.734,6.112,6.112,0,0,1,4.874,6,.487.487,0,0,1-.247.4.486.486,0,0,1-.473,0c-4.483-2.457-7.713-1.8-9.633-.812a4.171,4.171,0,0,0-2.249,4.139c.248,2.553.37,5.311.363,8.2a10.414,10.414,0,0,0,3.063,7.431,10.443,10.443,0,0,0,7.442,3.087h7.064a5.83,5.83,0,0,0,5.012-2.885.5.5,0,0,1,.839,0,5.83,5.83,0,0,0,5.012,2.885,5.934,5.934,0,0,0,5.021-2.9.53.53,0,0,1,.419-.225.487.487,0,0,1,.41.241,5.83,5.83,0,0,0,5.012,2.885,5.829,5.829,0,0,0,5.012-2.885.505.505,0,0,1,.84,0,5.829,5.829,0,0,0,5.011,2.885,5.829,5.829,0,0,0,5.011-2.885.486.486,0,0,1,.407-.241.5.5,0,0,1,.42.22,5.949,5.949,0,0,0,5.024,2.907,5.829,5.829,0,0,0,5.012-2.885.487.487,0,0,1,.547-.224.486.486,0,0,1,.359.469v22.449A.486.486,0,0,1-2173.678,2736.421Z" transform="translate(2523.096 -2684.612)" fill="#fff"/>
        </g>
        <g id="Group_33251" data-name="Group 33251" transform="translate(270.176 15.248)">
          <path id="Path_29083" data-name="Path 29083" d="M-1841.149,2684.426a.486.486,0,0,1-.481-.417,8.368,8.368,0,0,0-6.275-6.932,5.945,5.945,0,0,1,.191,3.746.485.485,0,0,1-.618.3.487.487,0,0,1-.3-.618,5.79,5.79,0,0,0-.513-3.888.487.487,0,0,1,.032-.505.49.49,0,0,1,.463-.2c.07.009,6.992,1.017,7.984,7.959a.486.486,0,0,1-.413.55A.478.478,0,0,1-1841.149,2684.426Z" transform="translate(1849.202 -2675.907)" fill="#fff"/>
        </g>
        <g id="Group_33252" data-name="Group 33252" transform="translate(262.841 7.792)">
          <path id="Path_29084" data-name="Path 29084" d="M-1863.063,2666.849a.487.487,0,0,1-.464-.341c-.453-1.444-2.82-2.841-3.694-3.258a.485.485,0,0,1-.277-.418.488.488,0,0,1,.241-.441c1.245-.726,3.488-.62,4.577-.515a12.736,12.736,0,0,0-1.693-3.8.487.487,0,0,1-.027-.494.487.487,0,0,1,.42-.262,14.38,14.38,0,0,1,12.293,6.651.486.486,0,0,1-.182.662.486.486,0,0,1-.663-.182,13.42,13.42,0,0,0-10.568-6.153,10.173,10.173,0,0,1,1.456,4.121.486.486,0,0,1-.163.379.49.49,0,0,1-.4.118,12.468,12.468,0,0,0-3.623,0c1.1.659,2.773,1.869,3.225,3.309a.486.486,0,0,1-.318.61A.488.488,0,0,1-1863.063,2666.849Z" transform="translate(1867.498 -2657.312)" fill="#fff"/>
        </g>
        <g id="Group_33253" data-name="Group 33253" transform="translate(277.86 7.792)">
          <path id="Path_29085" data-name="Path 29085" d="M-1818.6,2666.849a.5.5,0,0,1-.146-.022.487.487,0,0,1-.318-.61c.452-1.44,2.13-2.65,3.225-3.309a12.373,12.373,0,0,0-3.623,0,.488.488,0,0,1-.4-.117.487.487,0,0,1-.163-.379,10.169,10.169,0,0,1,1.456-4.121,13.368,13.368,0,0,0-10.567,6.152.485.485,0,0,1-.663.183.486.486,0,0,1-.183-.663,14.369,14.369,0,0,1,12.293-6.651.487.487,0,0,1,.42.262.486.486,0,0,1-.027.494,12.779,12.779,0,0,0-1.693,3.8c1.089-.1,3.332-.21,4.577.515a.488.488,0,0,1,.241.44.487.487,0,0,1-.277.419c-.874.417-3.241,1.815-3.695,3.258A.486.486,0,0,1-1818.6,2666.849Z" transform="translate(1830.036 -2657.311)" fill="#fff"/>
        </g>
        <g id="Group_33254" data-name="Group 33254" transform="translate(273.598 27.074)">
          <path id="Path_29086" data-name="Path 29086" d="M-1836.257,2708.756h-.013a.485.485,0,0,1-.374-.192l-1.483-1.951-1.722,1.594a.488.488,0,0,1-.687-.027.486.486,0,0,1,.026-.687l2.115-1.958a.488.488,0,0,1,.372-.128.487.487,0,0,1,.345.191l1.441,1.9,1.622-1.916a.489.489,0,0,1,.345-.171.5.5,0,0,1,.361.133l2.284,2.171a.486.486,0,0,1,.018.688.486.486,0,0,1-.687.017l-1.911-1.817-1.681,1.985A.487.487,0,0,1-1836.257,2708.756Z" transform="translate(1840.666 -2705.406)" fill="#fff"/>
        </g>
      </g>
      <g id="Group_33261" data-name="Group 33261" transform="translate(246.799 11.136)">
        <g id="Group_33256" data-name="Group 33256" transform="translate(9.168 30.865)">
          <path id="Path_29087" data-name="Path 29087" d="M-1884.157,2638.188a.486.486,0,0,1-.486-.487v-85.042a.486.486,0,0,1,.486-.486h3.962a15,15,0,0,1,14.265,9.857,16.114,16.114,0,0,1,.886,5.326v8.306h43.021a.486.486,0,0,1,.486.486v24.536h14.708a.486.486,0,0,1,.486.486.486.486,0,0,1-.486.486h-15.195a.487.487,0,0,1-.486-.486v-24.536h-43.021a.486.486,0,0,1-.486-.486v-8.792a15.14,15.14,0,0,0-.832-5.006,14.023,14.023,0,0,0-13.347-9.206h-3.476V2637.7A.486.486,0,0,1-1884.157,2638.188Z" transform="translate(1884.643 -2552.172)" fill="#fff"/>
        </g>
        <g id="Group_33257" data-name="Group 33257" transform="translate(9.654 116.394)">
          <path id="Path_29088" data-name="Path 29088" d="M-1883.43,2765.5" transform="translate(1883.43 -2765.505)" fill="none" stroke="#fff" stroke-linecap="round" stroke-linejoin="round" stroke-width="2.426"/>
        </g>
        <g id="Group_33258" data-name="Group 33258" transform="translate(0 15.614)">
          <path id="Path_29089" data-name="Path 29089" d="M-1907.024,2614.967a.486.486,0,0,1-.486-.486v-99.863a.486.486,0,0,1,.486-.486h8.655a.487.487,0,0,1,.344.142l8,8a.488.488,0,0,1,.142.344v7.672a.486.486,0,0,1-.486.486.486.486,0,0,1-.486-.486v-7.471l-7.715-7.715h-7.967v99.376A.486.486,0,0,1-1907.024,2614.967Z" transform="translate(1907.51 -2514.131)" fill="#fff"/>
        </g>
        <g id="Group_33259" data-name="Group 33259" transform="translate(0 7.353)">
          <path id="Path_29090" data-name="Path 29090" d="M-1907.024,2502.76a.486.486,0,0,1-.486-.486v-6.514a2.235,2.235,0,0,1,2.232-2.233h5.163a2.235,2.235,0,0,1,2.233,2.233v2.984a.486.486,0,0,1-.486.486.486.486,0,0,1-.486-.486v-2.984a1.262,1.262,0,0,0-1.26-1.26h-5.163a1.261,1.261,0,0,0-1.26,1.26v6.514A.486.486,0,0,1-1907.024,2502.76Z" transform="translate(1907.51 -2493.527)" fill="#fff"/>
        </g>
        <g id="Group_33260" data-name="Group 33260" transform="translate(4.328)">
          <path id="Path_29091" data-name="Path 29091" d="M-1896.23,2483.512a.486.486,0,0,1-.486-.486v-7.354a.486.486,0,0,1,.486-.486.486.486,0,0,1,.486.486v7.354A.486.486,0,0,1-1896.23,2483.512Z" transform="translate(1896.716 -2475.186)" fill="#fff"/>
        </g>
      </g>
      <g id="Group_33262" data-name="Group 33262" transform="translate(194.145 82.395)">
        <path id="Path_29092" data-name="Path 29092" d="M-2029.846,2653.9h-8.513a.486.486,0,0,1-.486-.486.486.486,0,0,1,.486-.486h8.513a.486.486,0,0,1,.486.486A.486.486,0,0,1-2029.846,2653.9Z" transform="translate(2038.845 -2652.927)" fill="#fff"/>
      </g>
      <g id="Group_33263" data-name="Group 33263" transform="translate(101.401 56.816)">
        <path id="Path_29093" data-name="Path 29093" d="M-2254.391,2590.1h-15.3a.486.486,0,0,1-.486-.486.486.486,0,0,1,.486-.486h15.3a.486.486,0,0,1,.486.486A.486.486,0,0,1-2254.391,2590.1Z" transform="translate(2270.174 -2589.127)" fill="#fff"/>
      </g>
      <g id="Group_33266" data-name="Group 33266" transform="translate(71.379 87.616)">
        <g id="Group_33264" data-name="Group 33264" transform="translate(0 2.45)">
          <path id="Path_29094" data-name="Path 29094" d="M-2334.687,2698.466a.486.486,0,0,1-.486-.486v-6.005l-9.691-7.375a.486.486,0,0,1-.192-.387v-6.48a5.8,5.8,0,0,1,4.468-5.635l.129-.028a.514.514,0,0,1,.2,0l.094.021a5.807,5.807,0,0,1,4.5,5.642v1.946a.487.487,0,0,1-.486.486h-7.929v3.806l9.691,7.375a.487.487,0,0,1,.192.387v6.246A.486.486,0,0,1-2334.687,2698.466Zm-9.4-19.272h7.443v-1.46a4.819,4.819,0,0,0-3.709-4.686l-.012,0a4.825,4.825,0,0,0-3.722,4.689Z" transform="translate(2345.056 -2672.061)" fill="#fff"/>
        </g>
        <g id="Group_33265" data-name="Group 33265" transform="translate(4.208)">
          <path id="Path_29095" data-name="Path 29095" d="M-2334.075,2669.373a.487.487,0,0,1-.486-.486v-2.449a.486.486,0,0,1,.486-.486.486.486,0,0,1,.486.486v2.449A.486.486,0,0,1-2334.075,2669.373Z" transform="translate(2334.561 -2665.951)" fill="#fff"/>
        </g>
      </g>
      <g id="Group_33271" data-name="Group 33271" transform="translate(55.018 99.155)">
        <g id="Group_33267" data-name="Group 33267" transform="translate(3.757)">
          <path id="Path_29096" data-name="Path 29096" d="M-2376.007,2698.4a.487.487,0,0,1-.486-.486v-2.7a.486.486,0,0,1,.486-.486.486.486,0,0,1,.486.486v2.7A.487.487,0,0,1-2376.007,2698.4Z" transform="translate(2376.493 -2694.732)" fill="#fff"/>
        </g>
        <g id="Group_33268" data-name="Group 33268">
          <path id="Path_29097" data-name="Path 29097" d="M-2385.379,2698.4a.487.487,0,0,1-.486-.486v-2.7a.486.486,0,0,1,.486-.486.486.486,0,0,1,.486.486v2.7A.487.487,0,0,1-2385.379,2698.4Z" transform="translate(2385.865 -2694.732)" fill="#fff"/>
        </g>
        <g id="Group_33269" data-name="Group 33269" transform="translate(7.515)">
          <path id="Path_29098" data-name="Path 29098" d="M-2366.635,2698.4a.487.487,0,0,1-.486-.486v-2.7a.486.486,0,0,1,.486-.486.486.486,0,0,1,.486.486v2.7A.487.487,0,0,1-2366.635,2698.4Z" transform="translate(2367.121 -2694.732)" fill="#fff"/>
        </g>
        <g id="Group_33270" data-name="Group 33270" transform="translate(11.272)">
          <path id="Path_29099" data-name="Path 29099" d="M-2357.263,2698.4a.487.487,0,0,1-.486-.486v-2.7a.486.486,0,0,1,.486-.486.486.486,0,0,1,.486.486v2.7A.486.486,0,0,1-2357.263,2698.4Z" transform="translate(2357.749 -2694.732)" fill="#fff"/>
        </g>
      </g>
      <g id="Group_33274" data-name="Group 33274" transform="translate(40.047 87.616)">
        <g id="Group_33272" data-name="Group 33272" transform="translate(0 2.449)">
          <path id="Path_29100" data-name="Path 29100" d="M-2422.721,2698.465a.486.486,0,0,1-.486-.486v-6.246a.486.486,0,0,1,.192-.387l9.691-7.374v-3.807h-7.929a.487.487,0,0,1-.486-.486v-1.946a5.8,5.8,0,0,1,4.468-5.635l.129-.028a.493.493,0,0,1,.195,0l.1.021a5.806,5.806,0,0,1,4.5,5.642v6.48a.486.486,0,0,1-.192.387l-9.69,7.374v6.005A.486.486,0,0,1-2422.721,2698.465Zm1.953-19.272h7.443v-1.46a4.819,4.819,0,0,0-3.709-4.686l-.012,0a4.826,4.826,0,0,0-3.722,4.688Z" transform="translate(2423.207 -2672.06)" fill="#fff"/>
        </g>
        <g id="Group_33273" data-name="Group 33273" transform="translate(5.675)">
          <path id="Path_29101" data-name="Path 29101" d="M-2408.567,2669.373a.487.487,0,0,1-.486-.486v-2.449a.486.486,0,0,1,.486-.486.486.486,0,0,1,.486.486v2.449A.486.486,0,0,1-2408.567,2669.373Z" transform="translate(2409.053 -2665.951)" fill="#fff"/>
        </g>
      </g>
      <g id="Group_33275" data-name="Group 33275" transform="translate(79.795 97.198)">
        <path id="Path_29102" data-name="Path 29102" d="M-2323.58,2695.479a.486.486,0,0,1-.486-.486v-4.656a.486.486,0,0,1,.486-.486.486.486,0,0,1,.486.486v4.656A.486.486,0,0,1-2323.58,2695.479Z" transform="translate(2324.066 -2689.851)" fill="#fff"/>
      </g>
      <g id="Group_33276" data-name="Group 33276" transform="translate(41.514 97.198)">
        <path id="Path_29103" data-name="Path 29103" d="M-2419.062,2695.479a.486.486,0,0,1-.487-.486v-4.656a.486.486,0,0,1,.487-.486.486.486,0,0,1,.486.486v4.656A.486.486,0,0,1-2419.062,2695.479Z" transform="translate(2419.548 -2689.851)" fill="#fff"/>
      </g>
      <g id="Group_33277" data-name="Group 33277" transform="translate(51.431 117.773)">
        <path id="Path_29104" data-name="Path 29104" d="M-2375.879,2751.413a.486.486,0,0,1-.486-.487v-.046a8.747,8.747,0,0,0-8.737-8.737,8.747,8.747,0,0,0-8.737,8.737v.046a.486.486,0,0,1-.486.487.486.486,0,0,1-.486-.487v-.046a9.72,9.72,0,0,1,9.709-9.71,9.72,9.72,0,0,1,9.709,9.71v.046A.486.486,0,0,1-2375.879,2751.413Z" transform="translate(2394.812 -2741.17)" fill="#fff"/>
      </g>
      <g id="Group_33278" data-name="Group 33278" transform="translate(305.532 70.898)">
        <rect id="Rectangle_5238" data-name="Rectangle 5238" width="8.499" height="2.55" fill="#fbae17"/>
      </g>
      <g id="Group_33279" data-name="Group 33279" transform="translate(305.532 76.817)">
        <rect id="Rectangle_5239" data-name="Rectangle 5239" width="8.499" height="2.55" fill="#fbae17"/>
      </g>
      <g id="Group_33280" data-name="Group 33280" transform="translate(305.532 82.736)">
        <rect id="Rectangle_5240" data-name="Rectangle 5240" width="8.499" height="2.55" fill="#fbae17"/>
      </g>
      <g id="Group_33281" data-name="Group 33281" transform="translate(305.532 88.654)">
        <rect id="Rectangle_5241" data-name="Rectangle 5241" width="8.499" height="2.55" fill="#fbae17"/>
      </g>
      <g id="Group_33282" data-name="Group 33282" transform="translate(260.21 48.161)">
        <rect id="Rectangle_5242" data-name="Rectangle 5242" width="3.836" height="3.836" fill="#fbae17"/>
      </g>
      <g id="Group_33283" data-name="Group 33283" transform="translate(260.21 55.229)">
        <rect id="Rectangle_5243" data-name="Rectangle 5243" width="3.836" height="3.836" fill="#fbae17"/>
      </g>
      <g id="Group_33284" data-name="Group 33284" transform="translate(260.21 62.297)">
        <rect id="Rectangle_5244" data-name="Rectangle 5244" width="3.836" height="3.836" fill="#fbae17"/>
      </g>
      <g id="Group_33285" data-name="Group 33285" transform="translate(260.21 69.365)">
        <rect id="Rectangle_5245" data-name="Rectangle 5245" width="3.836" height="3.836" fill="#fbae17"/>
      </g>
      <g id="Group_33286" data-name="Group 33286" transform="translate(111.637 34.876)">
        <rect id="Rectangle_5246" data-name="Rectangle 5246" width="28.668" height="1.869" fill="#30d4c4"/>
      </g>
      <g id="Group_33287" data-name="Group 33287" transform="translate(38.463 63.936)">
        <rect id="Rectangle_5247" data-name="Rectangle 5247" width="8.175" height="2.55" fill="#30d4c4"/>
      </g>
      <g id="Group_33288" data-name="Group 33288" transform="translate(38.463 69.173)">
        <rect id="Rectangle_5248" data-name="Rectangle 5248" width="8.175" height="2.55" fill="#30d4c4"/>
      </g>
      <g id="Group_33289" data-name="Group 33289" transform="translate(38.463 74.409)">
        <rect id="Rectangle_5249" data-name="Rectangle 5249" width="8.175" height="2.55" fill="#30d4c4"/>
      </g>
      <g id="Group_33290" data-name="Group 33290" transform="translate(147.909 90.471)">
        <path id="Path_29105" data-name="Path 29105" d="M-2131.506,2683.8h-19.66a3.007,3.007,0,0,1-3-3v-5.3a.487.487,0,0,1,.184-.381l2.445-1.941a.487.487,0,0,1,.6,0l2.178,1.729,2.142-1.727a.485.485,0,0,1,.6,0l2.181,1.7,2.145-1.7a.486.486,0,0,1,.3-.106h.092a.486.486,0,0,1,.3.106l2.146,1.7,2.181-1.7a.487.487,0,0,1,.6,0l2.142,1.727,2.178-1.729a.487.487,0,0,1,.6,0l2.445,1.941a.487.487,0,0,1,.184.381v5.3A3.007,3.007,0,0,1-2131.506,2683.8Zm-21.691-8.07v5.067a2.033,2.033,0,0,0,2.031,2.031h19.66a2.033,2.033,0,0,0,2.031-2.031v-5.067l-1.958-1.555-2.181,1.731a.488.488,0,0,1-.608,0l-2.145-1.729-2.179,1.7a.486.486,0,0,1-.6,0l-2.188-1.738-2.188,1.738a.486.486,0,0,1-.6,0l-2.179-1.7-2.145,1.729a.487.487,0,0,1-.607,0l-2.181-1.731Z" transform="translate(2154.169 -2673.072)" fill="#fff"/>
      </g>
      <g id="Group_33291" data-name="Group 33291" transform="translate(170.058 100.595)">
        <path id="Path_29106" data-name="Path 29106" d="M-2098.438,2725.744a.486.486,0,0,1-.486-.486v-26.448a.486.486,0,0,1,.486-.487.486.486,0,0,1,.486.487v26.448A.486.486,0,0,1-2098.438,2725.744Z" transform="translate(2098.924 -2698.324)" fill="#fff"/>
      </g>
      <g id="Group_33292" data-name="Group 33292" transform="translate(150.454 100.595)">
        <path id="Path_29107" data-name="Path 29107" d="M-2147.335,2725.744a.486.486,0,0,1-.486-.486v-26.448a.486.486,0,0,1,.486-.487.486.486,0,0,1,.486.487v26.448A.486.486,0,0,1-2147.335,2725.744Z" transform="translate(2147.821 -2698.324)" fill="#fff"/>
      </g>
      <g id="Group_33293" data-name="Group 33293" transform="translate(186.809 90.471)">
        <path id="Path_29108" data-name="Path 29108" d="M-2034.48,2683.8h-19.66a3.007,3.007,0,0,1-3-3v-5.3a.486.486,0,0,1,.184-.381l2.445-1.941a.487.487,0,0,1,.6,0l2.178,1.729,2.142-1.727a.486.486,0,0,1,.6,0l2.181,1.7,2.145-1.7a.488.488,0,0,1,.3-.105h.092a.487.487,0,0,1,.3.105l2.145,1.7,2.181-1.7a.484.484,0,0,1,.6,0l2.142,1.727,2.178-1.729a.487.487,0,0,1,.6,0l2.445,1.941a.486.486,0,0,1,.184.381v5.3A3.007,3.007,0,0,1-2034.48,2683.8Zm-21.691-8.071v5.067a2.033,2.033,0,0,0,2.031,2.031h19.66a2.033,2.033,0,0,0,2.031-2.031v-5.067l-1.958-1.554-2.181,1.73a.487.487,0,0,1-.607,0l-2.145-1.729-2.179,1.7a.486.486,0,0,1-.6,0l-2.189-1.738-2.188,1.738a.486.486,0,0,1-.6,0l-2.179-1.7-2.145,1.729a.487.487,0,0,1-.608,0l-2.181-1.73Z" transform="translate(2057.143 -2673.072)" fill="#fff"/>
      </g>
      <g id="Group_33294" data-name="Group 33294" transform="translate(256.058 95.098)">
        <path id="Path_29109" data-name="Path 29109" d="M-1883.931,2717.577a.486.486,0,0,1-.484-.45.486.486,0,0,1,.449-.521l6.445-.479a10.47,10.47,0,0,0,7.475-3.087,10.43,10.43,0,0,0,3.067-7.44c-.007-2.886.116-5.644.364-8.2a4.159,4.159,0,0,0-2.235-4.124c-1.922-.992-5.156-1.658-9.648.8a.485.485,0,0,1-.473,0,.486.486,0,0,1-.247-.4,6.025,6.025,0,0,1,4.874-6,7.847,7.847,0,0,0-1.811-1.735.486.486,0,0,1-.208-.466.487.487,0,0,1,.324-.4c.063-.021,6.295-2.094,9.57,2.657a.487.487,0,0,1-.125.677.487.487,0,0,1-.676-.125,6.269,6.269,0,0,0-5.254-2.714,10.059,10.059,0,0,0-2.272.192,8.236,8.236,0,0,1,1.69,2.012.486.486,0,0,1,.01.449.488.488,0,0,1-.362.265c-3.643.557-4.519,3.026-4.726,4.333,4.469-2.181,7.764-1.453,9.78-.412a5.127,5.127,0,0,1,2.757,5.082c-.245,2.522-.366,5.248-.359,8.1a11.394,11.394,0,0,1-3.351,8.129,11.4,11.4,0,0,1-8.128,3.372l-6.409.477Z" transform="translate(1884.417 -2684.612)" fill="#fff"/>
      </g>
      <g id="Group_33309" data-name="Group 33309" transform="translate(0 64.415)">
        <g id="Group_33306" data-name="Group 33306" transform="translate(94.299 36.626)">
          <g id="Group_33305" data-name="Group 33305">
            <g id="Group_33295" data-name="Group 33295" transform="translate(13.231)">
              <path id="Path_29110" data-name="Path 29110" d="M-2226.952,2720.9h-2.456a.486.486,0,0,1-.486-.486.486.486,0,0,1,.486-.486h2.456a1.235,1.235,0,0,0,1.234-1.234v-10.885l-2.077-6.676a1.023,1.023,0,0,0-.981-.722h-20.494a1.026,1.026,0,0,0-.9.539l-3.8,7.016a.486.486,0,0,1-.659.2.486.486,0,0,1-.2-.659l3.8-7.016a2,2,0,0,1,1.76-1.049h20.494a1.99,1.99,0,0,1,1.91,1.406l2.121,6.817v11.033A2.209,2.209,0,0,1-2226.952,2720.9Z" transform="translate(2254.885 -2699.435)" fill="#fff"/>
            </g>
            <g id="Group_33296" data-name="Group 33296" transform="translate(0 7.81)">
              <path id="Path_29111" data-name="Path 29111" d="M-2284,2732.567h-3.885v-8.8a3.714,3.714,0,0,1,3.307-3.7l10.356-1.15a.485.485,0,0,1,.537.429.486.486,0,0,1-.43.537l-10.356,1.15a2.743,2.743,0,0,0-2.442,2.729v7.831H-2284a.486.486,0,0,1,.487.486A.486.486,0,0,1-2284,2732.567Z" transform="translate(2287.887 -2718.915)" fill="#fff"/>
            </g>
            <g id="Group_33297" data-name="Group 33297" transform="translate(15.881 20.49)">
              <path id="Path_29112" data-name="Path 29112" d="M-2237.943,2751.515h-9.845a.486.486,0,0,1-.486-.486.487.487,0,0,1,.486-.486h9.845a.487.487,0,0,1,.486.486A.486.486,0,0,1-2237.943,2751.515Z" transform="translate(2248.275 -2750.542)" fill="#fff"/>
            </g>
            <g id="Group_33298" data-name="Group 33298" transform="translate(5.604 15.712)">
              <path id="Path_29113" data-name="Path 29113" d="M-2268.277,2749.887a5.638,5.638,0,0,1-5.632-5.632,5.638,5.638,0,0,1,5.632-5.631,5.638,5.638,0,0,1,5.632,5.631A5.638,5.638,0,0,1-2268.277,2749.887Zm0-10.291a4.664,4.664,0,0,0-4.659,4.659,4.664,4.664,0,0,0,4.659,4.659,4.664,4.664,0,0,0,4.659-4.659A4.664,4.664,0,0,0-2268.277,2739.6Z" transform="translate(2273.909 -2738.624)" fill="#fff"/>
            </g>
            <g id="Group_33299" data-name="Group 33299" transform="translate(9.398 19.506)">
              <path id="Path_29114" data-name="Path 29114" d="M-2262.608,2751.763a1.84,1.84,0,0,1-1.837-1.838,1.839,1.839,0,0,1,1.837-1.837,1.839,1.839,0,0,1,1.838,1.837A1.84,1.84,0,0,1-2262.608,2751.763Z" transform="translate(2264.445 -2748.088)" fill="#e99500"/>
            </g>
            <g id="Group_33300" data-name="Group 33300" transform="translate(28.955 18.94)">
              <circle id="Ellipse_389" data-name="Ellipse 389" cx="1.838" cy="1.838" r="1.838" transform="matrix(0.923, -0.384, 0.384, 0.923, 0, 1.413)" fill="#e99500"/>
            </g>
            <g id="Group_33301" data-name="Group 33301" transform="translate(25.726 15.712)">
              <path id="Path_29115" data-name="Path 29115" d="M-2218.086,2749.887a5.638,5.638,0,0,1-5.632-5.632,5.638,5.638,0,0,1,5.632-5.631,5.638,5.638,0,0,1,5.632,5.631A5.638,5.638,0,0,1-2218.086,2749.887Zm0-10.291a4.664,4.664,0,0,0-4.659,4.659,4.664,4.664,0,0,0,4.659,4.659,4.665,4.665,0,0,0,4.659-4.659A4.664,4.664,0,0,0-2218.086,2739.6Z" transform="translate(2223.718 -2738.624)" fill="#fff"/>
            </g>
            <g id="Group_33302" data-name="Group 33302" transform="translate(42.399 7.81)">
              <path id="Path_29116" data-name="Path 29116" d="M-2179.421,2729.749h-2.225a.486.486,0,0,1-.487-.486.486.486,0,0,1,.487-.486h2.225a1.383,1.383,0,0,0,1.382-1.382v-6.126a1.383,1.383,0,0,0-1.382-1.381h-2.225a.486.486,0,0,1-.487-.486.486.486,0,0,1,.487-.486h2.225a2.357,2.357,0,0,1,2.354,2.354v6.126A2.357,2.357,0,0,1-2179.421,2729.749Z" transform="translate(2182.133 -2718.915)" fill="#fff"/>
            </g>
            <g id="Group_33303" data-name="Group 33303" transform="translate(30.243 3.31)">
              <path id="Path_29117" data-name="Path 29117" d="M-2199.811,2715.6h-12.642v-7.907h7.634l1.782,5.23a.486.486,0,0,1-.3.617.485.485,0,0,1-.617-.3l-1.558-4.572h-5.965v5.962h11.67a.486.486,0,0,1,.486.486A.486.486,0,0,1-2199.811,2715.6Z" transform="translate(2212.453 -2707.691)" fill="#fff"/>
            </g>
            <g id="Group_33304" data-name="Group 33304" transform="translate(16.476 3.31)">
              <path id="Path_29118" data-name="Path 29118" d="M-2241.448,2719.629h-4.858a.486.486,0,0,1-.486-.486.486.486,0,0,1,.486-.486h4.858a5.237,5.237,0,0,0,4.4-2.379,5.244,5.244,0,0,0,.855-2.874v-4.739h-6.025l-1.41,2.566a.486.486,0,0,1-.66.191.486.486,0,0,1-.192-.66l1.688-3.07h7.573v5.712a6.213,6.213,0,0,1-1.014,3.406A6.206,6.206,0,0,1-2241.448,2719.629Z" transform="translate(2246.792 -2707.691)" fill="#fff"/>
            </g>
          </g>
        </g>
        <g id="Group_33307" data-name="Group 33307" transform="translate(125.171 62.628)">
          <path id="Path_29119" data-name="Path 29119" d="M-2185.115,2765.265H-2210.4a.486.486,0,0,1-.486-.486.486.486,0,0,1,.486-.486h25.283a.486.486,0,0,1,.486.486A.486.486,0,0,1-2185.115,2765.265Z" transform="translate(2210.884 -2764.292)" fill="#fff"/>
        </g>
        <g id="Group_33308" data-name="Group 33308">
          <path id="Path_29120" data-name="Path 29120" d="M-2522.61,2683.957a.486.486,0,0,1-.486-.486v-75.39l22.549,10.984v51.644h17.5v-11.3l10.2-7.925h21.782l10.2,7.925v11.3h23.3a.486.486,0,0,1,.486.486.486.486,0,0,1-.486.486h-24.273v-11.793l-9.563-7.429h-21.116l-9.563,7.429v11.793h-19.443v-52.009l-20.6-10.037v73.835A.486.486,0,0,1-2522.61,2683.957Z" transform="translate(2523.096 -2608.08)" fill="#fff"/>
        </g>
      </g>
      <g id="Group_33310" data-name="Group 33310" transform="translate(189.354 100.595)">
        <path id="Path_29121" data-name="Path 29121" d="M-2050.308,2725.744a.486.486,0,0,1-.486-.486v-26.448a.486.486,0,0,1,.486-.487.486.486,0,0,1,.486.487v26.448A.486.486,0,0,1-2050.308,2725.744Z" transform="translate(2050.794 -2698.324)" fill="#fff"/>
      </g>
      <g id="Group_33311" data-name="Group 33311" transform="translate(170.058 108.19)">
        <path id="Path_29122" data-name="Path 29122" d="M-2079.142,2718.24h-19.3a.487.487,0,0,1-.486-.486.486.486,0,0,1,.486-.486h19.3a.486.486,0,0,1,.486.486A.486.486,0,0,1-2079.142,2718.24Z" transform="translate(2098.924 -2717.268)" fill="#fff"/>
      </g>
      <g id="Group_33312" data-name="Group 33312" transform="translate(175.888 115.191)">
        <path id="Path_29123" data-name="Path 29123" d="M-2076.26,2747.554a.486.486,0,0,1-.486-.486v-8.035a3.335,3.335,0,0,0-3.331-3.331,3.335,3.335,0,0,0-3.331,3.331v8.035a.486.486,0,0,1-.486.486.487.487,0,0,1-.486-.486v-8.035a4.309,4.309,0,0,1,4.3-4.3,4.308,4.308,0,0,1,4.3,4.3v8.035A.486.486,0,0,1-2076.26,2747.554Z" transform="translate(2084.381 -2734.729)" fill="#fff"/>
      </g>
      <g id="Group_33313" data-name="Group 33313" transform="translate(158.094 104.54)">
        <path id="Path_29124" data-name="Path 29124" d="M-2123.955,2716.437a.486.486,0,0,1-.486-.486v-5.138a1.677,1.677,0,0,0-1.676-1.675,1.677,1.677,0,0,0-1.676,1.675v5.138a.486.486,0,0,1-.486.486.487.487,0,0,1-.486-.486v-5.138a2.652,2.652,0,0,1,2.649-2.648,2.651,2.651,0,0,1,2.648,2.648v5.138A.486.486,0,0,1-2123.955,2716.437Z" transform="translate(2128.765 -2708.164)" fill="#fff"/>
      </g>
      <g id="Group_33314" data-name="Group 33314" transform="translate(158.094 116.41)">
        <path id="Path_29125" data-name="Path 29125" d="M-2123.955,2746.044a.486.486,0,0,1-.486-.486v-5.138a1.678,1.678,0,0,0-1.676-1.676,1.678,1.678,0,0,0-1.676,1.676v5.138a.486.486,0,0,1-.486.486.487.487,0,0,1-.486-.486v-5.138a2.651,2.651,0,0,1,2.649-2.648,2.651,2.651,0,0,1,2.648,2.648v5.138A.486.486,0,0,1-2123.955,2746.044Z" transform="translate(2128.765 -2737.771)" fill="#fff"/>
      </g>
      <g id="Group_33315" data-name="Group 33315" transform="translate(196.994 104.54)">
        <path id="Path_29126" data-name="Path 29126" d="M-2026.928,2716.437a.486.486,0,0,1-.486-.486v-5.138a1.677,1.677,0,0,0-1.676-1.675,1.677,1.677,0,0,0-1.676,1.675v5.138a.486.486,0,0,1-.486.486.487.487,0,0,1-.486-.486v-5.138a2.652,2.652,0,0,1,2.649-2.648,2.651,2.651,0,0,1,2.648,2.648v5.138A.486.486,0,0,1-2026.928,2716.437Z" transform="translate(2031.739 -2708.164)" fill="#fff"/>
      </g>
      <g id="Group_33316" data-name="Group 33316" transform="translate(196.994 116.41)">
        <path id="Path_29127" data-name="Path 29127" d="M-2026.928,2746.044a.486.486,0,0,1-.486-.486v-5.138a1.678,1.678,0,0,0-1.676-1.676,1.678,1.678,0,0,0-1.676,1.676v5.138a.486.486,0,0,1-.486.486.487.487,0,0,1-.486-.486v-5.138a2.651,2.651,0,0,1,2.649-2.648,2.651,2.651,0,0,1,2.648,2.648v5.138A.486.486,0,0,1-2026.928,2746.044Z" transform="translate(2031.739 -2737.771)" fill="#fff"/>
      </g>
      <g id="Group_33317" data-name="Group 33317" transform="translate(86.39 56.816)">
        <path id="Path_29128" data-name="Path 29128" d="M-2291.632,2615.678h-15.5a.486.486,0,0,1-.486-.486.486.486,0,0,1,.486-.486h14.525v-25.092a.486.486,0,0,1,.486-.486.486.486,0,0,1,.486.486Z" transform="translate(2307.616 -2589.127)" fill="#fff"/>
      </g>
      <g id="Group_33318" data-name="Group 33318" transform="translate(51.918 127.529)">
        <path id="Path_29129" data-name="Path 29129" d="M-2393.6,2765.5" transform="translate(2393.599 -2765.505)" fill="none" stroke="#fff" stroke-linecap="round" stroke-miterlimit="10" stroke-width="2.426"/>
      </g>
      <g id="Group_33319" data-name="Group 33319" transform="translate(70.364 127.529)">
        <path id="Path_29130" data-name="Path 29130" d="M-2347.589,2765.5" transform="translate(2347.589 -2765.505)" fill="none" stroke="#fff" stroke-linecap="round" stroke-miterlimit="10" stroke-width="2.426"/>
      </g>
      <g id="Group_33322" data-name="Group 33322" transform="translate(105.43 60.651)">
        <g id="Group_33320" data-name="Group 33320">
          <rect id="Rectangle_5250" data-name="Rectangle 5250" width="2.774" height="2.774" fill="#fff"/>
        </g>
        <g id="Group_33321" data-name="Group 33321" transform="translate(5.437)">
          <rect id="Rectangle_5251" data-name="Rectangle 5251" width="2.774" height="2.774" fill="#fff"/>
        </g>
      </g>
      <g id="Group_33325" data-name="Group 33325" transform="translate(105.43 66.957)">
        <g id="Group_33323" data-name="Group 33323">
          <rect id="Rectangle_5252" data-name="Rectangle 5252" width="2.774" height="2.774" fill="#fff"/>
        </g>
        <g id="Group_33324" data-name="Group 33324" transform="translate(5.437)">
          <rect id="Rectangle_5253" data-name="Rectangle 5253" width="2.774" height="2.774" fill="#fff"/>
        </g>
      </g>
      <g id="Group_33328" data-name="Group 33328" transform="translate(105.43 73.263)">
        <g id="Group_33326" data-name="Group 33326">
          <rect id="Rectangle_5254" data-name="Rectangle 5254" width="2.774" height="2.774" fill="#fff"/>
        </g>
        <g id="Group_33327" data-name="Group 33327" transform="translate(5.437)">
          <rect id="Rectangle_5255" data-name="Rectangle 5255" width="2.774" height="2.774" fill="#fff"/>
        </g>
      </g>
      <g id="Group_33330" data-name="Group 33330" transform="translate(110.867 79.569)">
        <g id="Group_33329" data-name="Group 33329">
          <rect id="Rectangle_5256" data-name="Rectangle 5256" width="2.774" height="2.774" fill="#fff"/>
        </g>
      </g>
      <g id="Group_33332" data-name="Group 33332" transform="translate(110.867 85.875)">
        <g id="Group_33331" data-name="Group 33331">
          <rect id="Rectangle_5257" data-name="Rectangle 5257" width="2.774" height="2.774" fill="#fff"/>
        </g>
      </g>
      <g id="Group_33333" data-name="Group 33333" transform="translate(89.803 87.991)">
        <path id="Path_29131" data-name="Path 29131" d="M-2290.432,2667.859h-8.185a.486.486,0,0,1-.486-.486.487.487,0,0,1,.486-.487h8.185a.487.487,0,0,1,.486.487A.486.486,0,0,1-2290.432,2667.859Z" transform="translate(2299.103 -2666.886)" fill="#fff"/>
      </g>
      <g id="Group_33334" data-name="Group 33334" transform="translate(89.803 91.687)">
        <path id="Path_29132" data-name="Path 29132" d="M-2290.432,2677.076h-8.185a.486.486,0,0,1-.486-.486.486.486,0,0,1,.486-.486h8.185a.486.486,0,0,1,.486.486A.486.486,0,0,1-2290.432,2677.076Z" transform="translate(2299.103 -2676.104)" fill="#fff"/>
      </g>
      <g id="Group_33335" data-name="Group 33335" transform="translate(89.803 95.383)">
        <path id="Path_29133" data-name="Path 29133" d="M-2290.432,2686.295h-8.185a.486.486,0,0,1-.486-.486.486.486,0,0,1,.486-.486h8.185a.486.486,0,0,1,.486.486A.486.486,0,0,1-2290.432,2686.295Z" transform="translate(2299.103 -2685.322)" fill="#fff"/>
      </g>
      <g id="Group_33338" data-name="Group 33338" transform="translate(138.302 60.651)">
        <g id="Group_33336" data-name="Group 33336" transform="translate(5.437 0)">
          <rect id="Rectangle_5258" data-name="Rectangle 5258" width="2.774" height="2.774" transform="translate(2.774 2.774) rotate(180)" fill="#fff"/>
        </g>
        <g id="Group_33337" data-name="Group 33337" transform="translate(0 0)">
          <rect id="Rectangle_5259" data-name="Rectangle 5259" width="2.774" height="2.774" transform="translate(2.774 2.774) rotate(180)" fill="#fff"/>
        </g>
      </g>
      <g id="Group_33341" data-name="Group 33341" transform="translate(138.302 66.957)">
        <g id="Group_33339" data-name="Group 33339" transform="translate(5.437 0)">
          <rect id="Rectangle_5260" data-name="Rectangle 5260" width="2.774" height="2.774" transform="translate(2.774 2.774) rotate(180)" fill="#fff"/>
        </g>
        <g id="Group_33340" data-name="Group 33340" transform="translate(0 0)">
          <rect id="Rectangle_5261" data-name="Rectangle 5261" width="2.774" height="2.774" transform="translate(2.774 2.774) rotate(180)" fill="#fff"/>
        </g>
      </g>
      <g id="Group_33344" data-name="Group 33344" transform="translate(138.302 73.263)">
        <g id="Group_33342" data-name="Group 33342" transform="translate(5.437 0)">
          <rect id="Rectangle_5262" data-name="Rectangle 5262" width="2.774" height="2.774" transform="translate(2.774 2.774) rotate(180)" fill="#fff"/>
        </g>
        <g id="Group_33343" data-name="Group 33343" transform="translate(0 0)">
          <rect id="Rectangle_5263" data-name="Rectangle 5263" width="2.774" height="2.774" transform="translate(2.774 2.774) rotate(180)" fill="#fff"/>
        </g>
      </g>
      <g id="Group_33346" data-name="Group 33346" transform="translate(138.302 79.569)">
        <g id="Group_33345" data-name="Group 33345" transform="translate(0 0)">
          <rect id="Rectangle_5264" data-name="Rectangle 5264" width="2.774" height="2.774" transform="translate(2.774 2.774) rotate(180)" fill="#fff"/>
        </g>
      </g>
      <g id="Group_33348" data-name="Group 33348" transform="translate(138.302 85.875)">
        <g id="Group_33347" data-name="Group 33347" transform="translate(0 0)">
          <rect id="Rectangle_5265" data-name="Rectangle 5265" width="2.774" height="2.774" transform="translate(2.774 2.774) rotate(180)" fill="#fff"/>
        </g>
      </g>
      <g id="Group_33349" data-name="Group 33349" transform="translate(239.257 87.183)">
        <path id="Path_29134" data-name="Path 29134" d="M-1918.294,2665.843h-7.543a.486.486,0,0,1-.486-.486.486.486,0,0,1,.486-.486h7.543a.486.486,0,0,1,.486.486A.486.486,0,0,1-1918.294,2665.843Z" transform="translate(1926.323 -2664.87)" fill="#fff"/>
      </g>
      <g id="Group_33350" data-name="Group 33350" transform="translate(208.958 87.183)">
        <path id="Path_29135" data-name="Path 29135" d="M-1989.158,2705.271H-2001.9v-26.5a.486.486,0,0,1,.486-.486.486.486,0,0,1,.486.486V2704.3h10.791V2676.01a11.152,11.152,0,0,1,11.14-11.139.486.486,0,0,1,.486.486.486.486,0,0,1-.486.486,10.178,10.178,0,0,0-10.167,10.167Z" transform="translate(2001.895 -2664.87)" fill="#fff"/>
      </g>
      <g id="Group_33351" data-name="Group 33351" transform="translate(226.982 93.686)">
        <path id="Path_29136" data-name="Path 29136" d="M-1952.059,2681.091a4.88,4.88,0,0,0-4.88,4.88v7.579h4.88Z" transform="translate(1956.939 -2681.091)" fill="#fbae17"/>
      </g>
      <g id="Group_33352" data-name="Group 33352" transform="translate(226.496 110.309)">
        <path id="Path_29137" data-name="Path 29137" d="M-1952.786,2723.526h-4.88a.486.486,0,0,1-.486-.486.486.486,0,0,1,.486-.486h4.88a.487.487,0,0,1,.486.486A.487.487,0,0,1-1952.786,2723.526Z" transform="translate(1958.152 -2722.553)" fill="#fff"/>
      </g>
      <g id="Group_33353" data-name="Group 33353" transform="translate(226.496 113.925)">
        <path id="Path_29138" data-name="Path 29138" d="M-1952.786,2732.545h-4.88a.486.486,0,0,1-.486-.486.486.486,0,0,1,.486-.486h4.88a.487.487,0,0,1,.486.486A.486.486,0,0,1-1952.786,2732.545Z" transform="translate(1958.152 -2731.572)" fill="#fff"/>
      </g>
      <g id="Group_33354" data-name="Group 33354" transform="translate(226.496 117.542)">
        <path id="Path_29139" data-name="Path 29139" d="M-1952.786,2741.566h-4.88a.486.486,0,0,1-.486-.487.486.486,0,0,1,.486-.486h4.88a.487.487,0,0,1,.486.486A.487.487,0,0,1-1952.786,2741.566Z" transform="translate(1958.152 -2740.593)" fill="#fff"/>
      </g>
      <g id="Group_33355" data-name="Group 33355" transform="translate(226.496 121.158)">
        <path id="Path_29140" data-name="Path 29140" d="M-1952.786,2750.585h-4.88a.486.486,0,0,1-.486-.487.486.486,0,0,1,.486-.486h4.88a.487.487,0,0,1,.486.486A.487.487,0,0,1-1952.786,2750.585Z" transform="translate(1958.152 -2749.612)" fill="#fff"/>
      </g>
    </g>
    <g id="Group_33366" data-name="Group 33366" transform="translate(-2329.012 2442.987)">
      <g id="Group_33361" data-name="Group 33361" transform="translate(22.102 0)">
        <g id="Group_33357" data-name="Group 33357" transform="translate(0 2.336)">
          <path id="Path_29141" data-name="Path 29141" d="M-1983.869,2461.359l.606-1.576h4.35a4.7,4.7,0,0,0,4.7-4.7,4.652,4.652,0,0,0-.944-2.824,4.74,4.74,0,0,0-2.268-1.631l.7-1.816h5.871a8.223,8.223,0,0,0-.986,1.576h-2.9l.213.208a6.221,6.221,0,0,1,1.894,4.488,6.279,6.279,0,0,1-6.272,6.272Z" transform="translate(1983.869 -2448.815)" fill="#fff"/>
        </g>
        <g id="Group_33358" data-name="Group 33358" transform="translate(14.326 2.336)">
          <path id="Path_29142" data-name="Path 29142" d="M-1943.032,2459.022a5.11,5.11,0,0,1-5.1-5.1,5.11,5.11,0,0,1,5.1-5.1h2.567l-.606,1.576h-1.961a3.532,3.532,0,0,0-3.528,3.528,3.532,3.532,0,0,0,3.528,3.528,3.513,3.513,0,0,0,3.275-2.216l.067-.166h-2.927l.606-1.576h4.065c.013.144.019.288.019.43a5.109,5.109,0,0,1-5.1,5.1" transform="translate(1948.136 -2448.815)" fill="#fff"/>
        </g>
        <g id="Group_33359" data-name="Group 33359" transform="translate(0.915)">
          <path id="Path_29143" data-name="Path 29143" d="M-1981.587,2455.531l.606-1.576h3.434a2.362,2.362,0,0,0,2.359-2.359,2.362,2.362,0,0,0-2.359-2.359h-1.621l2.413-6.25h10.227a8.141,8.141,0,0,0-2.279,1.576h-7.04l-1.194,3.128.146.024a3.92,3.92,0,0,1,3.283,3.88,3.94,3.94,0,0,1-3.936,3.935Z" transform="translate(1981.587 -2442.987)" fill="#fff"/>
        </g>
        <g id="Group_33360" data-name="Group 33360" transform="translate(11.989)">
          <path id="Path_29144" data-name="Path 29144" d="M-1946.524,2457.868a7.449,7.449,0,0,1-7.44-7.44,7.449,7.449,0,0,1,7.44-7.44h3.478l-.606,1.576h-2.872a5.871,5.871,0,0,0-5.864,5.864,5.871,5.871,0,0,0,5.864,5.864,5.871,5.871,0,0,0,5.864-5.864,5.875,5.875,0,0,0-.1-1.093l-.018-.1h-4.419l.606-1.576h4.979a7.4,7.4,0,0,1,.533,2.767,7.449,7.449,0,0,1-7.44,7.44" transform="translate(1953.964 -2442.987)" fill="#fff"/>
        </g>
      </g>
      <g id="Group_33365" data-name="Group 33365" transform="translate(0 6.425)">
        <g id="Group_33362" data-name="Group 33362" transform="translate(0 6.906)">
          <path id="Path_29145" data-name="Path 29145" d="M-2020.983,2478.005h-17.132a.883.883,0,0,1-.882-.883.882.882,0,0,1,.882-.882h17.132a.883.883,0,0,1,.882.882A.883.883,0,0,1-2020.983,2478.005Z" transform="translate(2038.997 -2476.24)" fill="#fff"/>
        </g>
        <g id="Group_33363" data-name="Group 33363" transform="translate(4.122 3.453)">
          <path id="Path_29146" data-name="Path 29146" d="M-2013.1,2469.392h-14.737a.882.882,0,0,1-.882-.883.882.882,0,0,1,.882-.882h14.737a.883.883,0,0,1,.883.882A.883.883,0,0,1-2013.1,2469.392Z" transform="translate(2028.715 -2467.627)" fill="#fff"/>
        </g>
        <g id="Group_33364" data-name="Group 33364" transform="translate(6.424)">
          <path id="Path_29147" data-name="Path 29147" d="M-2007.354,2460.779h-14.736a.882.882,0,0,1-.883-.882.882.882,0,0,1,.883-.883h14.736a.883.883,0,0,1,.882.883A.883.883,0,0,1-2007.354,2460.779Z" transform="translate(2022.973 -2459.014)" fill="#fff"/>
        </g>
      </g>
    </g>
    <g id="Group_33376" data-name="Group 33376" transform="translate(-2503.056 2461.568)">
      <g id="Group_33371" data-name="Group 33371" transform="translate(0 0)">
        <g id="Group_33367" data-name="Group 33367" transform="translate(0 1.278)">
          <path id="Path_29148" data-name="Path 29148" d="M-2473.111,2499.38l.332-.862h2.378a2.57,2.57,0,0,0,2.567-2.567,2.545,2.545,0,0,0-.516-1.544,2.593,2.593,0,0,0-1.24-.892l.383-.993h3.21a4.467,4.467,0,0,0-.539.862h-1.588l.116.113a3.4,3.4,0,0,1,1.036,2.454,3.433,3.433,0,0,1-3.429,3.429Z" transform="translate(2473.111 -2492.521)" fill="#fff"/>
        </g>
        <g id="Group_33368" data-name="Group 33368" transform="translate(7.833 1.278)">
          <path id="Path_29149" data-name="Path 29149" d="M-2450.783,2498.1a2.793,2.793,0,0,1-2.791-2.79,2.794,2.794,0,0,1,2.791-2.79h1.4l-.332.862h-1.072a1.931,1.931,0,0,0-1.929,1.929,1.931,1.931,0,0,0,1.929,1.929,1.921,1.921,0,0,0,1.791-1.212l.036-.091h-1.6l.331-.862H-2448c.007.079.01.158.01.235a2.793,2.793,0,0,1-2.791,2.79" transform="translate(2453.573 -2492.521)" fill="#fff"/>
        </g>
        <g id="Group_33369" data-name="Group 33369" transform="translate(0.5)">
          <path id="Path_29150" data-name="Path 29150" d="M-2471.863,2496.192l.332-.862h1.877a1.292,1.292,0,0,0,1.29-1.29,1.291,1.291,0,0,0-1.29-1.29h-.886l1.319-3.417h5.592a4.449,4.449,0,0,0-1.246.862h-3.849l-.653,1.71.08.013a2.143,2.143,0,0,1,1.795,2.121,2.154,2.154,0,0,1-2.152,2.152Z" transform="translate(2471.863 -2489.334)" fill="#fff"/>
        </g>
        <g id="Group_33370" data-name="Group 33370" transform="translate(6.555)">
          <path id="Path_29151" data-name="Path 29151" d="M-2452.692,2497.47a4.073,4.073,0,0,1-4.068-4.068,4.073,4.073,0,0,1,4.068-4.068h1.9l-.331.862h-1.57a3.21,3.21,0,0,0-3.206,3.206,3.21,3.21,0,0,0,3.206,3.206,3.209,3.209,0,0,0,3.206-3.206,3.2,3.2,0,0,0-.057-.6l-.01-.054h-2.416l.332-.861h2.722a4.042,4.042,0,0,1,.291,1.512,4.073,4.073,0,0,1-4.068,4.068" transform="translate(2456.76 -2489.334)" fill="#fff"/>
        </g>
      </g>
      <g id="Group_33375" data-name="Group 33375" transform="translate(15.185 0.025)">
        <g id="Group_33372" data-name="Group 33372" transform="translate(2.203 3.776)">
          <path id="Path_29152" data-name="Path 29152" d="M-2419.891,2499.781h-9.368a.482.482,0,0,1-.482-.482.482.482,0,0,1,.482-.483h9.368a.482.482,0,0,1,.482.483A.482.482,0,0,1-2419.891,2499.781Z" transform="translate(2429.741 -2498.816)" fill="#ed1c24"/>
        </g>
        <g id="Group_33373" data-name="Group 33373" transform="translate(1.259 1.888)">
          <path id="Path_29153" data-name="Path 29153" d="M-2423.556,2495.071h-8.057a.483.483,0,0,1-.483-.482.483.483,0,0,1,.483-.483h8.057a.482.482,0,0,1,.482.483A.482.482,0,0,1-2423.556,2495.071Z" transform="translate(2432.096 -2494.106)" fill="#ed1c24"/>
        </g>
        <g id="Group_33374" data-name="Group 33374">
          <path id="Path_29154" data-name="Path 29154" d="M-2426.7,2490.362h-8.057a.482.482,0,0,1-.482-.482.482.482,0,0,1,.482-.483h8.057a.482.482,0,0,1,.483.483A.482.482,0,0,1-2426.7,2490.362Z" transform="translate(2435.235 -2489.397)" fill="#ed1c24"/>
        </g>
      </g>
    </g>
    <g id="Group_33379" data-name="Group 33379" transform="translate(-2203.633 2467.495)">
      <g id="Group_33377" data-name="Group 33377" transform="translate(0 0)">
        <path id="Path_29155" data-name="Path 29155" d="M-1713.259,2504.124l-11.73-.008a1.274,1.274,0,0,0-1.273,1.273l0,6.2a1.274,1.274,0,0,0,1.272,1.273l8.787.006a4.026,4.026,0,0,0,2.048-.662l1.22-.879a2.537,2.537,0,0,0,.949-1.855l0-4.074a1.275,1.275,0,0,0-1.272-1.274Zm.85,5.348a2.106,2.106,0,0,1-.776,1.515l-1.218.879a3.6,3.6,0,0,1-1.8.583l-8.788-.006a.854.854,0,0,1-.852-.854l0-6.2a.854.854,0,0,1,.853-.853l11.728.007a.855.855,0,0,1,.854.855Zm0,0" transform="translate(1726.266 -2504.116)" fill="#fff"/>
      </g>
      <g id="Group_33378" data-name="Group 33378" transform="translate(1.134 1.238)">
        <path id="Path_29156" data-name="Path 29156" d="M-1716.846,2507.208l-5.422,0a1.17,1.17,0,0,0-1.168,1.168l0,4a1.169,1.169,0,0,0,1.166,1.169l5.421,0a1.171,1.171,0,0,0,1.17-1.168l0-4a1.171,1.171,0,0,0-1.168-1.17Zm-6.1,1.181h2.365c.155,0,.209.1.135.241a3.309,3.309,0,0,0-.279.7.374.374,0,0,1-.342.273h-1.88a.28.28,0,0,1-.28-.28v-.653a.28.28,0,0,1,.28-.28Zm0,1.424h1.849a.242.242,0,0,1,.255.254c-.005.082-.008.166-.007.255a2.592,2.592,0,0,0,.031.381.221.221,0,0,1-.223.274h-1.906a.28.28,0,0,1-.28-.28v-.607a.279.279,0,0,1,.281-.279Zm0,1.376h1.971a.457.457,0,0,1,.382.26,3.176,3.176,0,0,0,.395.641c.1.122.057.211-.1.211h-2.651a.281.281,0,0,1-.28-.28v-.553a.279.279,0,0,1,.28-.279Zm1.692,2.146h-1.016a.953.953,0,0,1-.865-.557.193.193,0,0,1,.2-.268h1.68a.28.28,0,0,1,.279.281v.264a.28.28,0,0,1-.28.28Zm2.87,0h-2.1a.281.281,0,0,1-.28-.28v-.264a.28.28,0,0,1,.281-.28h2.1a.28.28,0,0,1,.28.281v.263a.28.28,0,0,1-.28.28Zm.769,0a.28.28,0,0,1-.28-.28v-.264a.28.28,0,0,1,.28-.28h1.431a.194.194,0,0,1,.2.268.955.955,0,0,1-.867.555Zm1.445-1.032-2.651,0c-.155,0-.192-.09-.1-.212a3.106,3.106,0,0,0,.417-.7.447.447,0,0,1,.379-.262h1.951a.279.279,0,0,1,.28.28v.61a.28.28,0,0,1-.281.28Zm0-1.379h-1.893a.227.227,0,0,1-.229-.275,2.486,2.486,0,0,0,.025-.325c0-.1,0-.2-.008-.288a.248.248,0,0,1,.249-.278h1.856a.279.279,0,0,1,.28.279v.607a.28.28,0,0,1-.28.28Zm0-1.376h-1.891a.384.384,0,0,1-.348-.272,3.29,3.29,0,0,0-.262-.647c-.072-.135-.019-.239.135-.239l2.366,0a.28.28,0,0,1,.28.281v.6a.28.28,0,0,1-.28.28Zm-3.013-1.281.079.088a3.055,3.055,0,0,1,.626,1.965,2.769,2.769,0,0,1-.719,1.77.6.6,0,0,1-.364.2.6.6,0,0,1-.365-.2,2.773,2.773,0,0,1-.717-1.771,3.057,3.057,0,0,1,.63-1.965l.078-.087c.044-.049-.047-.087-.2-.087l-2.794,0c-.154,0-.257-.126-.183-.263a.955.955,0,0,1,.842-.5l5.421,0a.96.96,0,0,1,.843.5c.073.137-.03.262-.185.262l-2.793,0c-.155,0-.245.038-.2.087Zm0,0" transform="translate(1723.438 -2507.205)" fill="#fff"/>
      </g>
    </g>
    <g id="Group_33388" data-name="Group 33388" transform="translate(-2249.18 2447.484)">
      <g id="Group_33382" data-name="Group 33382" transform="translate(2.686 1.85)">
        <g id="Group_33380" data-name="Group 33380" transform="translate(3.103 9.189)">
          <path id="Path_29157" data-name="Path 29157" d="M-1822.479,2481.737l6.883,2.4.048.426-.952.6a2.451,2.451,0,0,1-1.474.371l-7.461-.492.031-.475,7.461.492a1.992,1.992,0,0,0,1.19-.3l.532-.333-6.415-2.238Z" transform="translate(1825.435 -2481.737)" fill="#fff"/>
        </g>
        <g id="Group_33381" data-name="Group 33381">
          <path id="Path_29158" data-name="Path 29158" d="M-1832.2,2458.817l.426.048,2.432,6.97-.449.156-2.268-6.5-.333.531a1.984,1.984,0,0,0-.3,1.191l.492,7.461-.475.031-.492-7.461a2.455,2.455,0,0,1,.372-1.474Z" transform="translate(1833.174 -2458.817)" fill="#fff"/>
        </g>
      </g>
      <g id="Group_33385" data-name="Group 33385" transform="translate(1.713 7.152)">
        <g id="Group_33383" data-name="Group 33383">
          <path id="Path_29159" data-name="Path 29159" d="M-1834.339,2472.041l.313.358-1.077.944.146.145.658-.75.358.313-.691.789a.432.432,0,0,1-.307.146.433.433,0,0,1-.318-.126l-.216-.216a.431.431,0,0,1-.125-.314.435.435,0,0,1,.145-.31Z" transform="translate(1835.6 -2472.041)" fill="#fff"/>
        </g>
        <g id="Group_33384" data-name="Group 33384" transform="translate(6.716 7.017)">
          <path id="Path_29160" data-name="Path 29160" d="M-1817.932,2489.543l.313.358-.733.643.146.144.944-1.077.358.314-.978,1.115a.427.427,0,0,1-.309.146.431.431,0,0,1-.315-.125l-.217-.217a.432.432,0,0,1-.125-.318.43.43,0,0,1,.146-.308Z" transform="translate(1818.85 -2489.543)" fill="#fff"/>
        </g>
      </g>
      <g id="Group_33386" data-name="Group 33386" transform="translate(0 3.865)">
        <path id="Path_29161" data-name="Path 29161" d="M-1827.337,2463.844l.185.438a12.948,12.948,0,0,0-3.948,2.594l-4.639,4.444a16.668,16.668,0,0,0-3.619,5.078.447.447,0,0,0,.09.5.449.449,0,0,0,.5.09,16.662,16.662,0,0,0,5.077-3.619l4.444-4.639a12.953,12.953,0,0,0,2.6-3.973l.439.183a13.438,13.438,0,0,1-2.7,4.119l-4.445,4.638a17.131,17.131,0,0,1-5.221,3.722.926.926,0,0,1-1.036-.186.924.924,0,0,1-.186-1.035,17.147,17.147,0,0,1,3.722-5.222l4.639-4.444A13.425,13.425,0,0,1-1827.337,2463.844Z" transform="translate(1839.873 -2463.844)" fill="#fff"/>
      </g>
      <g id="Group_33387" data-name="Group 33387" transform="translate(11.991 0)">
        <path id="Path_29162" data-name="Path 29162" d="M-1809.307,2454.2l.395.1,1.044,3.309,3.309,1.045.1.4-.346.345a1.068,1.068,0,0,1-.9.3l-3.562-.485-.2-.2-.485-3.562a1.068,1.068,0,0,1,.3-.9Zm4.231,4.785-3.053-.964-.155-.155-.964-3.053-.069.068a.591.591,0,0,0-.167.5l.461,3.383,3.382.461a.591.591,0,0,0,.5-.167Z" transform="translate(1809.964 -2454.203)" fill="#fff"/>
      </g>
    </g>
  </g>
</svg>
