<svg xmlns="http://www.w3.org/2000/svg" xmlns:xlink="http://www.w3.org/1999/xlink" width="101.517" height="17.868" viewBox="0 0 101.517 17.868">
  <defs>
    <clipPath id="clip-path">
      <rect width="101.517" height="17.868" fill="none"/>
    </clipPath>
  </defs>
  <g id="Top_Bar_logo_red" data-name="Top Bar/logo/red" clip-path="url(#clip-path)">
    <g id="Group" transform="translate(-0.069 -0.883)">
      <path id="Fill_1" data-name="Fill 1" d="M2.589,0A2.62,2.62,0,0,0,0,2.645,2.621,2.621,0,0,0,2.589,5.291,2.624,2.624,0,0,0,5.182,2.645,2.623,2.623,0,0,0,2.589,0" transform="translate(62.239 7.172)" fill="#ed1c24"/>
      <path id="Fill_3" data-name="Fill 3" d="M92.766,0a8.68,8.68,0,0,0-7,3.573,8.646,8.646,0,0,0-14,0,8.884,8.884,0,0,0-2.39-2.234l-.01,7.593a4.606,4.606,0,1,1-4.6-4.7,4.5,4.5,0,0,1,2.4.694l.186.117L67.35.4A8.578,8.578,0,0,0,64.761,0a8.681,8.681,0,0,0-7,3.573,8.645,8.645,0,0,0-14,0,8.646,8.646,0,0,0-14,0,8.646,8.646,0,0,0-14,0A8.68,8.68,0,0,0,8.751,0,8.844,8.844,0,0,0,0,8.933a8.845,8.845,0,0,0,8.751,8.934,8.681,8.681,0,0,0,7-3.574,8.645,8.645,0,0,0,14,0,8.645,8.645,0,0,0,14,0,8.644,8.644,0,0,0,14,0,8.645,8.645,0,0,0,14,0,8.645,8.645,0,0,0,14,0,8.68,8.68,0,0,0,7,3.574,8.845,8.845,0,0,0,8.751-8.934A8.844,8.844,0,0,0,92.766,0" transform="translate(0.069 0.883)" fill="#ed1c24"/>
      <path id="Fill_6" data-name="Fill 6" d="M4.609,13.237a4.7,4.7,0,0,1,0-9.4,4.5,4.5,0,0,1,2.4.695l.185.117L7.2,0A8.646,8.646,0,0,1,9.221.943L9.211,8.536A4.658,4.658,0,0,1,4.609,13.237Zm0-7.347a2.646,2.646,0,0,0,0,5.291,2.646,2.646,0,0,0,0-5.291Z" transform="translate(60.22 1.281)" fill="#fff"/>
      <path id="Fill_8" data-name="Fill 8" d="M4.606,9.4A4.66,4.66,0,0,1,0,4.7,4.659,4.659,0,0,1,4.606,0a4.658,4.658,0,0,1,4.6,4.7A4.658,4.658,0,0,1,4.606,9.4Zm0-7.346a2.646,2.646,0,0,0,0,5.291A2.622,2.622,0,0,0,7.2,4.7,2.62,2.62,0,0,0,4.606,2.056Z" transform="translate(74.228 5.116)" fill="#fff"/>
      <path id="Fill_10" data-name="Fill 10" d="M4.607,9.4A4.66,4.66,0,0,1,0,4.7,4.66,4.66,0,0,1,4.607,0,4.659,4.659,0,0,1,9.212,4.7,4.659,4.659,0,0,1,4.607,9.4Zm0-7.346A2.621,2.621,0,0,0,2.017,4.7a2.622,2.622,0,0,0,2.59,2.647A2.622,2.622,0,0,0,7.2,4.7,2.62,2.62,0,0,0,4.607,2.056Z" transform="translate(88.228 5.116)" fill="#fff"/>
      <path id="Fill_12" data-name="Fill 12" d="M4.608,9.4A4.661,4.661,0,0,1,0,4.7,4.66,4.66,0,0,1,4.608,0a4.657,4.657,0,0,1,4.6,4.7A4.658,4.658,0,0,1,4.608,9.4Zm0-7.346A2.621,2.621,0,0,0,2.017,4.7,2.622,2.622,0,0,0,4.608,7.348,2.621,2.621,0,0,0,7.2,4.7,2.62,2.62,0,0,0,4.608,2.056Z" transform="translate(18.218 5.116)" fill="#fff"/>
      <path id="Fill_14" data-name="Fill 14" d="M4.608,9.4A4.661,4.661,0,0,1,0,4.7,4.66,4.66,0,0,1,4.608,0a4.658,4.658,0,0,1,4.6,4.7A4.658,4.658,0,0,1,4.608,9.4Zm0-7.346a2.646,2.646,0,0,0,0,5.291A2.622,2.622,0,0,0,7.2,4.7,2.621,2.621,0,0,0,4.608,2.056Z" transform="translate(4.215 5.116)" fill="#fff"/>
      <path id="Fill_16" data-name="Fill 16" d="M4.764,9.407c-.152,0-.289,0-.42-.014l-.107-.007L4.09,9.373A4.656,4.656,0,0,1,0,4.7,4.661,4.661,0,0,1,4.606,0,4.66,4.66,0,0,1,9.212,4.7a4.391,4.391,0,0,1-.085.889l-6.951,0,.139.342A2.585,2.585,0,0,0,4.111,7.3a3.671,3.671,0,0,0,.69.064l.115,0a2.72,2.72,0,0,0,1.74-.648l.058-.055L8.587,7.679l-.087.1A4.528,4.528,0,0,1,4.924,9.4C4.876,9.4,4.823,9.407,4.764,9.407ZM4.606,2.059a2.574,2.574,0,0,0-2.4,1.65l-.013.03,4.815.006L7,3.715A2.556,2.556,0,0,0,4.606,2.059Z" transform="translate(46.222 5.113)" fill="#fff"/>
      <path id="Fill_18" data-name="Fill 18" d="M0,9.162,0,4.7l.007-.259A4.648,4.648,0,0,1,4.612,0,4.572,4.572,0,0,1,8.726,2.6l-1.779.966A2.594,2.594,0,0,0,4.612,2.057,2.622,2.622,0,0,0,2.02,4.7l0,4.46Z" transform="translate(32.494 5.119)" fill="#fff"/>
    </g>
  </g>
</svg>
