<svg xmlns="http://www.w3.org/2000/svg" xmlns:xlink="http://www.w3.org/1999/xlink" width="47.57" height="47.57" viewBox="0 0 47.57 47.57"><defs><style>.a{fill:#e71c25;}.b{fill:none;}.c{clip-path:url(#a);}.d{clip-path:url(#b);}.e{fill:#fff;}</style><clipPath id="a"><path class="a" d="M0,0H47.57V47.57H0Z"/></clipPath><clipPath id="b"><path class="b" d="M0,47.57H47.57V0H0Z"/></clipPath></defs><path class="b" d="M0,0H47.57V47.57H0Z"/><g class="c"><path class="a" d="M47.57,23.785A23.785,23.785,0,1,1,23.785,0,23.785,23.785,0,0,1,47.57,23.785" transform="translate(0 0)"/></g><path class="b" d="M0,47.57H47.57V0H0Z"/><g class="d"><path class="e" d="M5.349,6.229H.842A.843.843,0,0,1,0,5.388V.842A.843.843,0,0,1,.842,0H5.349a.843.843,0,0,1,.842.842V5.388A.843.843,0,0,1,5.349,6.229ZM1.683,1.683V4.546H4.508V1.683Z" transform="translate(25.197 26.511)"/><path class="e" d="M23.381,26.927H5.349a3.1,3.1,0,0,1-3.1-3.1V13.159A3.55,3.55,0,0,1,0,9.857v-2.7a.837.837,0,0,1,.032-.231L1.216,2.778A4,4,0,0,1,4.9,0H23.831a4,4,0,0,1,3.682,2.778L28.7,6.922a.854.854,0,0,1,.032.231v2.7a3.551,3.551,0,0,1-2.253,3.3V23.831A3.1,3.1,0,0,1,23.381,26.927ZM7.6,18.482h4.508a.843.843,0,0,1,.841.842v5.92H23.381a1.414,1.414,0,0,0,1.412-1.413V13.382a3.533,3.533,0,0,1-2.314-1.235,3.539,3.539,0,0,1-5.409,0,3.539,3.539,0,0,1-5.409,0,3.539,3.539,0,0,1-5.409,0,3.535,3.535,0,0,1-2.314,1.235V23.831a1.414,1.414,0,0,0,1.412,1.413H6.762v-5.92A.843.843,0,0,1,7.6,18.482Zm.842,1.684v5.078h2.824V20.166ZM23.321,7.995V9.857a1.863,1.863,0,1,0,3.726,0V7.995Zm-5.409,0V9.857a1.863,1.863,0,1,0,3.726,0V7.995Zm-5.41,0V9.857a1.863,1.863,0,0,0,3.726,0V7.995Zm-5.409,0V9.857a1.863,1.863,0,0,0,3.726,0V7.995Zm-5.409,0V9.857a1.863,1.863,0,0,0,3.726,0V7.995ZM4.9,1.683A2.34,2.34,0,0,0,2.835,3.24L1.957,6.311H26.773L25.895,3.24a2.34,2.34,0,0,0-2.064-1.557Z" transform="translate(9.42 10.321)"/></g></svg>