<svg xmlns="http://www.w3.org/2000/svg" xmlns:xlink="http://www.w3.org/1999/xlink" width="41" height="42" viewBox="0 0 41 42"><defs><style>.a,.b{fill:none;}.a{clip-rule:evenodd;}.c{clip-path:url(#a);}.d{clip-path:url(#b);}.e{isolation:isolate;}.f{clip-path:url(#c);}.g{clip-path:url(#d);}.h{fill:#ededed;}.i{clip-path:url(#e);}.j{fill:#eb2226;}.k{clip-path:url(#g);}.l{clip-path:url(#i);}.m{clip-path:url(#k);}.n{clip-path:url(#m);}</style><clipPath id="a"><path class="a" d="M60.268-371.208a20.755,20.755,0,0,0,20.5-21,20.754,20.754,0,0,0-20.5-21,20.754,20.754,0,0,0-20.5,21A20.755,20.755,0,0,0,60.268-371.208Z"/></clipPath><clipPath id="b"><path class="b" d="M39.768-371.228h41.28v-41.98H39.768Z"/></clipPath><clipPath id="c"><rect class="b" width="52" height="53" transform="translate(34 -419)"/></clipPath><clipPath id="d"><path class="b" d="M39-371H81v-43H39Z"/></clipPath><clipPath id="e"><path class="a" d="M52.65-401.964l2.676-2.388L58-401.964l2.672-2.388,2.675,2.388,2.679-2.388,2.68,2.388,2.68-2.388.038.035V-369.7a3.537,3.537,0,0,1-3.495,3.579H53.512a3.536,3.536,0,0,1-3.493-3.579v-34.612Z"/></clipPath><clipPath id="g"><path class="a" d="M53.618-388.008H67.943a.525.525,0,0,1,.525.525h0a.525.525,0,0,1-.525.525H53.618a.525.525,0,0,1-.525-.525h0A.525.525,0,0,1,53.618-388.008Z"/></clipPath><clipPath id="i"><path class="a" d="M64.343-396.408h3.125a1,1,0,0,1,1,1v3.25a1,1,0,0,1-1,1H64.343a1,1,0,0,1-1-1v-3.25A1,1,0,0,1,64.343-396.408Z"/></clipPath><clipPath id="k"><path class="a" d="M53.618-383.808H67.943a.525.525,0,0,1,.525.525h0a.525.525,0,0,1-.525.525H53.618a.525.525,0,0,1-.525-.525h0A.525.525,0,0,1,53.618-383.808Z"/></clipPath><clipPath id="m"><path class="a" d="M53.618-379.608H67.943a.525.525,0,0,1,.525.525h0a.525.525,0,0,1-.525.525H53.618a.525.525,0,0,1-.525-.525h0A.525.525,0,0,1,53.618-379.608Z"/></clipPath></defs><g class="c" transform="translate(-39.768 413.208)"><g class="d"><g class="e"><g class="f"><g class="g"><path class="h" d="M34.768-418.208h51v52h-51Z"/></g><g class="i"><g class="g"><path class="j" d="M45.018-361.124H76.427v-48.228H45.018Z"/></g></g><g class="k"><g class="g"><path class="h" d="M48.093-393.008H73.468v11.05H48.093Z"/></g></g><g class="l"><g class="g"><path class="h" d="M58.343-401.408H73.468v15.25H58.343Z"/></g></g><g class="m"><g class="g"><path class="h" d="M48.093-388.808H73.468v11.05H48.093Z"/></g></g><g class="n"><g class="g"><path class="h" d="M48.093-384.608H73.468v11.05H48.093Z"/></g></g></g></g></g></g></svg>