<svg xmlns="http://www.w3.org/2000/svg" width="43.022" height="45" viewBox="0 0 43.022 45">
  <g id="Group_32456" data-name="Group 32456" transform="translate(-164 -206)">
    <ellipse id="Ellipse_376" data-name="Ellipse 376" cx="1.533" cy="1.484" rx="1.533" ry="1.484" transform="translate(198.813 229.044)" fill="#fff" opacity="0.371"/>
    <path id="Path_1194" data-name="Path 1194" d="M103.869,14.767a.742.742,0,0,0,1.049-.016c.285-.294,2.432.285,2.138,0V12.923l1.789-.412c.292-.131,2.468-.031,2.435-.35h1.943a.742.742,0,0,0,.817-.3h.919a.742.742,0,0,0,.817.3l.878.009a.742.742,0,0,0,.435.753l.793.436.619,1.392c-.294.285,1.515-.294,1.8,0a.742.742,0,0,0,1.049.016l3.644-3.534a.742.742,0,0,0-.213-1.209l-4.153-1.86.466-4.527a.742.742,0,0,0-.941-.789l-4.377,1.245L113.223.326a.742.742,0,0,0-1.228,0l-2.553,3.767-4.377-1.245a.742.742,0,0,0-.941.789l.466,4.527-4.153,1.86a.742.742,0,0,0-.213,1.209Z" transform="translate(72.902 206)" fill="#f4f4f4" opacity="0.522"/>
    <g id="camera-flash" transform="translate(164 206)">
      <path id="Path_1176" data-name="Path 1176" d="M130.632,210a10.632,10.632,0,1,0,10.632,10.632A10.644,10.644,0,0,0,130.632,210Zm0,19.78a9.148,9.148,0,1,1,9.148-9.148A9.159,9.159,0,0,1,130.632,229.78Z" transform="translate(-109.121 -189.231)" fill="#fff"/>
      <path id="Path_1177" data-name="Path 1177" d="M166.676,250a6.676,6.676,0,1,0,6.676,6.676A6.683,6.683,0,0,0,166.676,250Zm0,11.868a5.192,5.192,0,1,1,5.192-5.192A5.2,5.2,0,0,1,166.676,261.868Z" transform="translate(-145.165 -225.275)" fill="#fff"/>
      <path id="Path_1178" data-name="Path 1178" d="M48.324,125.934H38.073l-.56-3.363A3.145,3.145,0,0,0,34.478,120H28.544a3.145,3.145,0,0,0-3.035,2.571l-.56,3.363H14.7a4.7,4.7,0,0,0-4.7,4.7v17.8a4.7,4.7,0,0,0,4.7,4.7H48.324a4.7,4.7,0,0,0,4.7-4.7v-17.8A4.7,4.7,0,0,0,48.324,125.934Zm-21.352-3.119a1.673,1.673,0,0,1,1.572-1.331h5.934a1.673,1.673,0,0,1,1.572,1.331l.52,3.119H26.452Zm24.566,25.619a3.218,3.218,0,0,1-3.214,3.214H14.7a3.218,3.218,0,0,1-3.214-3.214v-17.8a3.218,3.218,0,0,1,3.214-3.214H48.324a3.218,3.218,0,0,1,3.214,3.214Z" transform="translate(-10 -108.132)" fill="#fff"/>
      <path id="Path_1179" data-name="Path 1179" d="M63.243,151.484h3.264a.742.742,0,1,0,0-1.484H63.243a.742.742,0,0,0,0,1.484Z" transform="translate(-57.309 -135.165)" fill="#fff"/>
      <path id="Path_1180" data-name="Path 1180" d="M352.72,220a2.72,2.72,0,1,0,2.72,2.72A2.723,2.723,0,0,0,352.72,220Zm0,3.956a1.236,1.236,0,1,1,1.236-1.236A1.238,1.238,0,0,1,352.72,223.956Z" transform="translate(-316.374 -198.242)" fill="#fff"/>
      <path id="Path_1181" data-name="Path 1181" d="M103.869,14.767A.742.742,0,1,0,104.9,13.7l-2.859-2.772L105.687,9.3a.742.742,0,0,0,.435-.753l-.409-3.971,3.84,1.092a.742.742,0,0,0,.817-.3l2.239-3.3,2.24,3.3a.742.742,0,0,0,.817.3l3.84-1.092L119.1,8.545a.742.742,0,0,0,.435.753l3.644,1.632L120.316,13.7a.742.742,0,1,0,1.033,1.065l3.644-3.534a.742.742,0,0,0-.213-1.209l-4.153-1.86.466-4.527a.742.742,0,0,0-.941-.789l-4.377,1.245L113.223.326a.742.742,0,0,0-1.228,0l-2.553,3.767-4.377-1.245a.742.742,0,0,0-.941.789l.466,4.527-4.153,1.86a.742.742,0,0,0-.213,1.209Z" transform="translate(-91.098)" fill="#fff"/>
    </g>
  </g>
</svg>
