<svg xmlns="http://www.w3.org/2000/svg" xmlns:xlink="http://www.w3.org/1999/xlink" width="36" height="36" viewBox="0 0 36 36"><defs><style>.a,.d{fill:none;}.b{fill:#ed1b24;fill-rule:evenodd;}.c{clip-path:url(#a);}.d{stroke:#fff;}</style><clipPath id="a"><path class="a" d="M19-98H55v-36H19Z"/></clipPath></defs><path class="b" d="M37-17A18,18,0,0,0,55-35,18,18,0,0,0,37-53,18,18,0,0,0,19-35,18,18,0,0,0,37-17Z" transform="translate(-19 53)"/><g class="c" transform="translate(-19 134)"><g transform="translate(28.36 -123.92)"><path class="d" d="M6.855,8.987A2.571,2.571,0,0,1,4.713,7.839,2.571,2.571,0,0,1,.239,5.334L2.17.276A.429.429,0,0,1,2.57,0H15.426a.429.429,0,0,1,.4.276L17.742,5.3a2.241,2.241,0,0,1,.143.372l.013.036A2.571,2.571,0,0,1,13.283,7.84,2.571,2.571,0,0,1,9,7.84,2.571,2.571,0,0,1,6.855,8.988Zm8.57.625a.431.431,0,1,1,.857,0v6.195a.454.454,0,0,1-.429.476H2.142a.454.454,0,0,1-.429-.476V9.612a.454.454,0,0,1,.429-.477.454.454,0,0,1,.429.477V15.33H15.426V9.612ZM2.865.857,1.025,5.673a1.714,1.714,0,1,0,3.254.876.435.435,0,0,1,.867,0,1.714,1.714,0,0,0,3.418,0,.435.435,0,0,1,.867,0,1.714,1.714,0,0,0,3.418,0,.435.435,0,0,1,.867,0,1.714,1.714,0,0,0,3.423-.133,1.748,1.748,0,0,0-.054-.438l-.012-.036a1.973,1.973,0,0,0-.117-.3L15.131.857Z"/></g></g></svg>