<svg xmlns="http://www.w3.org/2000/svg" xmlns:xlink="http://www.w3.org/1999/xlink" width="122.403" height="129.951" viewBox="0 0 122.403 129.951"><defs><style>.a,.b{fill:none;}.a{clip-rule:evenodd;}.c{clip-path:url(#a);}.d{clip-path:url(#b);}.e{isolation:isolate;}.f{clip-path:url(#c);}.g{clip-path:url(#d);}.h{fill:#fff;}.i{clip-path:url(#e);}.j{fill:#ffa300;}.k{clip-path:url(#g);}.l{fill:#fcbe28;}.m{clip-path:url(#i);}.n{fill:#fdda41;}.o{clip-path:url(#k);}.p{clip-path:url(#m);}.q{fill:#fdc477;}.r{clip-path:url(#o);}.s{fill:#fddaaa;}.t{clip-path:url(#q);}.u{fill:#ff8434;}.v{clip-path:url(#s);}.w{fill:#ffd400;}</style><clipPath id="a"><path class="a" d="M187.5-735.871a61.223,61.223,0,0,0,61.2-61.245,61.223,61.223,0,0,0-61.2-61.245,61.223,61.223,0,0,0-61.2,61.245A61.223,61.223,0,0,0,187.5-735.871Z"/></clipPath><clipPath id="b"><path class="b" d="M71-711H304V-918H71Z"/></clipPath><clipPath id="c"><rect class="b" width="133" height="134" transform="translate(121 -864)"/></clipPath><clipPath id="d"><path class="b" d="M126-735H249V-859H126Z"/></clipPath><clipPath id="e"><path class="a" d="M155.373-825.894h-27.18a3.352,3.352,0,0,0-3.37,3.4v68.464a3.352,3.352,0,0,0,3.37,3.4h27.18a3.352,3.352,0,0,0,3.369-3.4v-68.464A3.352,3.352,0,0,0,155.373-825.894Z"/></clipPath><clipPath id="g"><path class="a" d="M213.7-858.449a3.678,3.678,0,0,0,3.669-3.687,3.678,3.678,0,0,0-3.669-3.687,3.678,3.678,0,0,0-3.669,3.687A3.678,3.678,0,0,0,213.7-858.449Z"/></clipPath><clipPath id="i"><path class="a" d="M168.194-831.9h0a3.37,3.37,0,0,1-3.02-1.883l-4-8.072-8-4.033a3.407,3.407,0,0,1-1.866-3.048,3.408,3.408,0,0,1,1.866-3.048l8-4.032,4-8.072a3.5,3.5,0,0,1,6.04,0l4,8.072,7.995,4.032a3.412,3.412,0,0,1,1.866,3.048,3.411,3.411,0,0,1-1.866,3.048l-7.995,4.033-4,8.072A3.374,3.374,0,0,1,168.194-831.9Z"/></clipPath><clipPath id="k"><path class="a" d="M235.956-839.769h-3.425v-3.441a3.431,3.431,0,0,0-3.425-3.441,3.431,3.431,0,0,0-3.425,3.441v3.441h-3.425a3.431,3.431,0,0,0-3.425,3.441,3.431,3.431,0,0,0,3.425,3.441h3.425v3.441A3.431,3.431,0,0,0,229.107-826a3.431,3.431,0,0,0,3.425-3.441v-3.441h3.425a3.431,3.431,0,0,0,3.425-3.441A3.431,3.431,0,0,0,235.956-839.769Z"/></clipPath><clipPath id="m"><path class="a" d="M221.768-750.794H189.613a23.169,23.169,0,0,1-16.569-6.856l-7.513-7.455a3.109,3.109,0,0,1-1.007-2.329v-40.379a3.308,3.308,0,0,1,3.354-3.328h6.708l10.6-10.583a31.531,31.531,0,0,0,9.526-22.7,6.7,6.7,0,0,1,6.708-6.656,6.7,6.7,0,0,1,6.708,6.656v5.058a69.152,69.152,0,0,1-4.293,23.761l-1.677,4.46h18.2l.537,22.719Z"/></clipPath><clipPath id="o"><path class="a" d="M230.4-781.026a7.67,7.67,0,0,1,7.512,7.691A7.493,7.493,0,0,1,230.4-765.8h-6.707a7.493,7.493,0,0,1,7.512,7.536,7.478,7.478,0,0,1-7.512,7.469H211.666a7.478,7.478,0,0,1-7.512-7.469,7.493,7.493,0,0,1,7.512-7.536,7.493,7.493,0,0,1-7.512-7.536,7.67,7.67,0,0,1,7.512-7.691,7.478,7.478,0,0,1-7.512-7.469,7.685,7.685,0,0,1,7.512-7.758,7.493,7.493,0,0,1-7.512-7.536,7.478,7.478,0,0,1,7.512-7.469H230.4a7.478,7.478,0,0,1,7.512,7.469,7.493,7.493,0,0,1-7.512,7.536,7.685,7.685,0,0,1,7.512,7.758A7.478,7.478,0,0,1,230.4-781.026Z"/></clipPath><clipPath id="q"><path class="a" d="M166.97-817.156h-13.7a3.348,3.348,0,0,0-3.425,3.334v53.795a3.348,3.348,0,0,0,3.425,3.334h13.7a3.348,3.348,0,0,0,3.425-3.334v-53.8A3.347,3.347,0,0,0,166.97-817.156Z"/></clipPath><clipPath id="s"><path class="a" d="M141.773-764.066a3.678,3.678,0,0,0,3.669-3.687,3.678,3.678,0,0,0-3.669-3.687,3.678,3.678,0,0,0-3.669,3.687A3.678,3.678,0,0,0,141.773-764.066Z"/></clipPath></defs><g transform="translate(-126.299 -144.178)"><g class="c" transform="translate(0 1010)"><g class="d"><g class="e"><g class="f"><g class="g"><path class="h" d="M121.3-863.361H253.7v132.49H121.3Z"/></g><g class="i"><g class="g"><path class="j" d="M119.824-830.894h43.919v85.265H119.824Z"/></g></g></g></g></g></g><g class="k" transform="translate(0 1010)"><g class="d"><path class="l" d="M205.026-870.822h17.339v17.374H205.026Z"/></g></g><g class="m" transform="translate(0 1010)"><g class="d"><path class="n" d="M146.314-870.822h43.759V-826.9H146.314Z"/></g></g><g class="o" transform="translate(0 1010)"><g class="d"><path class="l" d="M213.832-851.651h30.549V-821H213.832Z"/></g></g><g class="p" transform="translate(0 1010)"><g class="d"><path class="q" d="M159.524-856.075h67.244v110.281H159.524Z"/></g></g><g class="r" transform="translate(0 1010)"><g class="d"><path class="s" d="M199.154-816.258h43.759v70.464H199.154Z"/></g></g><g class="t" transform="translate(0 1010)"><g class="d"><path class="u" d="M144.846-822.156H175.4v70.464H144.846Z"/></g></g><g class="v" transform="translate(0 1010)"><g class="d"><path class="w" d="M133.1-776.44h17.339v17.374H133.1Z"/></g></g></g></svg>