<svg id="whatsapp" xmlns="http://www.w3.org/2000/svg" xmlns:xlink="http://www.w3.org/1999/xlink" width="28.484" height="28.484" viewBox="0 0 28.484 28.484">
  <defs>
    <clipPath id="clip-path">
      <path id="Clip_2" data-name="Clip 2" d="M0,0H28.484V28.484H0Z" fill="none"/>
    </clipPath>
  </defs>
  <path id="Clip_2-2" data-name="Clip 2" d="M0,0H28.484V28.484H0Z" fill="none"/>
  <g id="whatsapp-2" data-name="whatsapp" clip-path="url(#clip-path)">
    <path id="Fill_1" data-name="Fill 1" d="M0,28.484H0l2.523-7.444A13.792,13.792,0,0,1,4.614,4.064a14.042,14.042,0,0,1,19.775,0,13.853,13.853,0,0,1-4.446,22.6,14.118,14.118,0,0,1-12.2-.635L0,28.484Zm8.032-4.872h0a11.769,11.769,0,0,0,18.224-9.737,11.475,11.475,0,0,0-.925-4.535A11.773,11.773,0,0,0,14.5,2.212,11.724,11.724,0,0,0,2.744,13.879a11.506,11.506,0,0,0,2.239,6.838L3.515,25.048l4.516-1.435Zm10.253-3.185h0a12.324,12.324,0,0,1-3.348-.967,11.3,11.3,0,0,1-3.924-2.734,17.013,17.013,0,0,1-1.854-2.288c-.039-.057-.065-.095-.078-.113a8.3,8.3,0,0,1-.765-1.217,5.121,5.121,0,0,1-.634-2.3A3.738,3.738,0,0,1,8.81,8.046l.07-.075a1.248,1.248,0,0,1,.913-.423c.118,0,.236.007.35.014s.21.013.307.013c.024,0,.048,0,.075,0s.059,0,.089,0c.181,0,.395.068.607.575.1.245.256.613.417,1,.288.694.585,1.412.64,1.521a.638.638,0,0,1,.029.6l-.046.092a1.912,1.912,0,0,1-.3.474c-.056.066-.115.137-.173.206-.117.142-.239.288-.342.391-.165.164-.353.351-.15.693a10.289,10.289,0,0,0,1.906,2.355,8.825,8.825,0,0,0,2.519,1.58c.1.044.18.078.239.107a.861.861,0,0,0,.371.108.477.477,0,0,0,.371-.2c.21-.238.861-1,1.085-1.334a.474.474,0,0,1,.4-.258,1.15,1.15,0,0,1,.37.089c.32.114,2.027.947,2.341,1.1l.192.094a1.125,1.125,0,0,1,.466.3,2.829,2.829,0,0,1-.2,1.622,2.577,2.577,0,0,1-1.027,1.084,3.339,3.339,0,0,1-1.286.531,1.907,1.907,0,0,0-.288.053A1.843,1.843,0,0,1,18.284,20.427Z" transform="translate(0 0)" fill="#0ec250"/>
  </g>
</svg>
